<?xml version="1.0" encoding="UTF-8" standalone="no"?>
<!-- Created with Inkscape (http://www.inkscape.org/) -->

<svg
   xmlns:dc="http://purl.org/dc/elements/1.1/"
   xmlns:cc="http://creativecommons.org/ns#"
   xmlns:rdf="http://www.w3.org/1999/02/22-rdf-syntax-ns#"
   xmlns:svg="http://www.w3.org/2000/svg"
   xmlns="http://www.w3.org/2000/svg"
   xmlns:sodipodi="http://sodipodi.sourceforge.net/DTD/sodipodi-0.dtd"
   xmlns:inkscape="http://www.inkscape.org/namespaces/inkscape"
   version="1.1"
   id="svg815"
   width="500"
   height="500"
   viewBox="0 0 500 499.99999"
   sodipodi:docname="Logo.svg"
   inkscape:version="0.92.4 (5da689c313, 2019-01-14)">
  <metadata
     id="metadata821">
    <rdf:RDF>
      <cc:Work
         rdf:about="">
        <dc:format>image/svg+xml</dc:format>
        <dc:type
           rdf:resource="http://purl.org/dc/dcmitype/StillImage" />
        <dc:title></dc:title>
      </cc:Work>
    </rdf:RDF>
  </metadata>
  <defs
     id="defs819" />
  <sodipodi:namedview
     pagecolor="#ffffff"
     bordercolor="#666666"
     borderopacity="1"
     objecttolerance="10"
     gridtolerance="10"
     guidetolerance="10"
     inkscape:pageopacity="0"
     inkscape:pageshadow="2"
     inkscape:window-width="1366"
     inkscape:window-height="705"
     id="namedview817"
     showgrid="false"
     inkscape:zoom="1"
     inkscape:cx="175.80618"
     inkscape:cy="214.91"
     inkscape:window-x="-8"
     inkscape:window-y="-8"
     inkscape:window-maximized="1"
     inkscape:current-layer="svg815" />
  <path
     style="opacity:1;fill:#ffffff;fill-opacity:1;stroke-width:0.46641791"
     d="m 34.851688,207.5227 c -5.900139,-0.69542 -7.336739,-1.03122 -11.19403,-2.61653 -6.047416,-2.48545 -10.350402,-6.23738 -12.754777,-11.12136 -4.3444038,-8.82474 -2.5910158,-20.14986 5.08835,-32.86562 0.929549,-1.53918 2.21801,-3.743 2.863247,-4.89739 1.708213,-3.05614 2.861561,-5.06234 4.438405,-7.72039 0.768902,-1.29613 1.925456,-3.29007 2.570121,-4.43098 0.644665,-1.1409 2.270364,-3.96337 3.612664,-6.27214 1.3423,-2.30876 2.918324,-5.03731 3.502276,-6.06343 0.583952,-1.02612 9.193384,-15.92817 19.132071,-33.115666 9.938688,-17.187505 18.547732,-32.089558 19.131206,-33.115677 0.583475,-1.026119 2.15911,-3.754664 3.501414,-6.063433 1.342299,-2.308769 2.967999,-5.131232 3.612663,-6.272141 0.644664,-1.140909 1.801217,-3.134845 2.570121,-4.43097 1.4585,-2.458572 2.46019,-4.194152 4.11934,-7.137374 2.62542,-4.657322 3.56399,-6.206747 5.72136,-9.444963 4.56206,-6.847685 9.986121,-11.312682 17.079971,-14.059952 2.17393,-0.841909 10.8793,-0.843576 13.0597,-0.0025 3.4795,1.342193 6.50607,3.08662 9.33212,5.378778 4.19377,3.401485 4.20209,3.428442 1.97405,6.396672 -1.74315,2.322241 -6.16363,9.610126 -9.5915,15.813122 -0.77969,1.410914 -2.53389,4.428636 -3.89823,6.706049 -1.36434,2.277413 -2.48062,4.206772 -2.48062,4.287465 0,0.08069 -1.39265,2.52006 -3.09478,5.420816 -3.56048,6.067755 -4.51741,7.728748 -6.12872,10.637909 -0.63939,1.154384 -1.32195,2.308768 -1.51682,2.565298 -0.19486,0.25653 -0.79644,1.253498 -1.33684,2.215485 -0.5404,0.961987 -1.37664,2.431204 -1.85833,3.264926 -0.48168,0.833722 -1.66174,2.88013 -2.622341,4.547574 -0.96061,1.667444 -2.14066,3.713855 -2.62235,4.547575 l -1.75158,3.031721 c -0.48168,0.83372 -1.66173,2.88013 -2.62234,4.54757 -0.96061,1.66745 -2.14066,3.713856 -2.62235,4.547576 -1.7473,3.02431 -2.67179,4.63087 -5.30087,9.21175 -1.4723,2.5653 -3.047219,5.29385 -3.499831,6.06344 -0.452612,0.76959 -1.60888,2.76352 -2.569487,4.43097 -0.960606,1.66744 -2.140662,3.71385 -2.622346,4.54757 l -1.751576,3.03172 c -0.481684,0.83372 -1.66174,2.88013 -2.622346,4.54757 -0.960607,1.66745 -2.140663,3.71385 -2.622346,4.54758 -0.481684,0.83372 -1.266246,2.19799 -1.743466,3.03171 -0.477225,0.83372 -1.496781,2.57633 -2.265681,3.87245 -0.768904,1.29613 -1.922933,3.29006 -2.564515,4.43097 -2.055583,3.6554 -2.979916,5.25468 -5.37735,9.30386 -3.012144,5.08739 -5.884532,10.82568 -6.826454,13.63747 -1.068038,3.18828 -2.153468,8.67686 -2.153911,10.89147 -5.6e-4,2.71906 1.627586,8.72338 3.098017,11.42504 1.454707,2.67278 5.067879,6.24028 8.142744,8.03982 2.491031,1.45786 11.413853,4.63214 14.411842,5.12699 3.220416,0.53157 -34.306543,0.12841 -38.945895,-0.4184 z"
     id="path827"
     inkscape:connector-curvature="0" />
  <path
     style="opacity:1;fill:#ffffff;fill-opacity:1;stroke-width:0.46641791"
     d="m 102.01587,207.5512 c -8.781201,-0.9862 -14.467161,-3.37996 -19.398441,-8.16662 -3.032035,-2.94312 -4.531882,-5.41676 -5.950421,-9.8138 -0.632352,-1.96011 -0.719516,-10.8902 -0.12533,-12.84039 0.226602,-0.74373 0.692346,-2.29674 1.034986,-3.45113 0.943833,-3.17985 3.968725,-9.10892 9.518285,-18.65671 2.75845,-4.7458 5.54242,-9.5622 6.1866,-10.70311 0.64418,-1.14091 1.80034,-3.13485 2.56924,-4.43097 1.50618,-2.53894 2.07811,-3.52141 4.765821,-8.18682 0.96061,-1.66744 2.14066,-3.71385 2.62235,-4.54757 l 1.75158,-3.03172 c 0.48168,-0.83372 1.66174,-2.88013 2.62234,-4.54757 0.96061,-1.66745 2.14066,-3.71386 2.62235,-4.54758 l 1.75158,-3.03171 c 0.48168,-0.83373 1.65414,-2.88013 2.60547,-4.54758 0.95133,-1.66744 1.89127,-3.2416 2.08876,-3.49813 0.19749,-0.25653 0.99519,-1.62081 1.77265,-3.03172 0.77747,-1.410906 5.97642,-10.436096 11.55322,-20.055971 5.5768,-9.619869 10.55661,-18.22528 11.06624,-19.123134 0.50962,-0.897855 1.78985,-3.101679 2.84495,-4.897388 1.05509,-1.795709 2.26276,-3.89459 2.68371,-4.664179 0.42096,-0.76959 1.05573,-1.452951 1.41061,-1.518581 0.40087,-0.07414 2.58829,3.254582 5.77584,8.789436 7.12565,12.372983 10.4384,18.106153 11.56487,20.014592 2.78494,4.718181 2.74385,4.482399 1.22904,7.051519 -0.75167,1.274839 -1.36668,2.386781 -1.36668,2.470979 0,0.0842 -1.11627,2.016431 -2.48061,4.293851 -1.36434,2.27741 -3.11854,5.29513 -3.89823,6.70604 -0.7797,1.410916 -2.84158,4.979016 -4.58198,7.929106 -1.74039,2.95009 -3.80228,6.51819 -4.58197,7.9291 -0.77969,1.41092 -2.53389,4.42864 -3.89823,6.70605 -1.36434,2.27741 -2.48062,4.21283 -2.48062,4.30094 0,0.0881 -0.97149,1.79285 -2.15886,3.78835 -2.32532,3.90792 -3.37932,5.72453 -5.20297,8.96748 -0.64158,1.14091 -1.79561,3.13484 -2.56451,4.43097 -0.7689,1.29612 -1.78846,3.03872 -2.26568,3.87244 -0.47722,0.83373 -1.26178,2.198 -1.74347,3.03172 -0.48168,0.83372 -1.66174,2.88013 -2.62234,4.54758 -0.96061,1.66744 -2.177,3.76632 -2.7031,4.66417 -2.80746,4.79133 -5.61294,10.59787 -6.68492,13.8359 -1.00881,3.04723 -1.22006,4.58519 -1.27083,9.25179 -0.0632,5.81259 0.1,6.59338 2.36346,11.30787 1.39564,2.90689 6.14191,7.53239 9.44825,9.20784 2.58498,1.30991 11.19078,4.26188 13.30609,4.56427 3.60282,0.51504 -34.50304,0.15555 -39.1791,-0.36961 z"
     id="path829"
     inkscape:connector-curvature="0" />
  <path
     style="opacity:1;fill:#ffffff;fill-opacity:1;stroke-width:0.46641791"
     d="m 169.64646,207.55203 c -5.15497,-0.57812 -10.84394,-2.19685 -14.12493,-4.01909 -10.30121,-5.72123 -14.21294,-15.78672 -11.03237,-28.388 0.70574,-2.7961 4.11982,-10.46635 6.12024,-13.75006 1.97624,-3.24403 4.3449,-7.34846 4.3449,-7.5289 0,-0.10714 0.53599,-1.04387 1.1911,-2.08163 0.6551,-1.03775 1.5996,-2.60774 2.09888,-3.48886 0.49928,-0.88113 1.30112,-2.28418 1.78188,-3.1179 0.48075,-0.83373 2.0787,-3.61474 3.55099,-6.18004 1.47229,-2.5653 3.04645,-5.29385 3.49814,-6.06343 0.45168,-0.76959 2.02584,-3.49814 3.49813,-6.06344 1.47229,-2.5653 3.04721,-5.29384 3.49983,-6.06343 0.8149,-1.3856 3.49382,-6.02596 5.20057,-9.0083 2.01373,-3.51875 2.37398,-3.91283 2.98294,-3.26315 0.31498,0.33605 1.09814,1.5555 1.74037,2.70988 1.23568,2.22112 5.14481,9.04868 9.14639,15.97482 0.48168,0.83372 1.66174,2.88013 2.62235,4.54757 0.9606,1.66744 2.17033,3.76632 2.68829,4.66418 3.30086,5.72194 3.23638,5.54707 2.54361,6.8978 -0.3567,0.69548 -1.07583,1.99912 -1.59806,2.89698 -0.52222,0.89785 -3.49494,6.00497 -6.60604,11.34914 -3.1111,5.34418 -5.65653,9.80658 -5.65653,9.91646 0,0.10989 -0.39236,1.08952 -0.87191,2.17698 -0.47955,1.08745 -1.1337,2.92169 -1.45367,4.07607 -0.31997,1.15439 -0.76716,2.70739 -0.99376,3.45113 -0.63783,2.09342 -0.47822,10.05678 0.24962,12.45479 2.21192,7.28752 7.24026,12.63056 14.26338,15.15604 1.28285,0.4613 2.33246,0.9817 2.33246,1.15643 0,1.93001 -19.20114,2.91305 -31.0168,1.58796 z"
     id="path831"
     inkscape:connector-curvature="0" />
  <rect
     style="opacity:1;fill:#ff0000;fill-opacity:1"
     id="rect857"
     width="500"
     height="500"
     x="0"
     y="0" />
  <path
     style="opacity:1;fill:#000080;fill-opacity:1"
     d="M 0.02495545,250.12579 V 0.12578832 H 250.02496 h 250 V 250.12579 v 250 h -250 H 0.02495545 Z"
     id="path889"
     inkscape:connector-curvature="0" />
  <rect
     style="opacity:1;fill:#ffffff;fill-opacity:1;stroke-width:0.625"
     id="rect891-2"
     width="50"
     height="50"
     x="350"
     y="350" />
  <rect
     style="opacity:1;fill:#ffffff;fill-opacity:1;stroke-width:0.9375"
     id="rect891-2-4-0"
     width="75"
     height="75"
     x="337"
     y="336" />
  <rect
     style="opacity:1;fill:#000080;fill-opacity:1;stroke-width:0.625"
     id="rect891-2-4"
     width="50"
     height="50"
     x="335"
     y="336" />
  <rect
     style="opacity:1;fill:#ffffff;fill-opacity:1;stroke-width:1.875"
     id="rect891"
     width="150"
     height="150"
     x="225"
     y="225" />
  <rect
     style="opacity:1;fill:#000080;fill-opacity:1;stroke-width:1.25"
     id="rect891-54"
     width="100"
     height="100"
     x="225"
     y="225" />
  <rect
     style="opacity:1;fill:#ffffff;fill-opacity:1;stroke-width:2.5"
     id="rect891-5"
     width="200"
     height="200"
     x="100"
     y="100" />
</svg>
