<?xml version="1.0" encoding="UTF-8" standalone="no"?>
<!-- Created with Inkscape (http://www.inkscape.org/) -->

<svg
   xmlns:dc="http://purl.org/dc/elements/1.1/"
   xmlns:cc="http://creativecommons.org/ns#"
   xmlns:rdf="http://www.w3.org/1999/02/22-rdf-syntax-ns#"
   xmlns:svg="http://www.w3.org/2000/svg"
   xmlns="http://www.w3.org/2000/svg"
   xmlns:sodipodi="http://sodipodi.sourceforge.net/DTD/sodipodi-0.dtd"
   xmlns:inkscape="http://www.inkscape.org/namespaces/inkscape"
   version="1.1"
   id="svg815"
   width="437.07358"
   height="250.00002"
   viewBox="0 0 437.07358 250.00002"
   sodipodi:docname="Logo.svg"
   inkscape:version="0.92.4 (5da689c313, 2019-01-14)">
  <metadata
     id="metadata821">
    <rdf:RDF>
      <cc:Work
         rdf:about="">
        <dc:format>image/svg+xml</dc:format>
        <dc:type
           rdf:resource="http://purl.org/dc/dcmitype/StillImage" />
        <dc:title />
      </cc:Work>
    </rdf:RDF>
  </metadata>
  <defs
     id="defs819" />
  <sodipodi:namedview
     pagecolor="#ffffff"
     bordercolor="#666666"
     borderopacity="1"
     objecttolerance="10"
     gridtolerance="10"
     guidetolerance="10"
     inkscape:pageopacity="0"
     inkscape:pageshadow="2"
     inkscape:window-width="1366"
     inkscape:window-height="705"
     id="namedview817"
     showgrid="false"
     inkscape:zoom="2.144"
     inkscape:cx="242.89124"
     inkscape:cy="126.22995"
     inkscape:window-x="-8"
     inkscape:window-y="-8"
     inkscape:window-maximized="1"
     inkscape:current-layer="svg815" />
  <rect
     style="opacity:1;fill:#000080;fill-opacity:1;stroke-width:2.1840539"
     id="rect1088"
     width="439.96536"
     height="250"
     x="-2.891789"
     y="0" />
  <path
     style="opacity:1;fill:#ffffff;fill-opacity:1;stroke-width:0.46641791"
     d="m 52.57557,220.25032 c -5.90014,-0.69542 -7.33674,-1.03122 -11.19403,-2.61653 -6.04742,-2.48545 -10.3504,-6.23738 -12.75478,-11.12136 -4.3444,-8.82474 -2.59101,-20.14986 5.08835,-32.86562 0.92955,-1.53918 2.21801,-3.743 2.86325,-4.89739 1.70821,-3.05614 2.86156,-5.06234 4.4384,-7.72039 0.76891,-1.29613 1.92546,-3.29007 2.57013,-4.43098 0.64466,-1.1409 2.27036,-3.96337 3.61266,-6.27214 1.3423,-2.30876 2.91832,-5.03731 3.50228,-6.06343 0.58395,-1.02612 9.19338,-15.92817 19.13207,-33.11567 9.93868,-17.18751 18.54773,-32.089563 19.1312,-33.115682 0.58348,-1.026119 2.15911,-3.754664 3.50142,-6.063433 1.34229,-2.308769 2.968,-5.131232 3.61266,-6.272141 0.64466,-1.140909 1.80122,-3.134845 2.57012,-4.43097 1.4585,-2.458572 2.46019,-4.194152 4.11934,-7.137374 2.62542,-4.657322 3.56399,-6.206747 5.72136,-9.444963 4.56206,-6.847685 9.98612,-11.312682 17.07997,-14.059952 2.17393,-0.841909 10.8793,-0.843576 13.0597,-0.0025 3.4795,1.342193 6.50607,3.08662 9.33212,5.378778 4.19377,3.401485 4.20209,3.428442 1.97405,6.396672 -1.74315,2.322241 -6.16363,9.610126 -9.5915,15.813122 -0.77969,1.410914 -2.53389,4.428636 -3.89823,6.706049 -1.36434,2.277413 -2.48062,4.206772 -2.48062,4.287465 0,0.08069 -1.39265,2.52006 -3.09478,5.420816 -3.56048,6.067755 -4.51741,7.728748 -6.12872,10.637909 -0.63939,1.154384 -1.32195,2.308764 -1.51682,2.565294 -0.19486,0.25653 -0.79644,1.2535 -1.33684,2.21549 -0.5404,0.96199 -1.37664,2.4312 -1.85833,3.26492 -0.48168,0.83373 -1.66174,2.88013 -2.62234,4.54758 -0.96061,1.66744 -2.14066,3.71385 -2.62235,4.54757 l -1.75158,3.03173 c -0.48168,0.83372 -1.66173,2.88013 -2.62234,4.54757 -0.96061,1.66745 -2.14066,3.71386 -2.62235,4.54758 -1.7473,3.02431 -2.67179,4.63087 -5.30087,9.21175 -1.4723,2.5653 -3.04722,5.29385 -3.49983,6.06344 -0.45261,0.76959 -1.60888,2.76352 -2.56949,4.43097 -0.9606,1.66744 -2.14066,3.71385 -2.62234,4.54757 l -1.75158,3.03172 c -0.48168,0.83372 -1.66174,2.88013 -2.62235,4.54757 -0.9606,1.66745 -2.14066,3.71385 -2.62234,4.54758 -0.48169,0.83372 -1.26625,2.19799 -1.74347,3.03171 -0.47722,0.83372 -1.49678,2.57633 -2.26568,3.87245 -0.7689,1.29613 -1.92293,3.29006 -2.56451,4.43097 -2.05559,3.6554 -2.97992,5.25468 -5.37735,9.30386 -3.01215,5.08739 -5.88454,10.82568 -6.82646,13.63747 -1.06804,3.18828 -2.15347,8.67686 -2.15391,10.89147 -5.6e-4,2.71906 1.62759,8.72338 3.09802,11.42504 1.45471,2.67278 5.06788,6.24028 8.14274,8.03982 2.49103,1.45786 11.41386,4.63214 14.41184,5.12699 3.22042,0.53157 -34.30654,0.12841 -38.94589,-0.4184 z"
     id="path827"
     inkscape:connector-curvature="0" />
  <path
     style="opacity:1;fill:#ffffff;fill-opacity:1;stroke-width:0.46641791"
     d="m 187.37034,220.27965 c -5.15497,-0.57812 -10.84394,-2.19685 -14.12493,-4.01909 -10.30121,-5.72123 -14.21294,-15.78672 -11.03237,-28.388 0.70574,-2.7961 4.11982,-10.46635 6.12024,-13.75006 1.97624,-3.24403 4.3449,-7.34846 4.3449,-7.5289 0,-0.10714 0.53599,-1.04387 1.1911,-2.08163 0.6551,-1.03775 1.5996,-2.60774 2.09888,-3.48886 0.49928,-0.88113 1.30112,-2.28418 1.78188,-3.1179 0.48075,-0.83373 2.0787,-3.61474 3.55099,-6.18004 1.47229,-2.5653 3.04645,-5.29385 3.49814,-6.06343 0.45168,-0.76959 2.02584,-3.49814 3.49813,-6.06344 1.47229,-2.5653 3.04721,-5.29384 3.49983,-6.06343 0.8149,-1.3856 3.49382,-6.02596 5.20057,-9.0083 2.01373,-3.51875 2.37398,-3.91283 2.98294,-3.26315 0.31498,0.33605 1.09814,1.5555 1.74037,2.70988 1.23568,2.22112 5.14481,9.04868 9.14639,15.97482 0.48168,0.83372 1.66174,2.88013 2.62235,4.54757 0.9606,1.66744 2.17033,3.76632 2.68829,4.66418 3.30086,5.72194 3.23638,5.54707 2.54361,6.8978 -0.3567,0.69548 -1.07583,1.99912 -1.59806,2.89698 -0.52222,0.89785 -3.49494,6.00497 -6.60604,11.34914 -3.1111,5.34418 -5.65653,9.80658 -5.65653,9.91646 0,0.10989 -0.39236,1.08952 -0.87191,2.17698 -0.47955,1.08745 -1.1337,2.92169 -1.45367,4.07607 -0.31997,1.15439 -0.76716,2.70739 -0.99376,3.45113 -0.63783,2.09342 -0.47822,10.05678 0.24962,12.45479 2.21192,7.28752 7.24026,12.63056 14.26338,15.15604 1.28285,0.4613 2.33246,0.9817 2.33246,1.15643 0,1.93001 -19.20114,2.91305 -31.0168,1.58796 z"
     id="path831"
     inkscape:connector-curvature="0" />
  <path
     style="opacity:1;fill:#ffffff;fill-opacity:1;stroke-width:0.46641791"
     d="m 119.73975,220.27882 c -8.7812,-0.9862 -14.46716,-3.37996 -19.39844,-8.16662 -3.03203,-2.94312 -4.53188,-5.41676 -5.95042,-9.8138 -0.63235,-1.96011 -0.71952,-10.8902 -0.12533,-12.84039 0.2266,-0.74373 0.69234,-2.29674 1.03499,-3.45113 0.94383,-3.17985 3.96872,-9.10892 9.51828,-18.65671 2.75845,-4.7458 5.54242,-9.5622 6.1866,-10.70311 0.64418,-1.14091 1.80034,-3.13485 2.56924,-4.43097 1.50618,-2.53894 2.07811,-3.52141 4.76582,-8.18682 0.96061,-1.66744 2.14066,-3.71385 2.62235,-4.54757 l 1.75158,-3.03172 c 0.48168,-0.83372 1.66174,-2.88013 2.62234,-4.54757 0.96061,-1.66745 2.14066,-3.71386 2.62235,-4.54758 l 1.75158,-3.03171 c 0.48168,-0.83373 1.65414,-2.88013 2.60547,-4.54758 0.95133,-1.66744 1.89127,-3.2416 2.08876,-3.49813 0.19749,-0.25653 0.99519,-1.62081 1.77265,-3.03172 0.77747,-1.41091 5.97642,-10.4361 11.55322,-20.05598 5.5768,-9.619869 10.55661,-18.22528 11.06624,-19.123134 0.50962,-0.897855 1.78985,-3.101679 2.84495,-4.897388 1.05509,-1.795709 2.26276,-3.89459 2.68371,-4.664179 0.42096,-0.76959 1.05573,-1.452951 1.41061,-1.518581 0.40087,-0.07414 2.58829,3.254582 5.77584,8.789436 7.12565,12.372983 10.4384,18.106156 11.56487,20.014596 2.78494,4.71818 2.74385,4.48239 1.22904,7.05151 -0.75167,1.27484 -1.36668,2.38679 -1.36668,2.47098 0,0.0842 -1.11627,2.01644 -2.48061,4.29386 -1.36434,2.27741 -3.11854,5.29513 -3.89823,6.70604 -0.7797,1.41092 -2.84158,4.97902 -4.58198,7.92911 -1.74039,2.95009 -3.80228,6.51819 -4.58197,7.9291 -0.77969,1.41092 -2.53389,4.42864 -3.89823,6.70605 -1.36434,2.27741 -2.48062,4.21283 -2.48062,4.30094 0,0.0881 -0.97149,1.79285 -2.15886,3.78835 -2.32532,3.90792 -3.37932,5.72453 -5.20297,8.96748 -0.64158,1.14091 -1.79561,3.13484 -2.56451,4.43097 -0.7689,1.29612 -1.78846,3.03872 -2.26568,3.87244 -0.47722,0.83373 -1.26178,2.198 -1.74347,3.03172 -0.48168,0.83372 -1.66174,2.88013 -2.62234,4.54758 -0.96061,1.66744 -2.177,3.76632 -2.7031,4.66417 -2.80746,4.79133 -5.61294,10.59787 -6.68492,13.8359 -1.00881,3.04723 -1.22006,4.58519 -1.27083,9.25179 -0.0632,5.81259 0.1,6.59338 2.36346,11.30787 1.39564,2.90689 6.14191,7.53239 9.44825,9.20784 2.58498,1.30991 11.19078,4.26188 13.30609,4.56427 3.60282,0.51504 -34.50304,0.15555 -39.1791,-0.36961 z"
     id="path829"
     inkscape:connector-curvature="0" />
  <text
     xml:space="preserve"
     style="font-style:normal;font-variant:normal;font-weight:normal;font-stretch:normal;font-size:48px;line-height:1.25;font-family:'MS Outlook';-inkscape-font-specification:'MS Outlook';letter-spacing:0px;word-spacing:0px;fill:#ffffff;fill-opacity:1;stroke:none"
     x="146.45523"
     y="37.313431"
     id="text1100"><tspan
       sodipodi:role="line"
       id="tspan1098"
       x="146.45523"
       y="81.704056"
       style="font-style:normal;font-variant:normal;font-weight:normal;font-stretch:normal;font-family:'MS Reference Sans Serif';-inkscape-font-specification:'MS Reference Sans Serif'" /></text>
  <text
     xml:space="preserve"
     style="font-style:normal;font-weight:normal;font-size:48px;line-height:1.25;font-family:sans-serif;letter-spacing:0px;word-spacing:0px;fill:#ffffff;fill-opacity:1;stroke:none"
     x="160.92165"
     y="52.847015"
     id="text1104"><tspan
       sodipodi:role="line"
       id="tspan1102"
       x="160.92165"
       y="52.847015"
       style="font-style:normal;font-variant:normal;font-weight:normal;font-stretch:normal;font-size:48px;font-family:'MS Reference Sans Serif';-inkscape-font-specification:'MS Reference Sans Serif';fill:#ffffff">Purchase</tspan></text>
  <text
     xml:space="preserve"
     style="font-style:normal;font-weight:normal;font-size:48px;line-height:1.25;font-family:sans-serif;letter-spacing:0px;word-spacing:0px;fill:#ffffff;fill-opacity:1;stroke:none"
     x="195.08696"
     y="109.31098"
     id="text1104-0"><tspan
       sodipodi:role="line"
       id="tspan1102-3"
       x="195.08696"
       y="109.31098"
       style="font-style:normal;font-variant:normal;font-weight:normal;font-stretch:normal;font-size:48px;font-family:'MS Reference Sans Serif';-inkscape-font-specification:'MS Reference Sans Serif';fill:#ffffff">Request</tspan></text>
  <text
     xml:space="preserve"
     style="font-style:normal;font-weight:normal;font-size:48px;line-height:1.25;font-family:sans-serif;letter-spacing:0px;word-spacing:0px;fill:#ffffff;fill-opacity:1;stroke:none"
     x="230.62152"
     y="167.70802"
     id="text1104-2"><tspan
       sodipodi:role="line"
       id="tspan1102-2"
       x="230.62152"
       y="167.70802"
       style="font-style:normal;font-variant:normal;font-weight:normal;font-stretch:normal;font-size:48px;font-family:'MS Reference Sans Serif';-inkscape-font-specification:'MS Reference Sans Serif';fill:#ffffff">System</tspan></text>
</svg>
