<?xml version="1.0" encoding="UTF-8" standalone="no"?>
<!-- Created with Inkscape (http://www.inkscape.org/) -->

<svg
   xmlns:dc="http://purl.org/dc/elements/1.1/"
   xmlns:cc="http://creativecommons.org/ns#"
   xmlns:rdf="http://www.w3.org/1999/02/22-rdf-syntax-ns#"
   xmlns:svg="http://www.w3.org/2000/svg"
   xmlns="http://www.w3.org/2000/svg"
   xmlns:sodipodi="http://sodipodi.sourceforge.net/DTD/sodipodi-0.dtd"
   xmlns:inkscape="http://www.inkscape.org/namespaces/inkscape"
   width="237.46353mm"
   height="40.005001mm"
   viewBox="0 0 237.46353 40.005001"
   version="1.1"
   id="svg3713"
   inkscape:version="0.92.4 (5da689c313, 2019-01-14)"
   sodipodi:docname="drawing.svg">
  <defs
     id="defs3707">
    <clipPath
       id="c0_1">
      <path
         inkscape:connector-curvature="0"
         d="M 170.4,67.2 V 43.6 h 220 v 23.6 z"
         id="path713" />
    </clipPath>
  </defs>
  <sodipodi:namedview
     id="base"
     pagecolor="#ffffff"
     bordercolor="#666666"
     borderopacity="1.0"
     inkscape:pageopacity="0.0"
     inkscape:pageshadow="2"
     inkscape:zoom="0.98994949"
     inkscape:cx="496.37596"
     inkscape:cy="-83.958902"
     inkscape:document-units="mm"
     inkscape:current-layer="layer1"
     showgrid="false"
     inkscape:window-width="1366"
     inkscape:window-height="705"
     inkscape:window-x="-8"
     inkscape:window-y="-8"
     inkscape:window-maximized="1" />
  <metadata
     id="metadata3710">
    <rdf:RDF>
      <cc:Work
         rdf:about="">
        <dc:format>image/svg+xml</dc:format>
        <dc:type
           rdf:resource="http://purl.org/dc/dcmitype/StillImage" />
        <dc:title></dc:title>
      </cc:Work>
    </rdf:RDF>
  </metadata>
  <g
     inkscape:label="Layer 1"
     inkscape:groupmode="layer"
     id="layer1"
     transform="translate(-10.536088,-37.360596)">
    <g
       transform="matrix(0.26458333,0,0,0.26458333,7.0700462,30.957679)"
       style="display:block"
       id="g3652">
      <path
         d="M 141.8,88.3 177.4,91 141.8,93.7 106.3,91 Z m 212.7,10 35.5,2.7 35.6,-2.7 -35.6,-2.7 z m 174.6,-26 34.1,-2.5 -42,-3.1 64.2,-4.8 -57.2,-4.3 79.3,-5.9 -135,-10.1 36.3,-2.7 -66.2,-5 -58.9,4.4 -26.4,-3.4 64.9,-4.9 -52,-3.9 -36.3,2.7 -42.1,-3.1 -39.3,2.9 40,3 -44.1,3.3 -44,-3.3 25.5,-1.9 -30.5,-2.3 -97.5,7.3 34.6,2.6 -109.6,8.2 64.5,4.8 -34,2.6 42,3.1 -64.3,4.8 57.2,4.3 -79.2,5.9 108.9,8.1 -49.9,3.8 52.7,3.9 13.6,-1 39.6,3 58.8,-4.4 26.4,3.4 -68.5,5.1 94.1,7.1 20.6,-1.6 -37.1,-2.8 52.9,-3.9 37.1,2.8 24.3,-1.8 34.5,2.5 97.5,-7.3 -34.5,-2.5 109.5,-8.2 z"
         class="g0_1"
         id="path756"
         inkscape:connector-curvature="0"
         style="fill:#dcddde" />
      <g
         id="g3608">
        <path
           style="fill:#dcddde"
           inkscape:connector-curvature="0"
           id="path758"
           class="g0_1"
           d="m 292.7,165.1 28.8,2.2 -28.8,2.2 -28.9,-2.2 z m 172.7,8.1 28.9,2.2 28.8,-2.2 -28.8,-2.1 z m 141.9,-21.1 27.6,-2 -34.1,-2.6 52.2,-3.9 -46.5,-3.5 64.4,-4.8 -109.6,-8.2 29.4,-2.2 -53.7,-4 -47.8,3.6 -21.5,-2.8 52.7,-4 -42.3,-3.1 -29.4,2.2 -34.2,-2.6 -32,2.4 32.5,2.5 -35.8,2.6 -35.7,-2.6 20.7,-1.6 -24.8,-1.9 -79.2,6 28.1,2.1 -89,6.6 52.4,3.9 -27.6,2.1 34.1,2.6 -52.2,3.9 46.5,3.4 -64.4,4.8 88.4,6.7 -40.5,3 42.8,3.2 11.1,-0.8 32.1,2.4 47.8,-3.6 21.5,2.8 -55.7,4.2 76.4,5.7 16.8,-1.3 -30.1,-2.2 42.9,-3.2 30.1,2.2 19.8,-1.5 28,2.1 79.2,-5.9 -28,-2.1 89,-6.6 z" />
        <path
           style="fill:#dcddde"
           inkscape:connector-curvature="0"
           id="path760"
           class="g0_1"
           d="m 598.6,92.6 23.8,1.8 -23.8,1.7 -23.8,-1.7 z m 142.5,6.6 23.8,1.8 23.8,-1.8 -23.8,-1.7 z m 117,-17.3 22.8,-1.7 -28.2,-2.1 43.1,-3.3 -38.3,-2.8 53.1,-4 -90.5,-6.8 24.3,-1.8 -44.3,-3.3 -39.4,2.9 -17.8,-2.3 43.5,-3.2 -34.8,-2.6 -24.3,1.8 -28.2,-2.1 -26.4,2 26.8,2 -29.5,2.2 -29.5,-2.2 17.1,-1.3 -20.4,-1.5 -65.3,4.8 23.1,1.8 -73.4,5.5 43.2,3.2 -22.8,1.7 28.1,2.1 -43,3.2 38.3,2.9 -53.1,4 73,5.4 -33.4,2.5 35.3,2.6 9.1,-0.6 26.5,2 39.4,-3 17.7,2.3 -45.9,3.4 63.1,4.8 13.7,-1.1 -24.8,-1.8 35.5,-2.7 24.8,1.9 16.3,-1.2 23.1,1.7 65.3,-4.9 -23.1,-1.7 73.4,-5.5 z" />
        <path
           style="fill:#231f20"
           inkscape:connector-curvature="0"
           id="path762"
           class="g4_1"
           d="m 133,31.8 c -0.6,4.3 0.3,9.7 0.3,9.7 0,0 -3.1,-2.3 -6.5,-4.3 -2,-1.1 -3.8,-3.6 -4.8,-5.5 -0.8,-1.3 -1.2,-2.3 -1.2,-2.3 -4.8,5.1 -1.7,11.1 -1.7,11.1 -7.4,-1.6 -12,0.3 -12,0.3 14,9.2 6.6,9.9 -1.5,13.8 -8.1,3.8 -8.7,8.6 -8.7,8.6 9.6,-3.2 13.5,0.9 13.5,0.9 -5.2,4.9 -0.6,12.7 -0.6,12.7 5.1,9.7 17.6,13.8 28.8,15.5 11.1,1.7 21,1 21,1 l -25.6,8 -22.9,5.8 c 0,0 -22.8,-2.5 -31.2,-21.7 -8.3,-19.3 6.3,-34.5 4.8,-35.5 -1.4,-1 -3.2,1.1 -3.3,1.4 6.3,-18.2 25.5,-18 26.2,-19.9 0.8,-2 -3.8,-2.1 -3.8,-2.1 19.4,-6.4 29.2,2.5 29.2,2.5 z" />
        <path
           style="fill:#ffffff"
           inkscape:connector-curvature="0"
           id="path764"
           class="g2_1"
           d="m 877.3,83.8 v 58.3 c 22.3,-0.1 25.2,0 29,-4.9 V 79.9 c -7.2,3.7 -14.5,3.9 -29,3.9 z" />
        <path
           style="fill:none;stroke:#231f20;stroke-width:2.10069442;stroke-linecap:butt;stroke-linejoin:miter"
           inkscape:connector-curvature="0"
           id="path766"
           class="g5_1"
           d="m 877.3,83.8 v 58.3 c 22.3,-0.1 25.2,0 29,-4.9 V 79.9 c -7.2,3.7 -14.5,3.9 -29,3.9 z" />
        <path
           style="fill:none;stroke:#231f20;stroke-width:1.14583337;stroke-linecap:butt;stroke-linejoin:miter"
           inkscape:connector-curvature="0"
           id="path768"
           class="g6_1"
           d="m 876.4,88.1 c 24.8,0 27,-1.8 29.3,-3.5 m -28.4,52.7 c 30,3.4 27.4,-5.4 28.7,-5.7" />
        <path
           style="fill:#ffffff"
           inkscape:connector-curvature="0"
           id="path770"
           class="g2_1"
           d="m 301.9,131.1 c -0.1,0.5 -0.1,1 0.2,1.4 0.3,0.5 8.3,12.2 18.7,12.2 2.3,0 4.6,-0.6 6.8,-1.8 0.9,-0.6 1.8,-1.2 2.5,-1.7 5.5,-3.4 10.8,-8.3 12.7,-10.1 z" />
        <path
           style="fill:#ffffff"
           inkscape:connector-curvature="0"
           id="path772"
           class="g2_1"
           d="m 46.5,94.1 v 57.3 l 54.2,-7.1 V 87 Z" />
        <path
           style="fill:none;stroke:#231f20;stroke-width:2.10069442;stroke-linecap:butt;stroke-linejoin:miter"
           inkscape:connector-curvature="0"
           id="path774"
           class="g5_1"
           d="m 46.5,94.1 v 57.3 l 54.2,-7.1 V 87 Z" />
        <path
           style="fill:none;stroke:#231f20;stroke-width:1.14583337;stroke-linecap:butt;stroke-linejoin:miter"
           inkscape:connector-curvature="0"
           id="path776"
           class="g6_1"
           d="m 47.6,147.1 53.1,-7.5 M 47.6,97.9 100.7,91.1" />
        <path
           style="fill:#bfc1c5"
           inkscape:connector-curvature="0"
           id="path778"
           class="g7_1"
           d="m 100.7,87 -37,-5.5 v 57.3 l 37,5.5 z" />
        <path
           style="fill:none;stroke:#231f20;stroke-width:2.10069442;stroke-linecap:butt;stroke-linejoin:miter"
           inkscape:connector-curvature="0"
           id="path780"
           class="g5_1"
           d="m 100.7,87 -37,-5.5 v 57.3 l 37,5.5 z" />
        <path
           style="fill:#ffffff"
           inkscape:connector-curvature="0"
           id="path782"
           class="g2_1"
           d="M 398.3,138.8 C 304,156 158,121.6 63.7,138.8 V 81.5 C 158,64.3 304,98.7 398.3,81.5 Z" />
        <path
           style="fill:none;stroke:#231f20;stroke-width:2.10069442;stroke-linecap:butt;stroke-linejoin:miter"
           inkscape:connector-curvature="0"
           id="path784"
           class="g5_1"
           d="M 398.3,138.8 C 304,156 158,121.6 63.7,138.8 V 81.5 C 158,64.3 304,98.7 398.3,81.5 Z" />
        <path
           style="fill:none;stroke:#231f20;stroke-width:1.14583337;stroke-linecap:butt;stroke-linejoin:miter"
           inkscape:connector-curvature="0"
           id="path786"
           class="g6_1"
           d="m 399.7,133.3 c 0,0 -31.3,13.2 -175.2,0.5 -101.6,-9 -152.4,-1.1 -160.2,0.2 m 334,-48 c 0,0 -30.3,12.2 -174.2,-0.5 -101.6,-9 -152.3,-1.1 -160.2,0.3" />
        <path
           style="fill:#ffffff"
           inkscape:connector-curvature="0"
           id="path788"
           class="g2_1"
           d="M 877.8,156.5 H 398.2 V 63.9 h 479.6 z" />
        <path
           style="fill:none;stroke:#231f20;stroke-width:1.90972221;stroke-linecap:butt;stroke-linejoin:miter"
           inkscape:connector-curvature="0"
           id="path790"
           class="g8_1"
           d="M 877.8,156.5 H 398.2 V 63.9 h 479.6 z" />
        <path
           style="fill:#ffffff"
           inkscape:connector-curvature="0"
           id="path792"
           class="g2_1"
           d="m 395,54.2 v 112 c 1.6,-3.9 3.2,-5.5 3.2,-5.5 v -101 c 0,0 -1.6,-1.6 -3.2,-5.5 z" />
        <path
           style="fill:none;stroke:#231f20;stroke-width:1.90972221;stroke-linecap:butt;stroke-linejoin:miter"
           inkscape:connector-curvature="0"
           id="path794"
           class="g8_1"
           d="m 395,54.2 v 112 c 1.6,-3.9 3.2,-5.5 3.2,-5.5 v -101 c 0,0 -1.6,-1.6 -3.2,-5.5 z m 3.2,21.7 c 0,0 1.6,-15.8 12.8,-15.8 h 33.6 c 0,0 11,3.8 31.4,3.8 m -77.8,80.6 c 0,0 1.6,15.8 12.8,15.8 h 33.6 c 0,0 11,-3.8 31.4,-3.8" />
        <path
           style="fill:#ffffff"
           inkscape:connector-curvature="0"
           id="path796"
           class="g2_1"
           d="m 881,54.2 v 112 c -1.6,-3.9 -3.2,-5.5 -3.2,-5.5 v -101 c 0,0 1.6,-1.6 3.2,-5.5 z" />
        <path
           style="fill:none;stroke:#231f20;stroke-width:1.90972221;stroke-linecap:butt;stroke-linejoin:miter"
           inkscape:connector-curvature="0"
           id="path798"
           class="g8_1"
           d="m 881,54.2 v 112 c -1.6,-3.9 -3.2,-5.5 -3.2,-5.5 v -101 c 0,0 1.6,-1.6 3.2,-5.5 z m -3.2,21.7 c 0,0 -1.7,-15.8 -12.9,-15.8 h -33.6 c 0,0 -10.9,3.8 -31.3,3.8 m 77.8,80.6 c 0,0 -1.7,15.8 -12.9,15.8 h -33.6 c 0,0 -10.9,-3.8 -31.3,-3.8" />
        <path
           style="fill:none;stroke:#231f20;stroke-width:1.14583337;stroke-linecap:butt;stroke-linejoin:miter"
           inkscape:connector-curvature="0"
           id="path800"
           class="g6_1"
           d="m 844.3,63.9 c -8,1.4 -17.5,2.9 -26.3,2.9 H 457.9 c -8.7,0 -18.3,-1.5 -26.3,-2.9 m 0,92.6 c 8,-1.4 17.6,-2.9 26.3,-2.9 H 818 c 8.8,0 18.3,1.5 26.3,2.9" />
        <path
           style="fill:#ffffff"
           inkscape:connector-curvature="0"
           id="path802"
           class="g2_1"
           d="m 152.3,56 c 5.2,2.1 6.6,7.1 6.6,7.1 -4.3,-0.1 -5.6,-3.5 -6.6,-7.1 z" />
        <path
           style="fill:#231f20"
           inkscape:connector-curvature="0"
           id="path804"
           class="g4_1"
           d="m 391.2,146.5 c -1,-5.3 -4.8,-14 -12,-18.5 -6,-3.8 -11.2,-3 -11.2,-4.8 -0.1,-2.4 6.6,-1.7 6.6,-1.7 -7.2,-4.1 -17.6,1 -19.1,-1.4 -0.8,-1.4 4.9,-3.4 4.9,-3.4 -8.9,-0.4 -19.3,4.2 -23.5,8.3 10.6,-3.5 25.4,-1.5 32.2,4.3 -2.9,-1.6 -6,-2.7 -9.2,-3.3 -12,-2.4 -25.3,1.2 -33.3,4.5 -9,3 -15.9,7.6 -15.9,7.6 -6,3.4 -17,6.7 -24.4,3.5 0,0 11.6,19.5 26,12.7 1.1,-0.6 2.1,-1.2 3,-1.8 7.9,-4.2 15.8,-11.3 15.8,-11.3 2.7,-1.9 11.2,-7.5 21.4,-10.5 2.2,-0.7 4.5,-0.8 6.7,-0.5 5.7,0.7 10.6,4.4 12.3,8.7 4.4,-0.7 15.5,2.9 19.7,7.6 z" />
        <path
           style="fill:#231f20"
           inkscape:connector-curvature="0"
           id="path806"
           class="g4_1"
           d="m 158.9,63.1 c 0,0 -1.4,-5 -6.6,-7.1 1,3.6 2.2,7 6.6,7.1 M 142.2,76.6 C 141,70.1 132,68.9 127.4,71.9 c 1.6,-4.3 6.1,-8.2 9.6,-9.4 -2,-0.8 -4.3,-1.4 -6.8,-2 2.9,-2.2 10.2,-4 13.9,-3.6 -0.7,-0.2 -1.4,-0.4 -2.2,-0.5 l 0.7,-4.2 c -0.4,-3.6 -3.6,-7.6 -7.4,-10.1 -1.9,-5.4 -0.1,-15.3 2.5,-17.9 -1.3,14.2 18.8,23 22.7,33.4 -2.2,-8.9 -11.5,-14.8 -15.9,-20.2 -1.3,-3.6 0,-9.5 1.7,-11.5 -0.8,9.5 9.3,17.2 14.6,22.7 6.3,6.5 7.9,12.1 6.9,16.6 1.4,0.4 3.3,1.9 2.9,4.2 2.1,-0.4 4.3,-2.7 4.8,-4.2 0.9,7.2 -3.5,14.5 -8.3,16.6 0,0 1.4,-3.3 -0.7,-6 -2,-2.6 -7.9,-2.8 -9.9,-2.7 0,0 2.5,-3.6 1.6,-5.5 -1.1,-2.3 -12.8,-1.7 -18.1,0.1 1.8,-0.2 6,0.4 7.4,1.1 -0.8,1.2 -3.1,6.2 -1.6,7.8 1.3,1.4 3.1,-0.7 3.3,-0.9 -0.2,0.5 -1.9,5.6 -0.7,6.9 1.2,1.3 4,0.5 4,0.5 -1.8,4.3 -8.7,7.1 -13.4,7 1.7,-0.5 4.6,-3.4 5,-5.2 -1.2,0.6 -4.5,0.8 -5.7,0.5 1.5,-0.5 4.7,-4.4 3.9,-8.8 z" />
        <path
           style="fill:#231f20"
           inkscape:connector-curvature="0"
           id="path808"
           class="g4_1"
           d="m 117.2,49.9 c 0.8,-2.8 -4.5,-7.7 -6.6,-8.6 7.6,-0.1 11.3,1.4 11.3,1.4 -1.9,-2.9 -2.4,-7.4 -1.1,-10.8 3.8,9.9 18.4,12 21.8,20.3 l -0.7,4.2 c -5.8,-0.7 -14.3,1 -18.6,5.8 1.5,0 5.3,0.9 6.8,1.4 -6.5,1 -15.5,6.7 -18.2,9.5 0.8,-3.8 2,-6.9 1.2,-9.2 -1.2,-3.2 -5,-4.6 -12.7,-3.3 5.3,-5 16,-7.9 16.8,-10.7 z" />
        <path
           style="fill:#231f20"
           inkscape:connector-curvature="0"
           id="path810"
           class="g4_1"
           d="m 74.4,75.1 1.6,3.4 c -2.1,0.4 -4.5,8.6 -4.5,8.6 -5.3,-3 -0.8,-12.9 -0.8,-12.9 z" />
        <path
           style="fill:#231f20"
           inkscape:connector-curvature="0"
           id="path812"
           class="g4_1"
           d="m 62.8,73.7 c 0,0 2.7,-2 4.2,-2.3 l 2.4,2.1 -1.2,0.4 c 0,0 -2.4,7.6 -1.4,10.8 l 1.5,4.4 c 0,0 -5,-1 -5.7,-2.9 0,0 -1.6,-8.6 0.2,-12.5 z" />
        <path
           style="fill:#231f20"
           inkscape:connector-curvature="0"
           id="path814"
           class="g4_1"
           d="m 59.9,77 c 0,0 0.4,9.8 1.4,10.6 l 3.7,1.6 0.1,3.4 c 0,0 -6.6,-2.1 -7.2,-4.7 -0.5,-2.5 -0.9,-8.7 -0.9,-8.7 0,0 1.1,-1.7 2.9,-2.2 z" />
        <path
           style="fill:none;stroke:#b2b4b6;stroke-width:0.38194445;stroke-linecap:butt;stroke-linejoin:miter;stroke-miterlimit:4"
           inkscape:connector-curvature="0"
           id="path1064"
           class="g3_1"
           d="M 412.5,97.5 H 867.9 M 412.5,137.4 H 867.9" />
        <text
           style="font-size:10.68999958px;font-family:ScalaSansOffc_b;white-space:pre;fill:#231f20"
           id="text1066"
           class="s1_1"
           dx="0 0 -0.1 0"
           y="147"
           x="413">RACE</text>
        <text
           style="font-size:10.68999958px;font-family:ScalaSansOffc_b;white-space:pre;fill:#231f20"
           id="text1068"
           class="s1_1"
           y="107"
           x="413">CLASS &amp; LEVEL</text>
        <text
           style="font-size:10.68999958px;font-family:ScalaSansOffc_b;white-space:pre;fill:#231f20"
           id="text1070"
           class="s1_1"
           dx="0 0 0 -0.5 0 0 0 0 0 0 0"
           y="107"
           x="733">PLAYER NAME</text>
        <text
           style="font-size:10.68999958px;font-family:ScalaSansOffc_b;white-space:pre;fill:#231f20"
           id="text1072"
           class="s1_1"
           dx="0 0 0 0 0 -0.1 0 0 0 0 0 0 0 0"
           y="147"
           x="105">CHARACTER NAME</text>
        <text
           style="font-size:10.68999958px;font-family:ScalaSansOffc_b;white-space:pre;fill:#231f20"
           id="text1074"
           class="s1_1"
           dx="0 0 -0.1 0 -0.2 0 -0.1 0 0 0"
           y="107"
           x="585">BACKGROUND</text>
        <text
           style="font-size:10.68999958px;font-family:ScalaSansOffc_b;white-space:pre;fill:#231f20"
           id="text1076"
           class="s1_1"
           dx="0 0 0 0 0 0 0 0 0 0 0 -0.1 0 0 0 0 0"
           y="147"
           x="733">EXPERIENCE POINTS</text>
        <text
           style="font-size:10.68999958px;font-family:ScalaSansOffc_b;white-space:pre;fill:#231f20"
           id="text1078"
           class="s1_1"
           y="147"
           x="585">ALIGNMENT</text>
        <path
           style="fill:#231f20"
           inkscape:connector-curvature="0"
           id="path1394"
           class="g4_1"
           d="m 387.1,52.1 c 0.6,0 0.6,0.9 0,0.9 h -0.8 v -0.9 z m 0.5,1.5 c 1.4,-0.3 1.1,-2.4 -0.5,-2.4 h -1.8 V 55 h 1 v -1.2 h 0.3 l 0.9,1.2 h 1.1 v -0.2 z m -0.9,2.4 c 1.8,0 2.8,-1.3 2.8,-2.9 0,-1.7 -1,-3 -2.8,-3 -1.7,0 -2.7,1.3 -2.7,3 0,1.6 1,2.9 2.7,2.9 m 3.7,-2.9 c 0,2 -1.3,3.7 -3.6,3.7 -2.4,0 -3.7,-1.7 -3.7,-3.7 0,-2 1.3,-3.7 3.7,-3.7 2.3,0 3.6,1.7 3.6,3.7 z" />
        <g
           id="g1398"
           clip-path="url(#c0_1)">
          <path
             style="fill:#231f20"
             inkscape:connector-curvature="0"
             id="path1396"
             class="g4_1"
             d="m 276.2,50.2 c -0.1,-0.4 0,-0.8 0.1,-1.1 l 0.5,-1.6 0.6,1.5 c 0.2,0.5 0.6,0.8 1.1,1.1 -0.1,-0.8 0.1,-1.6 0.3,-2.2 0,-1.2 0.8,-2 1.8,-2 1.7,0 2.1,2 1.4,3.5 0.3,0.5 0.9,1 1.4,1.5 0.1,0.1 0.3,0.3 0.5,0.4 q 0,0.1 0.1,0.2 c 0.7,-1 1.3,-2.4 1.3,-3.5 0,-2.2 -1.5,-4.2 -4.4,-4.3 -1.9,-0.1 -3.1,0.4 -4.1,1.4 -0.4,0.4 -1.3,1.5 -1.2,3.5 0.1,0.8 0.4,1.3 0.6,1.6 m 7.9,10.1 c -0.7,1.1 -2.1,2.6 -3.6,2.6 -2.6,0 -3.9,-3.7 -1,-6.8 -0.1,0 -0.3,-0.1 -0.4,-0.1 -0.2,0 -0.5,0.1 -0.6,0.2 l -1.3,1.1 0.3,-1.8 c 0.1,0 0.1,-0.1 0.1,-0.2 -0.6,0.4 -1.3,0.8 -1.5,1.1 l -1.2,1.3 0.1,-1.8 0.1,-0.4 c 0.1,-0.3 0.1,-0.7 0.1,-0.8 0,0 0,-0.1 -0.1,-0.1 -0.5,0.4 -2,1.8 -2.2,3.7 0,0 0.3,-0.4 0.5,-0.5 0.2,-0.1 0.4,0 0.2,0.5 -0.1,0.2 -1.5,4.1 1.3,6.9 0,0 -0.3,-0.8 -0.1,-1.1 0.1,-0.1 0.2,-0.1 0.4,0.1 0.1,0.2 0.2,0.3 0.4,0.5 0.2,0.2 0.5,0.5 0.8,0.7 0.8,0.6 2,1.1 3.3,1.1 3.5,0 5.4,-2.4 6.4,-4.5 0,0 -0.1,-0.1 -0.1,-0.1 -0.6,-0.5 -1.3,-1.1 -1.9,-1.6 m 7.9,-7 c -2.6,0.2 -4.8,2.4 -6,4 0.2,0 0.4,0.1 0.6,0.3 0.3,0.2 0.6,0.5 1,0.8 0.3,-0.7 1,-2.1 2.1,-3.3 1,-1.1 2.7,-1.2 3.6,-0.6 0.6,-0.5 2.6,-1 3.6,-0.7 -0.6,-0.7 -2,-1.6 -3.5,-1.6 -1.2,0 -1.9,0.6 -2.1,0.3 -0.2,-0.3 0.8,-0.8 0.8,-0.8 -1.4,0 -2.5,1.7 -2.9,1.5 -0.3,-0.1 0.4,-0.9 0.4,-0.9 -1.4,0.7 -2.5,2.4 -2.7,3.4 1.2,-1.5 3.6,-2.6 5.1,-2.4 m 54.1,7.2 c -0.1,-0.1 -0.2,-0.2 -0.2,-0.7 v -3.3 c 0,-0.5 0.1,-0.6 0.1,-0.8 0.2,-0.1 0.3,-0.4 0.3,-0.4 l 0.1,-0.1 h -0.1 c 0,0 -0.2,-0.1 -0.5,-0.2 -0.1,0 -5.2,0 -5.2,0 l 0.3,0.2 c 0,0 0.7,0.5 1.1,0.7 0.3,0.2 0.5,0.4 0.5,1.2 v 1.7 c -0.4,0.2 -0.8,0.2 -1.3,0.2 -2,0 -3.1,-1.1 -3.1,-3.3 0,-2.1 1.2,-3.4 3.2,-3.4 1.2,0 2.6,0.3 4.2,1.5 l -0.4,-3.6 V 50 l -0.3,-0.1 h -0.2 c -1.1,-0.3 -1.5,-0.4 -2.2,-0.4 -0.3,-0.1 -0.6,-0.1 -1,-0.1 0,0 -0.2,0 -0.2,0 -3.8,0 -6.6,2.7 -6.6,6.3 0,3.7 2.8,6.3 6.6,6.3 0.7,0 2,-0.1 2.8,-0.3 0.1,0 0.2,-0.1 0.3,-0.1 q 0.1,0 0.1,0 c 0.5,-0.1 0.9,-0.2 1.4,-0.4 l 0.6,-0.2 -0.1,-0.1 c 0,0 -0.1,-0.2 -0.2,-0.4 m 28,-10.9 h -6.9 l 0.2,0.1 c 0,0 0.7,0.4 1.1,0.7 0.4,0.3 0.5,0.4 0.5,1.2 v 3 l -5.1,-5 h -4 l 0.2,0.1 c 0,0 0.6,0.4 1,0.7 0.3,0.3 0.5,0.5 0.5,1.3 v 8 c 0,0.8 -0.1,1 -0.5,1.2 -0.4,0.2 -1.1,0.7 -1.2,0.7 l -0.2,0.1 h 6.9 l -0.3,-0.1 c 0,0 -0.8,-0.5 -1.1,-0.7 -0.4,-0.2 -0.5,-0.4 -0.5,-1.2 v -4.8 l 7.4,7.2 V 51.6 c 0,-0.8 0.1,-0.9 0.5,-1.2 0.4,-0.3 1.1,-0.7 1.2,-0.7 z m -44.4,7.1 -1.1,-3 -1.2,3 z M 318.3,53 c 0,-0.6 -0.4,-1 -1.5,-1 h -0.4 v 2.8 c 0.1,0 0.3,0 0.4,0 0.7,0 1.5,-0.1 1.5,-1.8 m 17,7.9 1,0.8 H 330 c 0,0 0.5,-0.5 0.7,-0.7 0.2,-0.2 0.4,-0.5 0.2,-0.8 0,-0.1 -0.1,-0.3 -0.2,-0.6 h -4.4 c -0.1,0.3 -0.2,0.5 -0.2,0.6 -0.2,0.4 -0.2,0.5 0.1,0.8 0.3,0.2 0.9,0.7 0.9,0.7 h -6.7 l -3,-3.7 c -0.4,-0.4 -0.6,-0.7 -0.8,-0.8 q -0.1,0 -0.2,-0.1 v 2.6 c 0,0.8 0.1,0.9 0.5,1.2 0.3,0.3 1.4,0.8 1.4,0.8 h -7.1 c 0,0 1.1,-0.6 1.4,-0.8 0.3,-0.2 0.5,-0.4 0.5,-1.2 v -8.1 c 0,-0.7 -0.1,-1 -0.5,-1.2 -0.3,-0.2 -1.1,-0.7 -1.1,-0.7 l -0.2,-0.1 c 0,0 5.5,0 5.8,0 1.1,0 1.5,0 2.2,0.2 1.5,0.5 2.4,1.7 2.4,3.3 0,0.7 -0.2,1.4 -0.6,1.9 -0.3,0.4 -0.7,0.8 -1.1,1 1.2,1.8 2.2,3 2.9,3.7 0,-0.1 3.7,-8.9 3.7,-8.9 0,0 0,-0.1 0,-0.1 0,-0.1 0,-0.2 -0.2,-0.3 l -0.9,-0.8 h 4.8 c 0,0 4,10.1 4.1,10.2 0.1,0.2 0.1,0.3 0.2,0.4 0.2,0.3 0.2,0.4 0.7,0.7 m 21.5,-5.3 c 0,-1.9 -1.3,-3.2 -3.2,-3.2 -1.9,0 -3.1,1.3 -3.1,3.3 0,2 1.3,3.3 3.2,3.3 1.8,0 3.1,-1.4 3.1,-3.4 m 3.5,0 c 0,3.6 -2.9,6.4 -6.7,6.4 -3.8,0 -6.6,-2.7 -6.6,-6.3 0,-3.6 2.8,-6.3 6.6,-6.3 3.8,0 6.7,2.7 6.7,6.2 m 18.8,-1.7 c -0.2,0 -0.3,0 -0.5,-0.1 -1.2,-0.3 -2,-0.5 -2,-1 0,-0.1 0.1,-0.3 0.2,-0.4 0.2,-0.2 0.6,-0.3 1.2,-0.3 0.1,0 0.2,0 0.3,0 0,0 0.1,0 0.1,0 1,0.1 2.3,0.6 3.6,1.4 l -0.2,-3.6 h -0.3 v -0.1 c 0,0 -0.2,0 -0.6,-0.1 -0.2,-0.1 -1.5,-0.3 -2.2,-0.4 -0.2,0 -0.5,0 -0.7,0 -2.7,0 -4.3,1.3 -4.5,3.6 -0.1,1.2 0.5,2.3 1.5,2.9 0.9,0.6 2.2,1 3.1,1.2 l 0.2,0.1 c 0.6,0.2 1.3,0.6 1.2,1.3 -0.1,0.3 -0.2,0.7 -1.3,0.7 -0.2,0 -0.3,0 -0.5,0 -0.8,-0.1 -1.7,-0.5 -2.7,-1.3 0,0 -0.1,-0.1 -0.1,-0.1 l -0.6,-0.4 -0.6,-0.5 0.2,4.5 0.2,0.1 h 0.1 c 0,0 0.1,0.1 0.5,0.2 0.5,0.1 1.8,0.3 2.5,0.4 0.2,0 0.4,0 0.7,0 2.9,0 4.9,-1.5 4.9,-3.8 0.1,-2.2 -1.2,-3.6 -3.7,-4.3 m -70.7,1.8 c 0,-2 -1,-3.2 -2.8,-3.2 h -1.4 v 6.3 h 1.4 c 1.8,0 2.8,-1.2 2.8,-3.1 m 3.5,-0.1 c 0,1.4 -0.4,2.8 -1.2,3.8 -0.4,0.5 -0.8,0.9 -1.3,1.2 -1.2,0.8 -2.4,1.1 -4.1,1.1 h -6.4 l 0.3,-0.1 c 0,0 0.8,-0.5 1.1,-0.7 0.4,-0.2 0.5,-0.4 0.5,-1.2 v -7 c 0,-0.8 -0.2,-1 -0.5,-1.2 -1.6,-1.1 -1.7,-2.5 -1.7,-2.5 v -0.2 l 0.1,0.1 c 0,0 0.6,0.3 1.1,0.5 0.7,0.1 1.6,0.2 3.6,0.2 h 2.4 c 1.2,0 2.1,0.2 3,0.7 2,1 3.1,3 3.1,5.3 M 221.3,61 c 0,0 -0.2,-0.2 -0.3,-0.4 -0.1,-0.1 -0.2,-0.2 -0.2,-0.7 v -3.3 c 0,-0.5 0.1,-0.6 0.2,-0.8 0.1,-0.1 0.3,-0.4 0.3,-0.4 l -0.1,-0.1 c 0,0 -0.2,-0.1 -0.5,-0.1 0,0 -5.1,0 -5.1,0 l 0.2,0.1 c 0,0 0.8,0.5 1.1,0.7 0.4,0.2 0.5,0.4 0.5,1.2 V 59 c -0.4,0.1 -0.8,0.1 -1.2,0.1 -2.1,0 -3.2,-1.1 -3.2,-3.3 0,-2.1 1.2,-3.4 3.2,-3.4 1.3,0 2.6,0.3 4.2,1.6 V 53.9 L 220,50.3 V 50.1 L 219.8,50 h -0.3 c -1.1,-0.3 -1.5,-0.3 -2.1,-0.4 -0.4,-0.1 -0.6,-0.1 -1.1,-0.1 0,0 -0.1,0 -0.2,0 -3.8,0 -6.6,2.7 -6.6,6.3 0,3.7 2.8,6.3 6.6,6.3 0.7,0 2,-0.1 2.8,-0.3 0.2,0 0.2,-0.1 0.4,-0.1 0.5,-0.1 1,-0.2 1.4,-0.4 l 0.6,-0.2 z m 38.4,-11.4 h -6.9 l 0.3,0.1 c 0,0 0.7,0.4 1.1,0.7 0.3,0.3 0.5,0.4 0.5,1.2 v 3 l -5.1,-5 h -4.1 l 0.3,0.1 c 0,0 0.6,0.4 1,0.7 0.3,0.3 0.5,0.5 0.5,1.3 v 8 c 0,0.8 -0.2,1 -0.5,1.2 -0.4,0.2 -1.2,0.7 -1.2,0.7 l -0.2,0.1 h 6.9 L 252,61.6 c 0,0 -0.8,-0.5 -1.1,-0.7 -0.4,-0.2 -0.5,-0.4 -0.5,-1.2 v -4.8 l 7.4,7.2 V 51.6 c 0,-0.8 0.1,-0.9 0.5,-1.2 0.4,-0.3 1.1,-0.7 1.1,-0.7 z m -49.3,0 h -6.9 l 0.2,0.1 c 0,0 0.7,0.4 1.1,0.7 0.4,0.3 0.5,0.4 0.5,1.2 v 3 l -5.1,-5 h -8 c -0.2,0 -0.5,0.1 -0.5,0.1 l -0.1,0.1 h 0.1 c 0,0 0.2,0.3 0.3,0.5 0,0.1 0.1,0.2 0.1,0.5 0,0 0,6.2 0,6.2 v 0.1 c 0,1.3 -0.6,1.9 -1.8,1.9 -1.3,0 -1.9,-0.7 -1.9,-2 v -6.2 c 0,-0.3 0,-0.4 0.1,-0.5 0.1,-0.2 0.3,-0.5 0.3,-0.5 v -0.1 c 0,0 -0.3,-0.1 -0.5,-0.1 h -5.2 l 0.3,0.1 c 0,0 0.7,0.4 1.1,0.7 0.3,0.2 0.5,0.4 0.5,1.2 v 5 c 0,1.1 0.1,2 0.4,2.6 0.1,0.4 0.4,0.8 0.8,1.2 1.1,1 2.4,1.5 4.1,1.5 2.3,0 4.1,-1 4.8,-2.8 0.3,-0.6 0.4,-1.2 0.4,-2.4 v -5.1 c 0,-0.8 0.1,-1 0.5,-1.2 0.2,-0.1 0.5,-0.3 0.7,-0.5 0.2,0.2 0.5,0.4 0.7,0.5 0.3,0.3 0.5,0.5 0.5,1.3 v 8 c 0,0.8 -0.1,1 -0.5,1.2 -0.4,0.2 -1.1,0.7 -1.1,0.7 l -0.3,0.1 h 6.9 l -0.3,-0.1 c 0,0 -0.7,-0.5 -1.1,-0.7 -0.4,-0.2 -0.5,-0.4 -0.5,-1.2 v -4.8 l 7.4,7.2 V 51.6 c 0,-0.8 0.1,-0.9 0.5,-1.2 0.4,-0.3 1.2,-0.7 1.2,-0.7 z m 18.9,9.2 h -2.7 V 57 c 0,0 2.5,0 2.6,0 0.3,0 0.7,0 0.9,0.1 0.2,0.1 0.4,0.4 0.4,0.4 l 0.1,0.1 v -3.9 l -0.1,0.1 c 0,0 -0.2,0.1 -0.3,0.2 -0.1,0 -0.2,0 -0.8,0 h -2.8 v -1.5 h 2.8 c 0.8,0 0.9,0.1 1.4,0.4 l 0.7,0.5 -0.4,-3.8 h -9.8 l 0.3,0.1 c 0,0 0.7,0.4 1.1,0.7 0.3,0.3 0.5,0.4 0.5,1.2 v 8.1 c 0,0.8 -0.1,1 -0.5,1.2 -0.4,0.2 -1.2,0.7 -1.2,0.7 l -0.2,0.1 h 10.1 l 0.9,-4 c 0,0 -0.8,0.6 -1.1,0.7 -0.4,0.3 -0.8,0.4 -1.9,0.4 m 35.5,-4.9 c -0.2,0 -0.4,0 -0.5,-0.1 h -0.1 c -1.1,-0.3 -1.9,-0.5 -1.9,-1 0,-0.1 0.1,-0.3 0.2,-0.4 0.2,-0.2 0.6,-0.3 1.2,-0.3 0.1,0 0.2,0 0.3,0 h 0.1 c 1,0.1 2.3,0.6 3.5,1.4 l -0.2,-3.6 h -0.2 v -0.1 c -0.1,0 -0.2,0 -0.6,-0.1 -0.2,-0.1 -1.5,-0.3 -2.2,-0.4 -0.3,0 -0.5,0 -0.7,0 -2.7,0 -4.3,1.3 -4.5,3.6 -0.1,1.2 0.5,2.3 1.5,2.9 0.8,0.6 2.1,1 3.1,1.2 l 0.2,0.1 c 0.6,0.2 1.3,0.6 1.2,1.3 -0.1,0.3 -0.2,0.7 -1.3,0.7 -0.2,0 -0.4,0 -0.6,0 -0.7,-0.1 -1.6,-0.5 -2.6,-1.3 -0.1,0 -0.1,-0.1 -0.1,-0.1 l -0.6,-0.4 -0.7,-0.5 0.3,4.5 0.2,0.1 h 0.1 c 0,0 0.1,0.1 0.5,0.2 0.4,0.1 1.8,0.3 2.5,0.4 0.2,0 0.4,0 0.6,0 3,0 5,-1.5 5,-3.8 0.1,-2.2 -1.2,-3.6 -3.7,-4.3 m -84.5,1.8 c 0,-2 -1.1,-3.2 -2.9,-3.2 h -1.3 v 6.3 h 1.3 c 1.8,0 2.9,-1.2 2.9,-3.1 m 3.5,-0.1 c 0,1.4 -0.5,2.8 -1.3,3.8 -0.3,0.5 -0.8,0.9 -1.3,1.2 -1.2,0.8 -2.3,1.1 -4.1,1.1 h -6.3 l 0.2,-0.1 c 0,0 0.8,-0.5 1.2,-0.7 0.3,-0.2 0.5,-0.4 0.5,-1.2 v -7 c 0,-0.8 -0.2,-1 -0.5,-1.2 -1.6,-1.1 -1.7,-2.5 -1.7,-2.5 l -0.1,-0.2 0.2,0.1 c 0,0 0.5,0.3 1.1,0.5 0.7,0.1 1.6,0.2 3.5,0.2 h 2.5 c 1.2,0 2.1,0.2 3,0.7 1.9,1 3.1,3 3.1,5.3 m 58.7,0 c 0,-2 -1.3,-3.2 -3.3,-3.2 -1.8,0 -3,1.2 -3,3.3 0,2 1.2,3.3 3.1,3.3 1.9,0 3.2,-1.4 3.2,-3.4 m 3.5,0 c 0,3.6 -2.9,6.3 -6.7,6.3 -3.8,0 -6.6,-2.6 -6.6,-6.2 0,-3.6 2.8,-6.3 6.6,-6.3 3.8,0 6.7,2.7 6.7,6.2 m 37.6,-1.2 -0.1,-0.4 c 0,0 -0.3,-0.9 -1.3,-1.3 l -0.5,-0.2 0.1,0.6 c 0.2,0.4 0.4,1.3 1.4,1.3 z m -7.2,-2.2 c 0.1,-0.5 -0.8,-1.2 -1.1,-1.4 1.2,0 1.8,0.2 1.8,0.2 -0.3,-0.5 -0.4,-1.2 -0.2,-1.8 0.6,1.6 3,1.9 3.6,3.2 -0.1,-0.5 -0.6,-1.2 -1.3,-1.6 -0.3,-0.8 0,-2.4 0.4,-2.9 -0.2,2.3 3.1,3.6 3.8,5.3 -0.4,-1.4 -1.9,-2.3 -2.7,-3.2 -0.2,-0.6 0,-1.5 0.2,-1.9 0,1.6 1.6,2.8 2.5,3.7 1.1,1 1.4,1.9 1.2,2.6 0.3,0.1 0.6,0.3 0.5,0.7 0.4,-0.1 0.7,-0.5 0.8,-0.7 0.2,1.1 -0.5,2.3 -1.3,2.7 0,0 0.2,-0.5 -0.1,-1 -0.4,-0.4 -1.3,-0.4 -1.6,-0.4 0,0 0.4,-0.5 0.2,-0.8 -0.2,-0.4 -2.1,-0.3 -2.9,0.1 0.2,-0.1 0.9,0 1.2,0.1 -0.2,0.2 -0.5,1 -0.3,1.3 0.3,0.2 0.6,-0.2 0.6,-0.2 0,0 -0.3,0.9 -0.1,1.1 0.2,0.2 0.6,0.1 0.6,0.1 -0.2,0.7 -1.3,1.2 -2.1,1.2 0.3,-0.1 0.7,-0.6 0.8,-0.9 -0.2,0.1 -0.7,0.2 -0.9,0.1 0.2,-0.1 0.7,-0.7 0.6,-1.4 -0.3,-1.1 -1.7,-1.2 -2.5,-0.7 0.3,-0.7 1,-1.4 1.5,-1.6 -0.3,-0.1 -0.7,-0.2 -1.1,-0.3 0.5,-0.3 1.7,-0.6 2.3,-0.6 -0.9,-0.3 -2.6,0 -3.4,0.9 0.3,0 0.9,0.2 1.1,0.2 -1,0.2 -2.4,1.2 -2.9,1.7 0.1,-0.6 0.3,-1.1 0.2,-1.5 -0.2,-0.5 -0.9,-0.7 -2.1,-0.5 0.8,-0.8 2.6,-1.4 2.7,-1.8 m 19.7,10.1 c 0,1.7 -1.7,3.1 -3.7,2.8 0.5,0.5 1.7,0.8 2.4,0.5 -0.4,0.7 -2.2,1.6 -3.8,1.2 -1.6,-0.4 -2.3,-1.9 -2.3,-2.9 -0.8,0.7 -0.6,2 0,2.4 -0.7,-0.1 -1.6,-0.8 -1.7,-1.9 -0.2,-1 0.4,-2.1 -0.6,-3 -0.6,-0.5 -1.6,-1.3 -2.2,-1.8 -1.2,-1 -0.8,-1.7 -1,-2.2 -0.3,-0.4 -0.8,-0.6 -1.1,-1 -0.3,-0.4 -0.3,-0.9 -0.1,-1.2 -0.1,0.4 0.2,0.7 0.7,0.9 0.4,0.1 0.8,0 1.2,0.2 0.5,0.3 0.3,1.1 0.6,1.3 0.3,0.3 1.1,-0.1 1.7,0.5 0.7,0.5 2.2,1.7 2.8,2.3 1.2,0.9 2.4,-0.2 2,-1.2 1.1,0.6 1.3,2.6 0.3,3.3 0.9,0.2 2.6,-0.2 2.6,-1.6 0,-0.8 -0.8,-1.4 -1.3,-1.4 1.9,-0.2 3.5,1.1 3.5,2.8 z" />
        </g>
      </g>
    </g>
  </g>
</svg>
