<?xml version="1.0" encoding="UTF-8" standalone="no"?>
<!-- Created with Inkscape (http://www.inkscape.org/) -->

<svg
   xmlns:dc="http://purl.org/dc/elements/1.1/"
   xmlns:cc="http://creativecommons.org/ns#"
   xmlns:rdf="http://www.w3.org/1999/02/22-rdf-syntax-ns#"
   xmlns:svg="http://www.w3.org/2000/svg"
   xmlns="http://www.w3.org/2000/svg"
   xmlns:sodipodi="http://sodipodi.sourceforge.net/DTD/sodipodi-0.dtd"
   xmlns:inkscape="http://www.inkscape.org/namespaces/inkscape"
   width="21.522367mm"
   height="25.056042mm"
   viewBox="0 0 21.522367 25.056042"
   version="1.1"
   id="svg1903"
   inkscape:version="0.92.4 (5da689c313, 2019-01-14)"
   sodipodi:docname="Dexterity.svg">
  <defs
     id="defs1897" />
  <sodipodi:namedview
     id="base"
     pagecolor="#ffffff"
     bordercolor="#666666"
     borderopacity="1.0"
     inkscape:pageopacity="0.0"
     inkscape:pageshadow="2"
     inkscape:zoom="2.8"
     inkscape:cx="43.733438"
     inkscape:cy="26.402875"
     inkscape:document-units="mm"
     inkscape:current-layer="layer1"
     showgrid="false"
     inkscape:window-width="1366"
     inkscape:window-height="705"
     inkscape:window-x="-8"
     inkscape:window-y="-8"
     inkscape:window-maximized="1" />
  <metadata
     id="metadata1900">
    <rdf:RDF>
      <cc:Work
         rdf:about="">
        <dc:format>image/svg+xml</dc:format>
        <dc:type
           rdf:resource="http://purl.org/dc/dcmitype/StillImage" />
        <dc:title></dc:title>
      </cc:Work>
    </rdf:RDF>
  </metadata>
  <g
     inkscape:label="Layer 1"
     inkscape:groupmode="layer"
     id="layer1"
     transform="translate(-89.024531,-81.120789)">
    <g
       transform="matrix(0.26458333,0,0,0.26458333,76.667102,-5.0275434)"
       style="display:block"
       id="g1881">
      <path
         d="m 48.182183,358.5931 c 0,0 3.4,17.2 2.2,32.8 0,0 -4.7,4.8 0.4,12.6 l -0.4,8.3 h 74.499997 l -0.4,-8.3 c 5.2,-7.8 0.4,-12.6 0.4,-12.6 -1.1,-15.6 2.3,-32.8 2.3,-32.8 l -2.2,-1.6 c 0.5,-0.9 1.7,-6.2 1.7,-6.2 l -1.5,-17.6 c -4.3,1.8 -7.2,-4.8 -7.2,-4.8 H 57.282183 c 0,0 -2.8,6.6 -7.2,4.8 l -1.4,17.6 c 0,0 1.2,5.3 1.6,6.2 z"
         class="g2_1"
         id="path870"
         inkscape:connector-curvature="0"
         style="fill:#ffffff" />
      <path
         d="m 87.4,392.1 c 10.3,0 18.6,5.7 18.6,12.6 0,6.9 -8.3,12.6 -18.6,12.6 -10.3,0 -18.7,-5.7 -18.7,-12.6 0,-6.9 8.4,-12.6 18.7,-12.6 z"
         class="g2_1"
         id="path872"
         inkscape:connector-curvature="0"
         style="fill:#ffffff" />
      <path
         d="m 87.4,415.4 c -9.1,0 -16.8,-4.9 -16.8,-10.7 0,-5.8 7.7,-10.7 16.8,-10.7 9,0 16.7,4.9 16.7,10.7 0,5.8 -7.7,10.7 -16.7,10.7 m 0,3.8 c 11.3,0 20.5,-6.5 20.5,-14.5 0,-8 -9.2,-14.5 -20.5,-14.5 -11.4,0 -20.6,6.5 -20.6,14.5 0,8 9.2,14.5 20.6,14.5 z"
         class="g0_1"
         id="path874"
         inkscape:connector-curvature="0"
         style="fill:#dcddde" />
      <path
         d="m 103.4,415.1 c 1.3,-1 2.4,-2.1 3.2,-3.3 h 3.5 l 2.5,-2 h -2.4 c 0.6,-1.6 0.8,-3 0.9,-4.2 0.8,1.1 2.6,2.8 5.3,1.8 -0.7,0.2 -3.1,0.5 -5.3,-4.1 -0.5,-3.6 -2.6,-5.3 -2.6,-5.3 2.2,4.3 1.7,8 1,10.3 0,0 -0.4,0.6 -1.3,0.7 0.5,-1.4 0.8,-2.8 0.8,-4.3 0,-8.6 -9.7,-15.6 -21.6,-15.6 -12,0 -21.7,7 -21.7,15.6 0,1.5 0.3,2.9 0.9,4.3 -0.9,-0.1 -1.4,-0.7 -1.4,-0.7 -0.7,-2.3 -1.2,-6 1,-10.3 0,0 -2.1,1.7 -2.5,5.3 -2.2,4.6 -4.7,4.3 -5.3,4.1 2.6,1 4.4,-0.7 5.2,-1.8 0.1,1.2 0.4,2.6 0.9,4.2 h -2.3 l 2.5,2 h 3.4 c 0.9,1.2 2,2.3 3.2,3.3 -0.1,0.1 -6.3,3.7 -11.1,0.6 0,0 1.4,2.9 6,2.7 0,0 0.1,0 0.2,0 h 0.1 c 5.3,-0.5 7.7,1.7 7.7,1.7 -0.7,-1.8 -2.3,-2.5 -3.5,-2.7 0.6,-0.2 1.1,-0.4 1.7,-0.6 1.2,0.3 2.9,0.9 3.9,2.4 l 7.9,0.9 h -0.1 c 1.1,0.1 2.2,0.2 3.3,0.2 1.1,0 2.2,-0.1 3.2,-0.2 l 7.9,-0.9 c 1,-1.5 2.6,-2.1 3.8,-2.4 0.6,0.2 1.2,0.4 1.7,0.6 -1.2,0.2 -2.7,0.9 -3.5,2.7 0,0 2.4,-2.2 7.7,-1.7 q 0.1,0 0.2,0 c 0,0 0.1,0 0.1,0 4.6,0.2 6,-2.7 6,-2.7 -4.7,3 -10.8,-0.4 -11.1,-0.6 m -32.6,-3.3 v 0 c -0.3,-0.3 -0.5,-0.7 -0.8,-1 0,0 0,-0.1 0,-0.1 -0.3,-0.3 -0.5,-0.6 -0.7,-0.9 -0.9,-1.6 -1.4,-3.3 -1.4,-5.1 0,-7.4 8.7,-13.4 19.5,-13.4 10.7,0 19.5,6 19.5,13.4 0,1.8 -0.6,3.5 -1.5,5.1 -0.2,0.3 -0.4,0.6 -0.6,0.9 0,0 -0.1,0.1 -0.1,0.1 -0.2,0.3 -0.5,0.7 -0.8,1 -3.4,3.8 -9.5,6.3 -16.5,6.3 -7,0 -13.1,-2.5 -16.6,-6.3 m 50.8,-63.3 c -0.5,2.4 0.3,4.4 1.4,6 -1.7,9.3 -0.1,42.5 0.2,46.3 0.7,-1 1.4,-2.5 1.8,-3.5 -0.1,-2 -0.1,-4.2 -0.2,-6.4 0.9,1.5 1.3,3 1.2,4.7 -0.2,1.9 -1,3.8 -2.1,5.4 -0.1,0.1 -0.1,0.2 -0.2,0.3 -0.1,0.2 -0.3,0.4 -0.4,0.6 q -0.1,0.1 -0.1,0.1 c -2.4,3.2 -5.5,5.5 -5.7,5.7 -1.2,0.6 -2.4,1.3 -3.5,2.1 h -0.1 l -0.2,0.2 c -0.8,0.5 -1.6,1.1 -2.3,1.6 l -0.2,0.2 c 0,0 -2,1.7 -1.3,2.9 0.6,1.2 4.6,0.9 6.5,-1.6 0,0 -1.9,1.7 -4,0.8 -1,-0.5 -0.2,-1.3 0.8,-2.1 H 126 l -0.1,-1.1 c 0,-0.1 -0.2,-1.5 -0.4,-3.8 0.3,0 0.6,0 0.9,0 0.1,0 0.3,0 0.4,0 0.1,0.1 0.3,0.3 0.1,0.6 -0.3,0.6 -0.7,0.8 -0.7,0.8 0,0 1,-0.1 1.7,-1.1 0.6,-1.1 -0.7,-1.9 -2.2,-1.8 -0.1,0 -0.2,0 -0.3,0 0,-1.1 -0.1,-2.4 -0.2,-3.8 1.1,-1.7 2,-3.7 2.2,-5.9 0.3,-2.6 -0.6,-5 -2.6,-7.2 0,-0.4 0,-0.8 0,-1.2 0,0 1.4,-25.9 2.7,-30 l 0.2,-0.5 -0.5,-0.3 c 0,0 -1.1,-0.7 -2.2,-1.9 0,0 -1.2,-1 -1.6,-2.2 -0.5,-1 -0.7,-2.2 -0.4,-3.4 0,-0.1 0.6,-1.4 1.1,-3 l 0.3,2.9 c -0.3,0.8 -0.5,1.6 -0.7,2.5 0.3,0.6 0.8,1.6 1.5,2 0.3,-1.4 0.7,-2.8 1.1,-4.1 l 0.1,-0.2 -1.3,-13.8 c 0,2.1 -1.4,6.5 -1.4,6.5 -0.4,2.9 -2,6.6 -2.1,6.7 m 1.8,55.6 c 0,0.5 0,1 0.1,1.5 -0.6,0.1 -1.2,0.2 -1.8,0.4 0.5,-0.6 1.1,-1.2 1.7,-1.9 m -6.8,5.7 c 2.4,-1.4 4.8,-2.5 7,-2.8 0.1,1.2 0.1,2.1 0.2,2.8 z m 8.1,-53.4 c 0.5,0.4 0.9,0.8 1.3,1 -0.9,3.3 -1.7,11.8 -2.2,17.5 0,-4.5 0.1,-13.2 0.9,-18.5 M 51.2,339.3 c -0.9,-2.4 -1.4,-7.4 -1.4,-7.4 v -0.4 l 0.7,-0.2 c 1.4,-0.5 5.6,-2.3 5.6,-4.7 v -1 h 62.5 v 1 c 0,2.4 4.2,4.2 5.7,4.7 l 0.6,0.2 0.1,0.4 c 0,0 -0.5,5 -1.5,7.4 l -0.4,-6.3 c -1.7,-0.6 -5.6,-2.4 -6.4,-5.4 H 58 c -0.7,3 -4.7,4.8 -6.3,5.4 z m -4.3,67.9 c 0.6,1 1.7,1.1 1.7,1.1 0,0 -0.4,-0.2 -0.8,-0.8 -0.1,-0.3 0,-0.5 0.2,-0.6 0.1,0 0.2,0 0.3,0 h 0.1 c 0.2,0 0.5,0 0.8,0 -0.2,2.3 -0.3,3.7 -0.3,3.8 l -0.2,1.1 h 12.8 c 1.1,0.8 1.8,1.6 0.8,2.1 -2.1,0.9 -4,-0.8 -4,-0.8 1.9,2.5 5.9,2.8 6.5,1.6 0.7,-1.2 -1.3,-2.9 -1.3,-2.9 l -0.1,-0.2 c -0.8,-0.5 -1.5,-1.1 -2.3,-1.6 l -0.3,-0.2 c -1.1,-0.8 -2.3,-1.5 -3.5,-2.1 -0.2,-0.2 -3.4,-2.5 -5.8,-5.7 v -0.1 c -0.2,-0.2 -0.3,-0.4 -0.5,-0.6 0,-0.1 -0.1,-0.2 -0.1,-0.3 -1.1,-1.6 -2,-3.5 -2.1,-5.4 -0.2,-1.7 0.2,-3.2 1.1,-4.7 0,2.2 -0.1,4.4 -0.2,6.4 0.4,1 1.1,2.5 1.9,3.5 0.2,-3.8 1.8,-37 0.2,-46.3 1.1,-1.6 1.9,-3.6 1.3,-6 0,-0.1 -1.6,-3.8 -2.1,-6.7 0,0 -1.4,-4.4 -1.4,-6.5 l -1.2,13.8 v 0.2 c 0.5,1.3 0.8,2.7 1.1,4.1 0.7,-0.4 1.3,-1.4 1.6,-2 -0.2,-0.9 -0.5,-1.7 -0.7,-2.5 l 0.2,-2.9 c 0.6,1.6 1.1,2.9 1.2,3 0.2,1.2 0,2.4 -0.5,3.4 -0.4,1.2 -1.5,2.2 -1.5,2.2 -1.1,1.2 -2.2,1.9 -2.2,1.9 l -0.5,0.3 0.2,0.5 c 1.2,4.1 2.6,30 2.6,30 0,0.4 0,0.8 0,1.2 -1.9,2.2 -2.8,4.6 -2.6,7.2 0.2,2.2 1.1,4.2 2.2,5.9 0,1.4 -0.1,2.7 -0.2,3.8 -0.1,0 -0.2,0 -0.3,0 -1.5,-0.1 -2.8,0.7 -2.1,1.8 m 4.5,-3.1 c 0.6,0.7 1.1,1.3 1.7,1.9 -0.6,-0.2 -1.2,-0.3 -1.8,-0.4 0,-0.5 0.1,-1 0.1,-1.5 m -0.2,2.9 c 2.1,0.3 4.6,1.4 6.9,2.8 h -7.2 c 0.1,-0.7 0.2,-1.6 0.3,-2.8 m -2.4,-49.6 c 0.3,-0.2 0.8,-0.6 1.3,-1 0.7,5.3 0.9,14 0.8,18.5 -0.5,-5.7 -1.2,-14.2 -2.1,-17.5 z"
         class="g4_1"
         id="path876"
         inkscape:connector-curvature="0"
         style="fill:#231f20" />
      <text
         x="59"
         y="341"
         class="s6_1"
         id="text1376"
         style="font-size:9.93000031px;font-family:ScalaSansOffc-Bold_c;white-space:pre;fill:#231f20">DEXTERITY</text>
    </g>
  </g>
</svg>
