<?xml version="1.0" encoding="UTF-8" standalone="no"?>
<!-- Created with Inkscape (http://www.inkscape.org/) -->

<svg
   xmlns:dc="http://purl.org/dc/elements/1.1/"
   xmlns:cc="http://creativecommons.org/ns#"
   xmlns:rdf="http://www.w3.org/1999/02/22-rdf-syntax-ns#"
   xmlns:svg="http://www.w3.org/2000/svg"
   xmlns="http://www.w3.org/2000/svg"
   xmlns:sodipodi="http://sodipodi.sourceforge.net/DTD/sodipodi-0.dtd"
   xmlns:inkscape="http://www.inkscape.org/namespaces/inkscape"
   width="21.522367mm"
   height="25.029583mm"
   viewBox="0 0 21.522367 25.029583"
   version="1.1"
   id="svg3401"
   inkscape:version="0.92.4 (5da689c313, 2019-01-14)"
   sodipodi:docname="Intelligence.svg">
  <defs
     id="defs3395" />
  <sodipodi:namedview
     id="base"
     pagecolor="#ffffff"
     bordercolor="#666666"
     borderopacity="1.0"
     inkscape:pageopacity="0.0"
     inkscape:pageshadow="2"
     inkscape:zoom="2.8"
     inkscape:cx="-68.134307"
     inkscape:cy="60.595297"
     inkscape:document-units="mm"
     inkscape:current-layer="layer1"
     showgrid="false"
     inkscape:window-width="1366"
     inkscape:window-height="705"
     inkscape:window-x="-8"
     inkscape:window-y="-8"
     inkscape:window-maximized="1" />
  <metadata
     id="metadata3398">
    <rdf:RDF>
      <cc:Work
         rdf:about="">
        <dc:format>image/svg+xml</dc:format>
        <dc:type
           rdf:resource="http://purl.org/dc/dcmitype/StillImage" />
        <dc:title></dc:title>
      </cc:Work>
    </rdf:RDF>
  </metadata>
  <g
     inkscape:label="Layer 1"
     inkscape:groupmode="layer"
     id="layer1"
     transform="translate(-52.738816,-117.41973)">
    <g
       transform="matrix(0.26458333,0,0,0.26458333,40.381387,-26.619433)"
       style="display:block"
       id="g3379">
      <path
         d="m 47.9,575.6 c 0,0 3.4,17.2 2.2,32.9 0,0 -4.7,4.8 0.4,12.5 l -0.4,8.4 h 74.5 l -0.4,-8.4 c 5.2,-7.7 0.4,-12.5 0.4,-12.5 -1.1,-15.7 2.3,-32.9 2.3,-32.9 l -2.2,-1.6 c 0.5,-0.8 1.7,-6.1 1.7,-6.1 l -1.5,-17.7 c -4.3,1.8 -7.2,-4.8 -7.2,-4.8 H 57 c 0,0 -2.8,6.6 -7.2,4.8 l -1.4,17.7 c 0,0 1.2,5.3 1.6,6.1 z"
         class="g2_1"
         id="path886"
         inkscape:connector-curvature="0"
         style="fill:#ffffff" />
      <path
         d="m 87.4,610.9 c 10.3,0 18.6,5.6 18.6,12.6 0,6.9 -8.3,12.5 -18.6,12.5 -10.3,0 -18.7,-5.6 -18.7,-12.5 0,-7 8.4,-12.6 18.7,-12.6 z"
         class="g2_1"
         id="path888"
         inkscape:connector-curvature="0"
         style="fill:#ffffff" />
      <path
         d="m 87.4,634.1 c -9.1,0 -16.8,-4.9 -16.8,-10.6 0,-5.8 7.7,-10.7 16.8,-10.7 9,0 16.7,4.9 16.7,10.7 0,5.7 -7.7,10.6 -16.7,10.6 m 0,3.9 c 11.3,0 20.5,-6.5 20.5,-14.5 0,-8 -9.2,-14.5 -20.5,-14.5 -11.4,0 -20.6,6.5 -20.6,14.5 0,8 9.2,14.5 20.6,14.5 z"
         class="g0_1"
         id="path890"
         inkscape:connector-curvature="0"
         style="fill:#dcddde" />
      <path
         d="m 106.6,630.5 h 2.3 c -1.7,1.5 -2.1,3.2 -2.1,3.2 0.6,0.1 1.7,0.6 1.7,0.6 -0.9,-2.1 1.6,-3.8 1.6,-3.8 l 2.5,-2 h -2.4 c 0.6,-1.5 0.8,-2.9 0.9,-4.1 0.8,1.1 2.6,2.8 5.2,1.8 -0.5,0.1 -3,0.5 -5.2,-4.1 -0.5,-3.7 -2.6,-5.4 -2.6,-5.4 2.2,4.3 1.7,8.1 1,10.4 0,0 -0.4,0.6 -1.3,0.6 0.5,-1.3 0.8,-2.8 0.8,-4.2 0,-8.6 -9.7,-15.6 -21.6,-15.6 -12,0 -21.7,7 -21.7,15.6 0,1.4 0.3,2.9 0.9,4.2 -0.9,0 -1.4,-0.6 -1.4,-0.6 -0.7,-2.3 -1.2,-6.1 1,-10.4 0,0 -2.1,1.7 -2.5,5.4 -2.2,4.6 -4.7,4.2 -5.3,4.1 2.6,1 4.4,-0.7 5.2,-1.8 0.1,1.2 0.4,2.6 0.9,4.1 h -2.3 l 2.5,2 h -0.1 c 0,0 2.5,1.7 1.6,3.8 0,0 1.1,-0.5 1.7,-0.6 0,0 -0.4,-1.7 -2.1,-3.2 h 2.3 c 0.9,1.2 1.9,2.3 3.1,3.3 -5.8,0.6 -8.9,3.7 -8.9,3.7 5.2,-1.4 7.5,0 7.5,0 -0.2,-1.2 -1.5,-1.4 -1.5,-1.4 0.1,-1.7 4.1,-0.6 4.1,-0.6 1.2,0.3 2.9,1 3.9,2.5 l 7.9,0.9 -0.1,-0.1 c 1.1,0.1 2.2,0.2 3.3,0.2 1.1,0 2.2,-0.1 3.2,-0.2 v 0.1 l 7.9,-0.9 c 1,-1.5 2.6,-2.2 3.8,-2.5 0,0 4,-1.1 4.1,0.6 0,0 -1.3,0.2 -1.5,1.4 0,0 2.3,-1.4 7.5,0 0,0 -3.1,-3.1 -8.9,-3.7 1.2,-1 2.3,-2.1 3.1,-3.3 m -35.8,0 v 0 c -0.3,-0.3 -0.5,-0.6 -0.8,-0.9 q 0,-0.1 0,-0.1 c -0.3,-0.3 -0.5,-0.6 -0.7,-1 -0.9,-1.5 -1.4,-3.2 -1.4,-5 0,-7.4 8.7,-13.5 19.5,-13.5 10.7,0 19.5,6.1 19.5,13.5 0,1.8 -0.6,3.5 -1.5,5 -0.2,0.4 -0.4,0.7 -0.6,1 0,0 -0.1,0 -0.1,0.1 -0.2,0.3 -0.5,0.6 -0.8,0.9 -3.4,3.8 -9.5,6.4 -16.5,6.4 -7,0 -13.1,-2.6 -16.6,-6.4 m 50.8,-63.2 c -0.5,2.3 0.3,4.4 1.4,5.9 -1.7,9.3 -0.1,42.5 0.2,46.4 0.7,-1 1.4,-2.6 1.8,-3.5 -0.1,-2 -0.1,-4.2 -0.2,-6.5 0.9,1.5 1.3,3.1 1.2,4.8 -0.2,1.9 -1,3.7 -2.1,5.4 q -0.1,0.1 -0.2,0.2 c -0.1,0.2 -0.3,0.5 -0.4,0.7 q -0.1,0 -0.1,0 c -2.4,3.3 -5.5,5.6 -5.7,5.7 -1.2,0.6 -2.4,1.4 -3.5,2.1 h -0.1 l -0.2,0.2 c -0.8,0.6 -1.6,1.1 -2.3,1.7 l -0.2,0.1 c 0,0 -1,0.7 -1.1,2 0,0 0.8,-1.4 3.1,-2 h 3 c -3.5,2.1 -5.1,4.9 -5.1,4.9 1,0.5 1.8,1.6 1.8,1.6 -0.7,-2.3 1.2,-4 3.2,-5.2 0.2,-0.1 3.1,-1.4 5.5,-1.3 h 4.4 l -0.1,-1.1 c 0,-0.1 -0.2,-1.5 -0.4,-3.8 0.3,0 0.6,0 0.9,0 0.1,0.1 0.3,0.1 0.4,0.1 0.1,0.1 0.3,0.2 0.1,0.5 -0.3,0.6 -0.7,0.9 -0.7,0.9 0,0 1.1,-0.1 1.7,-1.2 0.6,-1 -0.7,-1.9 -2.2,-1.7 -0.1,0 -0.2,0 -0.3,0 0,-1.1 -0.1,-2.4 -0.2,-3.8 1.1,-1.8 2,-3.8 2.2,-5.9 0.3,-2.6 -0.6,-5.1 -2.6,-7.3 0,-0.4 0,-0.8 0,-1.1 0,0 1.4,-25.9 2.7,-30 l 0.2,-0.6 -0.5,-0.3 c 0,0 -1.1,-0.7 -2.2,-1.8 0,0 -1.2,-1.1 -1.6,-2.3 -0.5,-1 -0.7,-2.1 -0.4,-3.4 0,-0.1 0.6,-1.3 1.1,-2.9 l 0.3,2.8 c -0.3,0.8 -0.5,1.7 -0.7,2.5 0.3,0.6 0.8,1.6 1.5,2.1 0.3,-1.5 0.7,-2.9 1.1,-4.1 l 0.1,-0.2 -1.3,-13.9 c 0,2.1 -1.4,6.6 -1.4,6.6 -0.4,2.8 -2,6.5 -2.1,6.7 m 1.8,55.6 c 0,0.5 0,1 0.1,1.5 -0.6,0 -1.2,0.1 -1.8,0.3 0.5,-0.5 1.1,-1.2 1.7,-1.8 m -6.8,5.6 c 2.4,-1.4 4.8,-2.5 7,-2.7 0.1,1.1 0.1,2.1 0.2,2.7 z m 8.1,-53.4 c 0.5,0.5 0.9,0.8 1.3,1 -0.9,3.3 -1.7,11.9 -2.2,17.6 0,-4.5 0.1,-13.3 0.9,-18.6 M 51.2,558 c -0.9,-2.3 -1.4,-7.3 -1.4,-7.3 v -0.5 l 0.7,-0.2 c 1.4,-0.4 5.6,-2.3 5.6,-4.6 v -1 h 62.5 v 1 c 0,2.3 4.2,4.2 5.7,4.6 l 0.6,0.2 0.1,0.5 c 0,0 -0.5,5 -1.5,7.3 l -0.4,-6.3 c -1.7,-0.6 -5.6,-2.3 -6.4,-5.4 H 58 c -0.7,3.1 -4.7,4.8 -6.3,5.4 z m -4.3,67.9 c 0.6,1.1 1.7,1.2 1.7,1.2 0,0 -0.4,-0.3 -0.8,-0.9 -0.1,-0.3 0,-0.4 0.2,-0.5 0.1,0 0.2,0 0.4,-0.1 0.2,0 0.5,0 0.8,0 -0.2,2.3 -0.3,3.7 -0.3,3.8 l -0.2,1.1 h 7.4 c 2.2,0.9 6.7,3.2 5.7,6.5 0,0 0.8,-1.1 1.8,-1.6 0,0 -1.6,-2.8 -5.1,-4.9 h 3 c 2.3,0.6 3.1,2 3.1,2 -0.1,-1.3 -1.1,-2 -1.1,-2 l -0.1,-0.1 c -0.8,-0.6 -1.5,-1.1 -2.3,-1.7 l -0.3,-0.2 c -1.1,-0.7 -2.3,-1.5 -3.5,-2.1 -0.2,-0.1 -3.4,-2.4 -5.8,-5.7 -0.2,-0.2 -0.3,-0.5 -0.5,-0.7 0,-0.1 -0.1,-0.1 -0.1,-0.2 -1.1,-1.7 -2,-3.5 -2.1,-5.4 -0.2,-1.7 0.2,-3.3 1.1,-4.8 0,2.3 -0.1,4.5 -0.2,6.5 0.4,0.9 1.1,2.5 1.9,3.5 0.2,-3.9 1.8,-37.1 0.2,-46.4 1.1,-1.5 1.9,-3.6 1.3,-5.9 0,-0.2 -1.6,-3.9 -2.1,-6.7 0,0 -1.4,-4.5 -1.4,-6.6 l -1.2,13.9 v 0.2 c 0.5,1.2 0.8,2.6 1.1,4.1 0.7,-0.5 1.3,-1.5 1.6,-2.1 -0.2,-0.8 -0.5,-1.7 -0.7,-2.5 l 0.2,-2.8 c 0.6,1.6 1.1,2.8 1.2,2.9 0.2,1.3 0,2.4 -0.5,3.4 -0.4,1.2 -1.5,2.3 -1.5,2.3 -1.1,1.1 -2.2,1.8 -2.2,1.8 l -0.5,0.3 0.2,0.6 c 1.2,4.1 2.6,30 2.6,30 0,0.3 0,0.7 0,1.1 -1.9,2.2 -2.8,4.7 -2.6,7.3 0.2,2.1 1.1,4.1 2.2,5.9 0,1.4 -0.1,2.7 -0.2,3.8 -0.1,0 -0.2,0 -0.3,0 -1.5,-0.2 -2.8,0.7 -2.1,1.7 m 4.5,-3 c 0.6,0.6 1.1,1.3 1.7,1.8 -0.6,-0.2 -1.2,-0.3 -1.8,-0.3 0,-0.5 0.1,-1 0.1,-1.5 m -0.2,2.9 c 2.1,0.2 4.6,1.3 6.9,2.7 h -7.2 c 0.1,-0.6 0.2,-1.6 0.3,-2.7 m -2.4,-49.7 c 0.3,-0.2 0.8,-0.5 1.3,-1 0.7,5.3 0.9,14.1 0.8,18.6 -0.5,-5.7 -1.2,-14.3 -2.1,-17.6 z"
         class="g4_1"
         id="path892"
         inkscape:connector-curvature="0"
         style="fill:#231f20" />
      <text
         x="54.071301"
         y="559.01501"
         class="s6_1"
         id="text1380"
         style="font-size:8.86451244px;font-family:ScalaSansOffc-Bold_c;white-space:pre;fill:#231f20;stroke-width:0.89269978">INTELLIGENCE</text>
    </g>
  </g>
</svg>
