<?xml version="1.0" encoding="UTF-8" standalone="no"?>
<!-- Created with Inkscape (http://www.inkscape.org/) -->

<svg
   xmlns:dc="http://purl.org/dc/elements/1.1/"
   xmlns:cc="http://creativecommons.org/ns#"
   xmlns:rdf="http://www.w3.org/1999/02/22-rdf-syntax-ns#"
   xmlns:svg="http://www.w3.org/2000/svg"
   xmlns="http://www.w3.org/2000/svg"
   xmlns:sodipodi="http://sodipodi.sourceforge.net/DTD/sodipodi-0.dtd"
   xmlns:inkscape="http://www.inkscape.org/namespaces/inkscape"
   width="21.522367mm"
   height="25.056042mm"
   viewBox="0 0 21.522367 25.056042"
   version="1.1"
   id="svg3452"
   inkscape:version="0.92.4 (5da689c313, 2019-01-14)"
   sodipodi:docname="Wisdom.svg">
  <defs
     id="defs3446" />
  <sodipodi:namedview
     id="base"
     pagecolor="#ffffff"
     bordercolor="#666666"
     borderopacity="1.0"
     inkscape:pageopacity="0.0"
     inkscape:pageshadow="2"
     inkscape:zoom="3.959798"
     inkscape:cx="39.959191"
     inkscape:cy="38.880921"
     inkscape:document-units="mm"
     inkscape:current-layer="layer1"
     showgrid="false"
     inkscape:window-width="1366"
     inkscape:window-height="705"
     inkscape:window-x="-8"
     inkscape:window-y="-8"
     inkscape:window-maximized="1" />
  <metadata
     id="metadata3449">
    <rdf:RDF>
      <cc:Work
         rdf:about="">
        <dc:format>image/svg+xml</dc:format>
        <dc:type
           rdf:resource="http://purl.org/dc/dcmitype/StillImage" />
        <dc:title></dc:title>
      </cc:Work>
    </rdf:RDF>
  </metadata>
  <g
     inkscape:label="Layer 1"
     inkscape:groupmode="layer"
     id="layer1"
     transform="translate(-98.095959,-95.483884)">
    <g
       transform="matrix(0.26458333,0,0,0.26458333,85.73853,-77.474239)"
       style="display:block"
       id="g3427">
      <path
         d="m 47.9,685 c 0,0 3.4,17.2 2.2,32.9 0,0 -4.7,4.7 0.4,12.5 l -0.4,8.3 h 74.5 l -0.4,-8.3 c 5.2,-7.8 0.4,-12.5 0.4,-12.5 -1.1,-15.7 2.3,-32.9 2.3,-32.9 l -2.2,-1.6 c 0.5,-0.9 1.7,-6.2 1.7,-6.2 l -1.5,-17.6 c -4.3,1.8 -7.2,-4.8 -7.2,-4.8 H 57 c 0,0 -2.8,6.6 -7.2,4.8 l -1.4,17.6 c 0,0 1.2,5.3 1.6,6.2 z"
         class="g2_1"
         id="path894"
         inkscape:connector-curvature="0"
         style="fill:#ffffff" />
      <path
         d="m 87.4,720.2 c 10.3,0 18.6,5.7 18.6,12.6 0,7 -8.3,12.6 -18.6,12.6 -10.3,0 -18.7,-5.6 -18.7,-12.6 0,-6.9 8.4,-12.6 18.7,-12.6 z"
         class="g2_1"
         id="path896"
         inkscape:connector-curvature="0"
         style="fill:#ffffff" />
      <path
         d="m 87.4,743.5 c -9.1,0 -16.8,-4.9 -16.8,-10.7 0,-5.8 7.7,-10.6 16.8,-10.6 9,0 16.7,4.8 16.7,10.6 0,5.8 -7.7,10.7 -16.7,10.7 m 0,3.8 c 11.3,0 20.5,-6.5 20.5,-14.5 0,-8 -9.2,-14.5 -20.5,-14.5 -11.4,0 -20.6,6.5 -20.6,14.5 0,8 9.2,14.5 20.6,14.5 z"
         class="g0_1"
         id="path898"
         inkscape:connector-curvature="0"
         style="fill:#dcddde" />
      <path
         d="m 121.6,676.7 c -0.5,2.3 0.3,4.3 1.4,5.9 -1.7,9.3 -0.1,42.5 0.2,46.3 0.7,-0.9 1.4,-2.5 1.8,-3.5 -0.1,-2 -0.1,-4.1 -0.2,-6.4 0.9,1.5 1.3,3.1 1.2,4.7 -0.2,2 -1,3.8 -2.1,5.5 -0.1,0 -0.1,0.1 -0.2,0.2 -0.1,0.2 -0.3,0.4 -0.4,0.6 q -0.1,0.1 -0.1,0.1 c -2.4,3.2 -5.5,5.5 -5.7,5.7 -1.2,0.6 -2.4,1.4 -3.5,2.1 h -0.1 l -0.2,0.2 c -0.8,0.5 -1.6,1.1 -2.3,1.7 l -0.2,0.1 c 0,0 -1.8,1.3 -0.6,2.6 0,0 -0.3,-1.4 2.6,-2.6 H 126 l -0.1,-1.1 c 0,-0.1 -0.2,-1.5 -0.4,-3.8 0.3,0 0.6,0 0.9,0 0.1,0 0.3,0.1 0.4,0.1 0.2,0 0.3,0.2 0.1,0.5 -0.3,0.6 -0.7,0.8 -0.7,0.8 0,0 1.1,-0.1 1.7,-1.1 0.6,-1.1 -0.7,-1.9 -2.2,-1.8 -0.1,0 -0.2,0 -0.3,0 0,-1.1 -0.1,-2.3 -0.2,-3.7 1.1,-1.8 2,-3.8 2.2,-5.9 0.3,-2.7 -0.6,-5.1 -2.6,-7.3 0,-0.4 0,-0.8 0,-1.2 0,0 1.4,-25.8 2.7,-30 l 0.2,-0.5 -0.5,-0.3 c 0,0 -1.1,-0.7 -2.2,-1.9 0,0 -1.2,-1 -1.6,-2.2 -0.5,-1 -0.7,-2.2 -0.4,-3.4 0,-0.1 0.6,-1.4 1.1,-3 l 0.3,2.9 c -0.3,0.8 -0.5,1.6 -0.7,2.5 0.3,0.6 0.8,1.6 1.5,2 0.3,-1.4 0.7,-2.8 1.1,-4.1 l 0.1,-0.2 -1.3,-13.8 c 0,2.1 -1.4,6.6 -1.4,6.6 -0.4,2.8 -2,6.5 -2.1,6.7 m 1.8,55.5 c 0,0.6 0,1.1 0.1,1.5 -0.6,0.1 -1.2,0.2 -1.8,0.4 0.5,-0.6 1.1,-1.2 1.7,-1.9 m -6.8,5.7 c 2.4,-1.4 4.8,-2.5 7,-2.8 0.1,1.2 0.1,2.2 0.2,2.8 z m 8.1,-53.4 c 0.5,0.4 0.9,0.8 1.3,1 -0.9,3.3 -1.7,11.9 -2.2,17.6 0,-4.5 0.1,-13.3 0.9,-18.6 z"
         class="g4_1"
         id="path900"
         inkscape:connector-curvature="0"
         style="fill:#231f20" />
      <path
         d="m 51.7,661.1 c 1.6,-0.6 5.6,-2.4 6.3,-5.4 h 58.7 c 0.8,3 4.7,4.8 6.4,5.4 l 0.4,6.3 c 1,-2.3 1.5,-7.4 1.5,-7.4 l -0.1,-0.4 -0.6,-0.2 c -1.5,-0.4 -5.7,-2.3 -5.7,-4.7 v -1 H 56.1 v 1 c 0,2.4 -4.2,4.3 -5.6,4.7 l -0.7,0.2 v 0.4 c 0,0 0.5,5.1 1.4,7.4 z"
         class="g4_1"
         id="path902"
         inkscape:connector-curvature="0"
         style="fill:#231f20" />
      <path
         d="m 46.9,735.3 c 0.6,1 1.7,1.1 1.7,1.1 0,0 -0.4,-0.2 -0.8,-0.8 -0.1,-0.3 0,-0.5 0.2,-0.5 0.1,0 0.2,-0.1 0.4,-0.1 0.2,0 0.5,0 0.8,0 -0.2,2.3 -0.3,3.7 -0.3,3.8 l -0.2,1.1 h 12.8 c 3,1.2 2.6,2.6 2.6,2.6 1.2,-1.3 -0.6,-2.6 -0.6,-2.6 l -0.1,-0.1 c -0.8,-0.6 -1.5,-1.2 -2.3,-1.7 l -0.3,-0.2 c -1.1,-0.7 -2.3,-1.5 -3.5,-2.1 -0.2,-0.2 -3.4,-2.5 -5.8,-5.7 V 730 c -0.2,-0.2 -0.3,-0.4 -0.5,-0.6 0,-0.1 -0.1,-0.2 -0.1,-0.2 -1.1,-1.7 -2,-3.5 -2.1,-5.5 -0.2,-1.6 0.2,-3.2 1.1,-4.7 0,2.3 -0.1,4.4 -0.2,6.4 0.4,1 1.1,2.6 1.9,3.5 0.2,-3.8 1.8,-37 0.2,-46.3 1.1,-1.6 1.9,-3.6 1.3,-5.9 0,-0.2 -1.6,-3.9 -2.1,-6.7 0,0 -1.4,-4.5 -1.4,-6.6 l -1.2,13.8 v 0.2 c 0.5,1.3 0.8,2.7 1.1,4.1 0.7,-0.4 1.3,-1.4 1.6,-2 -0.2,-0.9 -0.5,-1.7 -0.7,-2.5 l 0.2,-2.9 c 0.6,1.6 1.1,2.9 1.2,3 0.2,1.2 0,2.4 -0.5,3.4 -0.4,1.2 -1.5,2.2 -1.5,2.2 -1.1,1.2 -2.2,1.9 -2.2,1.9 l -0.5,0.3 0.2,0.5 c 1.2,4.2 2.6,30 2.6,30 0,0.4 0,0.8 0,1.2 -1.9,2.2 -2.8,4.6 -2.6,7.3 0.2,2.1 1.1,4.1 2.2,5.9 0,1.4 -0.1,2.6 -0.2,3.7 -0.1,0 -0.2,0 -0.3,0 -1.5,-0.1 -2.8,0.7 -2.1,1.8 m 4.5,-3.1 c 0.6,0.7 1.1,1.3 1.7,1.9 -0.6,-0.2 -1.2,-0.3 -1.8,-0.4 0,-0.4 0.1,-0.9 0.1,-1.5 m -0.2,2.9 c 2.1,0.3 4.6,1.4 6.9,2.8 h -7.2 c 0.1,-0.6 0.2,-1.6 0.3,-2.8 m -2.4,-49.6 c 0.3,-0.2 0.8,-0.6 1.3,-1 0.7,5.3 0.9,14.1 0.8,18.6 -0.5,-5.7 -1.2,-14.3 -2.1,-17.6 z"
         class="g4_1"
         id="path904"
         inkscape:connector-curvature="0"
         style="fill:#231f20" />
      <path
         d="m 109.6,743.1 c -0.1,-0.1 -1.5,-1.3 0.5,-3.2 l 2.5,-2 h -2.4 c 0.6,-1.5 0.8,-2.9 0.9,-4.2 0.8,1.2 2.6,2.9 5.3,1.8 -0.6,0.2 -3.1,0.6 -5.3,-4.1 v 0.1 c -0.5,-3.7 -2.6,-5.4 -2.6,-5.4 2.2,4.3 1.7,8.1 1,10.3 0,0.1 -0.4,0.7 -1.3,0.7 0.5,-1.4 0.8,-2.8 0.8,-4.3 0,-8.6 -9.7,-15.5 -21.6,-15.5 -12,0 -21.7,6.9 -21.7,15.5 0,1.5 0.3,2.9 0.9,4.3 -0.9,0 -1.4,-0.6 -1.4,-0.7 -0.7,-2.2 -1.2,-6 1,-10.3 0,0 -2.1,1.7 -2.5,5.4 v -0.1 c -2.3,4.7 -4.7,4.3 -5.3,4.1 2.6,1.1 4.4,-0.6 5.2,-1.8 0.1,1.3 0.4,2.7 0.9,4.2 h -2.3 l 2.5,2 c 2,1.9 0.5,3.1 0.4,3.2 -2.4,1.1 -5.9,1.7 -9.6,0 0,0 1.5,2.2 3.8,2.8 0,0 3.5,-1.3 5.4,-0.8 0,0 3.1,-3.9 6,-2.3 0.2,0.1 0.4,0.2 0.5,0.3 0,0.1 0.1,0.1 0.1,0.1 -6,0.9 -5.6,5 -5.6,5 0.6,-1.8 3.1,-1.6 3.1,-1.6 0.5,-2 3.6,-1.7 3.6,-1.7 0.3,0.1 0.7,0.2 1,0.3 0.1,0 0.2,0.1 0.3,0.1 0.2,0.1 0.5,0.2 0.7,0.4 0.2,0.1 0.4,0.2 0.6,0.4 0.1,0.1 0.3,0.2 0.4,0.3 0.3,0.2 0.6,0.6 0.9,0.9 l 7.9,0.9 h -0.1 c 0.5,0.1 1,0.1 1.5,0.1 0.6,0.1 1.2,0.1 1.8,0.1 0.6,0 1.2,0 1.7,-0.1 0.5,0 1,0 1.5,-0.1 l 7.9,-0.9 c 1,-1.4 2.6,-2.1 3.8,-2.4 0,0 3.1,-0.3 3.7,1.7 0,0 2.4,-0.2 3,1.6 0,0 0.4,-4.1 -5.6,-5 q 0.1,0 0.1,-0.1 c 0.2,-0.1 0.4,-0.2 0.5,-0.3 2.9,-1.6 6,2.3 6,2.3 1.9,-0.5 5.5,0.8 5.5,0.8 2.2,-0.6 3.7,-2.8 3.7,-2.8 -3.7,1.7 -7.1,1.1 -9.6,0 M 87.4,719.4 c 10.7,0 19.5,6 19.5,13.4 0,1.8 -0.6,3.5 -1.5,5.1 -0.2,0.3 -0.4,0.6 -0.6,0.9 0,0.1 -0.1,0.1 -0.1,0.1 -0.2,0.4 -0.5,0.7 -0.8,1 -1.2,1.4 -2.9,2.6 -4.8,3.6 q -0.1,0.1 -0.2,0.1 c -0.6,0.3 -1.2,0.6 -1.8,0.8 q -0.1,0.1 -0.2,0.1 c -0.7,0.3 -1.4,0.5 -2.1,0.7 0,0 -0.1,0.1 -0.1,0.1 -0.7,0.2 -1.3,0.3 -2,0.4 -0.2,0.1 -0.4,0.1 -0.7,0.1 -0.5,0.1 -1.1,0.2 -1.6,0.3 -0.2,0 -0.5,0 -0.7,0.1 -0.8,0 -1.5,0.1 -2.3,0.1 -0.8,0 -1.6,-0.1 -2.4,-0.1 -0.2,-0.1 -0.4,-0.1 -0.6,-0.1 -0.6,-0.1 -1.2,-0.2 -1.7,-0.3 -0.2,0 -0.4,0 -0.6,-0.1 -0.7,-0.1 -1.4,-0.2 -2,-0.4 -0.1,0 -0.1,-0.1 -0.2,-0.1 -0.7,-0.2 -1.4,-0.4 -2.1,-0.7 0,0 -0.1,0 -0.1,-0.1 -0.7,-0.2 -1.3,-0.5 -1.9,-0.8 0,0 -0.1,0 -0.2,-0.1 -1.9,-1 -3.5,-2.2 -4.8,-3.6 -0.3,-0.3 -0.5,-0.6 -0.8,-1 v -0.1 c -0.3,-0.3 -0.5,-0.6 -0.7,-0.9 -0.9,-1.6 -1.4,-3.3 -1.4,-5.1 0,-7.4 8.7,-13.4 19.5,-13.4 m -20.7,22.9 c 0.1,-1 -0.4,-1.9 -0.8,-2.4 h 2.2 c 0.2,0.3 0.5,0.6 0.8,0.9 l -0.1,0.1 c 0,0 -0.8,0.7 -2.1,1.4 m 41.3,0 c -1.3,-0.7 -2.1,-1.4 -2.1,-1.4 v -0.1 c 0.3,-0.3 0.5,-0.6 0.7,-0.9 h 2.2 c -0.4,0.5 -0.8,1.4 -0.8,2.4 z"
         class="g4_1"
         id="path906"
         inkscape:connector-curvature="0"
         style="fill:#231f20" />
      <text
         x="65.867355"
         y="669"
         class="s6_1"
         id="text1382"
         style="font-size:9.93000031px;font-family:ScalaSansOffc-Bold_c;white-space:pre;fill:#231f20">WISDOM</text>
    </g>
  </g>
</svg>
