<?xml version="1.0" encoding="UTF-8" standalone="no"?>
<!-- Created with Inkscape (http://www.inkscape.org/) -->

<svg
   xmlns:dc="http://purl.org/dc/elements/1.1/"
   xmlns:cc="http://creativecommons.org/ns#"
   xmlns:rdf="http://www.w3.org/1999/02/22-rdf-syntax-ns#"
   xmlns:svg="http://www.w3.org/2000/svg"
   xmlns="http://www.w3.org/2000/svg"
   xmlns:sodipodi="http://sodipodi.sourceforge.net/DTD/sodipodi-0.dtd"
   xmlns:inkscape="http://www.inkscape.org/namespaces/inkscape"
   width="45.693542mm"
   height="11.377083mm"
   viewBox="0 0 45.693542 11.377083"
   version="1.1"
   id="svg3835"
   inkscape:version="0.92.4 (5da689c313, 2019-01-14)"
   sodipodi:docname="Inspiration.svg">
  <defs
     id="defs3829" />
  <sodipodi:namedview
     id="base"
     pagecolor="#ffffff"
     bordercolor="#666666"
     borderopacity="1.0"
     inkscape:pageopacity="0.0"
     inkscape:pageshadow="2"
     inkscape:zoom="5.6"
     inkscape:cx="96.970866"
     inkscape:cy="22.862914"
     inkscape:document-units="mm"
     inkscape:current-layer="layer1"
     showgrid="false"
     inkscape:window-width="1366"
     inkscape:window-height="705"
     inkscape:window-x="-8"
     inkscape:window-y="-8"
     inkscape:window-maximized="1"
     inkscape:pagecheckerboard="true" />
  <metadata
     id="metadata3832">
    <rdf:RDF>
      <cc:Work
         rdf:about="">
        <dc:format>image/svg+xml</dc:format>
        <dc:type
           rdf:resource="http://purl.org/dc/dcmitype/StillImage" />
        <dc:title></dc:title>
      </cc:Work>
    </rdf:RDF>
  </metadata>
  <g
     inkscape:label="Layer 1"
     inkscape:groupmode="layer"
     id="layer1"
     transform="translate(-66.355611,-54.698363)">
    <g
       transform="matrix(0.26458333,0,0,0.26458333,28.626028,3.9512805)"
       style="display:block"
       id="g3816">
      <path
         d="m 315.3,203.5 -0.6,-0.2 c -2.2,-1.1 -5,-5.1 -5.9,-6.6 l -0.3,-0.5 H 185.6 v -4.4 h -10.5 l -0.4,0.5 c -0.7,0.9 -1.5,1.6 -2.5,2 -2.2,-0.9 -4.6,-1.5 -7.1,-1.6 -0.2,-0.4 -0.6,-0.7 -1,-0.7 -0.5,0 -0.9,0.3 -1.1,0.7 -2.4,0.1 -4.8,0.7 -7.1,1.6 -0.9,-0.4 -1.8,-1.1 -2.4,-2 l -0.4,-0.5 h -10.5 v 43 h 10.5 l 0.4,-0.5 c 0.6,-0.8 1.5,-1.5 2.4,-2 2.3,1 4.6,1.6 7.1,1.7 0.2,0.4 0.6,0.7 1.1,0.7 0.4,0 0.8,-0.3 1,-0.7 2.5,-0.1 4.9,-0.7 7.1,-1.7 1,0.5 1.8,1.2 2.5,2 l 0.4,0.5 h 10.5 v -4.3 h 122.9 l 0.3,-0.5 c 0.9,-1.5 3.7,-5.5 5.9,-6.6 l 0.6,-0.3 z m -10.5,21.6 H 188.6 v -23.5 h 116.2 c 3.6,2 7.1,4.7 8.4,8 v 7.5 c -1.3,3.3 -4.8,6 -8.4,8 M 185.6,201.6 h 1.9 v 23.5 h -1.9 z m 127.6,3.2 v 2.3 c -2.8,-4.1 -8.5,-7.1 -12.4,-8.8 h 6.5 c 0.9,1.3 3.4,5 5.9,6.5 m -15.5,-6.5 c 1.1,0.4 3,1.1 5,2.1 H 185.6 v -2.1 z m -134.6,-4.5 c 0.2,0.3 0.5,0.6 1,0.6 0.4,0 0.7,-0.3 1,-0.6 1.9,0.1 3.7,0.5 5.6,1.1 -0.6,0.2 -1.2,0.2 -1.8,0.2 h -9.7 c -0.6,0 -1.2,0 -1.7,-0.2 1.8,-0.6 3.7,-1 5.6,-1.1 m 1.9,39.1 c -0.2,-0.4 -0.5,-0.6 -0.9,-0.6 -0.5,0 -0.8,0.2 -1,0.6 -1.9,-0.1 -3.8,-0.5 -5.6,-1.2 0.5,-0.1 1.1,-0.2 1.7,-0.2 h 9.7 c 0.6,0 1.2,0.1 1.8,0.2 -1.9,0.7 -3.7,1.1 -5.7,1.2 m 11.3,-0.7 c -1.9,-2.1 -4.5,-3.3 -7.4,-3.3 h -9.7 c -2.8,0 -5.5,1.2 -7.4,3.3 H 150 c 0,0 -4.8,-0.1 -4.8,-6.5 V 201 c 0,-6.4 4.8,-6.5 4.8,-6.5 h 1.8 c 1.9,2.1 4.6,3.3 7.4,3.3 h 9.7 c 2.9,0 5.5,-1.2 7.4,-3.3 h 1.8 c 0,0 4.8,0.1 4.8,6.5 v 24.7 c 0,6.4 -4.8,6.5 -4.8,6.5 z m 9.3,-6 h 117.1 c -2,1 -3.9,1.8 -5,2.2 H 185.6 Z m 121.7,2.2 h -6.5 c 3.9,-1.7 9.6,-4.7 12.4,-8.8 v 2.2 c -2.5,1.6 -5,5.2 -5.9,6.6 z"
         class="g10_1"
         id="path1388"
         inkscape:connector-curvature="0"
         style="fill:#201c1e" />
      <text
         x="223"
         y="216"
         dx="0 0 0 0 0 0 0 -0.40000001 0 0 0"
         class="s8_1"
         id="text1390"
         style="font-size:8.77999973px;font-family:ScalaSansOffc-Bold_c;white-space:pre;fill:#231f20">INSPIRATION</text>
    </g>
    <path
       style="fill:#ffffff;stroke-width:0.25253814"
       d="M 5.2278807,39.459463 C 4.4348879,38.956561 3.8909084,38.349596 3.4738062,37.502292 L 2.8692021,36.274093 V 21.500612 c 0,-14.6415631 0.00485,-14.7825004 0.5436343,-15.783633 1.0171439,-1.8900031 2.6610842,-2.9041885 4.7075343,-2.9041885 0.8492069,0 1.2368118,0.1450846 1.6973954,0.6353533 0.8995829,0.9575619 2.5625839,1.846277 4.2764339,2.2853451 1.242975,0.3184352 2.772107,0.3775511 8.034518,0.3106129 7.387578,-0.093971 8.278586,-0.2833557 10.489613,-2.2295802 0.975984,-0.8590937 1.30447,-1.0017311 2.306943,-1.0017311 1.483846,0 2.578412,0.4704766 3.604199,1.5491911 1.597049,1.6794539 1.58925,1.5954294 1.587695,17.1072474 -7.58e-4,8.631254 -0.09925,14.39949 -0.255177,14.960839 -0.64347,2.316535 -2.457684,3.747154 -4.760837,3.754212 -1.163509,0.0036 -1.483974,-0.108541 -2.26132,-0.79106 -1.173261,-1.030136 -3.128707,-1.916353 -4.986059,-2.259704 -0.90431,-0.16717 -3.787121,-0.234583 -7.423153,-0.173582 -6.729393,0.112894 -7.515425,0.286179 -10.053533,2.216348 -1.1644734,0.885552 -1.4978548,1.012152 -2.6653434,1.012152 -1.0371767,0 -1.5904231,-0.162369 -2.4838649,-0.728971 z"
       id="path4731"
       inkscape:connector-curvature="0"
       transform="matrix(0.26458333,0,0,0.26458333,66.355611,54.698363)" />
    <path
       style="fill:#ffffff;stroke-width:0.17857143"
       d="M 46.113724,21.512084 V 9.8156551 h 57.999286 57.99928 l 1.24715,0.7689169 c 3.04607,1.878033 5.36911,4.016179 6.54893,6.027684 l 0.66964,1.141702 v 3.729067 3.729067 l -0.57831,1.096424 c -0.84039,1.593293 -3.35819,4.058035 -5.74387,5.622823 l -1.94718,1.277173 H 104.21119 46.113724 Z m 49.163499,2.470856 c 0.620513,-0.320879 1.077725,-1.332652 0.9222,-2.04075 -0.162455,-0.739656 -0.804675,-1.160429 -2.162057,-1.416549 -1.106723,-0.208823 -1.852214,-0.638329 -1.852214,-1.067129 0,-0.09821 0.160714,-0.339286 0.357143,-0.535714 0.467553,-0.467554 1.737166,-0.47521 2.687198,-0.0162 l 0.705659,0.340937 v -0.594946 c 0,-0.524716 -0.07586,-0.619983 -0.642665,-0.807044 -0.353464,-0.116654 -1.155641,-0.179434 -1.782616,-0.139512 -0.959767,0.06111 -1.225117,0.154181 -1.678764,0.588802 -0.539866,0.517223 -0.714655,1.390518 -0.427887,2.137824 0.150505,0.392209 0.928819,0.771596 2.067651,1.00787 1.667997,0.34606 2.178802,0.967427 1.385488,1.685367 -0.630411,0.570513 -2.001877,0.413208 -3.608707,-0.413915 -0.07366,-0.03792 -0.133929,0.212774 -0.133929,0.557092 0,0.549816 0.07066,0.648247 0.580357,0.8085 1.331938,0.418768 2.65807,0.383746 3.583143,-0.09463 z m 35.687877,0.291668 c 2.40835,-0.668917 2.76361,-5.166374 0.50056,-6.336647 -0.69856,-0.361236 -2.26191,-0.336651 -3.02782,0.04761 -0.34718,0.174189 -0.80396,0.628009 -1.0332,1.026509 -0.35309,0.61379 -0.40371,0.919734 -0.35984,2.174538 0.06,1.715836 0.35022,2.245514 1.57257,2.870104 0.86819,0.443622 1.36799,0.490006 2.34773,0.217882 z M 83.5815,23.878155 c -0.03667,-0.258207 -0.200641,-0.422177 -0.458848,-0.458848 -0.393889,-0.05594 -0.401786,-0.104192 -0.401786,-2.455358 v -2.398294 h 0.446429 c 0.357143,0 0.446428,-0.08929 0.446428,-0.446429 0,-0.436507 -0.02976,-0.446428 -1.339285,-0.446428 -1.309524,0 -1.339286,0.0099 -1.339286,0.446428 0,0.357143 0.08929,0.446429 0.446428,0.446429 h 0.446429 v 2.410714 2.410715 H 81.38158 c -0.357142,0 -0.446428,0.08928 -0.446428,0.446428 0,0.436873 0.02893,0.446429 1.351705,0.446429 1.299629,0 1.349507,-0.01548 1.294643,-0.401786 z m 2.215071,-2.321429 0.0493,-2.723214 1.428572,2.721993 c 1.394753,2.657556 1.44231,2.722023 2.008928,2.723215 l 0.580357,0.0012 V 20.976348 17.672777 H 89.422339 88.98095 l -0.04968,2.444668 -0.04968,2.444668 -1.270992,-2.400025 -1.270993,-2.400025 -0.737936,-0.05491 -0.737936,-0.05491 v 3.313839 3.313839 h 0.441777 0.441779 z m 12.638581,1.585566 v -1.137649 l 1.060741,-0.120009 c 0.812387,-0.09191 1.185437,-0.236491 1.593317,-0.617511 0.99027,-0.92505 0.90031,-2.308682 -0.20321,-3.125426 -0.40326,-0.298464 -0.76918,-0.367986 -1.964284,-0.373202 l -1.468707,-0.0064 -0.04913,3.029157 c -0.02702,1.666036 -0.0095,3.132554 0.03904,3.258928 0.0485,0.126375 0.291586,0.229772 0.540206,0.229772 0.43636,0 0.452032,-0.03944 0.452032,-1.137649 z m 6.753488,0.735863 c -0.0367,-0.258207 -0.20064,-0.422177 -0.45885,-0.458848 -0.39388,-0.05594 -0.40178,-0.104192 -0.40178,-2.455358 v -2.398294 h 0.45885 c 0.3737,0 0.44826,-0.07456 0.40178,-0.401786 -0.0524,-0.368688 -0.16371,-0.406107 -1.3517,-0.454251 -1.2816,-0.05194 -1.29465,-0.04789 -1.29465,0.401785 0,0.335204 0.0936,0.454252 0.35715,0.454252 0.3395,0 0.35714,0.119048 0.35714,2.410714 0,2.291667 -0.0176,2.410715 -0.35714,2.410715 -0.26191,0 -0.35715,0.119047 -0.35715,0.446428 0,0.436873 0.0289,0.446429 1.35171,0.446429 1.29963,0 1.34951,-0.01548 1.29464,-0.401786 z m 2.35365,-0.848214 v -1.25 h 0.52514 c 0.43318,0 0.7052,0.218876 1.55347,1.25 l 1.02834,1.25 h 1.08318 1.08319 l 0.31711,-0.892857 0.31712,-0.892858 h 1.31759 1.31759 l 0.29656,0.892858 c 0.26566,0.799838 0.35088,0.892857 0.81792,0.892857 0.28675,0 0.52137,-0.03561 0.52137,-0.07914 0,-0.07318 -1.95595,-5.511269 -2.23556,-6.215505 -0.083,-0.209048 -0.31834,-0.3125 -0.71088,-0.3125 h -0.58681 l -0.80023,2.1875 c -0.44013,1.203125 -0.94973,2.609375 -1.13244,3.125 -0.18271,0.515625 -0.37942,0.9375 -0.43714,0.9375 -0.1203,0 -2.13266,-2.249459 -2.13266,-2.383925 0,-0.04873 0.24107,-0.329674 0.53572,-0.624317 0.43299,-0.432997 0.53571,-0.686456 0.53571,-1.321894 0,-1.328827 -0.97542,-1.919864 -3.16846,-1.919864 h -1.11725 v 3.303571 3.303572 h 0.53571 0.53571 z m 13.03572,-1.607143 v -2.857143 h 1.16071 c 1.11905,0 1.16072,-0.01602 1.16072,-0.446429 v -0.446428 h -2.76786 -2.76786 v 0.446428 c 0,0.426588 0.0476,0.446429 1.07143,0.446429 h 1.07143 v 2.857143 2.857143 h 0.53571 0.53572 z m 5.35714,2.410714 c 0,-0.327381 -0.0952,-0.446428 -0.35714,-0.446428 -0.33951,0 -0.35714,-0.119048 -0.35714,-2.410715 0,-2.291666 0.0176,-2.410714 0.35714,-2.410714 0.2619,0 0.35714,-0.119048 0.35714,-0.446429 0,-0.436507 -0.0298,-0.446428 -1.33928,-0.446428 -1.30953,0 -1.33929,0.0099 -1.33929,0.446428 0,0.357143 0.0893,0.446429 0.44643,0.446429 h 0.44643 v 2.398294 c 0,2.351166 -0.008,2.399416 -0.40179,2.455358 -0.25821,0.03667 -0.42218,0.200641 -0.45885,0.458848 -0.0549,0.386306 -0.005,0.401786 1.29465,0.401786 1.32277,0 1.3517,-0.0096 1.3517,-0.446429 z m 9.32559,-2.136834 0.0494,-2.583262 1.33929,2.53862 c 1.27101,2.409205 1.36887,2.541472 1.91964,2.594576 l 0.58036,0.05596 v -3.314886 -3.314885 h -0.44139 -0.44139 l -0.0497,2.41254 -0.0497,2.41254 -1.25,-2.367897 -1.25,-2.367897 -0.75892,-0.05491 -0.75893,-0.05491 v 3.313839 3.313839 h 0.53094 0.53094 z"
       id="path4733"
       inkscape:connector-curvature="0"
       transform="matrix(0.26458333,0,0,0.26458333,66.355611,54.698363)" />
    <path
       style="fill:#ffffff;stroke-width:0.17857143"
       d="M 43.078009,7.5835122 V 6.6013694 h 56.06678 56.066781 l 1.29929,0.5210478 c 0.71461,0.2865763 1.74126,0.7239115 2.28143,0.9718561 l 0.98215,0.4508082 -58.34822,0.010288 -58.348211,0.010286 z"
       id="path4735"
       inkscape:connector-curvature="0"
       transform="matrix(0.26458333,0,0,0.26458333,66.355611,54.698363)" />
    <path
       style="fill:#ffffff;stroke-width:0.17857143"
       d="M 169.69064,14.04224 C 167.7724,11.823712 164.89086,9.732776 161.0471,7.7701973 l -2.28918,-1.1688279 h 2.94279 2.9428 l 1.13042,1.5558814 c 1.14475,1.5756016 3.40503,3.9947102 4.32369,4.6275262 0.45603,0.314133 0.49672,0.42924 0.44643,1.263054 l -0.0553,0.917424 z"
       id="path4737"
       inkscape:connector-curvature="0"
       transform="matrix(0.26458333,0,0,0.26458333,66.355611,54.698363)" />
    <path
       style="fill:#ffffff;stroke-width:0.17857143"
       d="m 160.79842,35.461172 c 3.95831,-1.999055 7.28049,-4.396065 8.97375,-6.474714 l 0.80584,-0.989256 -6.8e-4,0.953869 c -6.7e-4,0.942727 -0.0119,0.962563 -0.96426,1.698026 -1.12153,0.866137 -3.01815,3.023753 -4.1727,4.746915 l -0.80762,1.205357 h -3.04601 -3.04602 z"
       id="path4739"
       inkscape:connector-curvature="0"
       transform="matrix(0.26458333,0,0,0.26458333,66.355611,54.698363)" />
    <path
       style="fill:#ffffff;stroke-width:0.17857143"
       d="m 43.078009,35.529941 v -1.071429 l 58.258931,0.0086 58.25893,0.0086 -1.01742,0.525249 c -0.55957,0.288886 -1.6264,0.767164 -2.37072,1.062839 l -1.3533,0.537591 H 98.966218 43.078009 Z"
       id="path4741"
       inkscape:connector-curvature="0"
       transform="matrix(0.26458333,0,0,0.26458333,66.355611,54.698363)" />
    <path
       style="fill:#ffffff;stroke-width:0.17857143"
       d="M 43.078009,21.512084 V 9.8156551 h 0.892857 0.892858 V 21.512084 33.208512 h -0.892858 -0.892857 z"
       id="path4743"
       inkscape:connector-curvature="0"
       transform="matrix(0.26458333,0,0,0.26458333,66.355611,54.698363)" />
    <path
       style="fill:#ffffff;stroke-width:0.17857143"
       d="m 98.435152,19.815655 v -1.296447 l 0.810818,0.09139 c 1.36601,0.153969 1.90992,1.029503 1.19106,1.917256 -0.21796,0.269169 -0.586959,0.424765 -1.16071,0.489436 l -0.841168,0.09481 z"
       id="path4745"
       inkscape:connector-curvature="0"
       transform="matrix(0.26458333,0,0,0.26458333,66.355611,54.698363)" />
    <path
       style="fill:#ffffff;stroke-width:0.17857143"
       d="m 107.54229,19.703146 v -1.183938 l 0.80348,0.09056 c 1.01943,0.114905 1.33938,0.384439 1.33938,1.128338 0,0.737769 -0.52549,1.148975 -1.4683,1.148975 h -0.67456 z"
       id="path4747"
       inkscape:connector-curvature="0"
       transform="matrix(0.26458333,0,0,0.26458333,66.355611,54.698363)" />
    <path
       style="fill:#ffffff;stroke-width:0.17857143"
       d="m 113.79229,21.533344 c 0,-0.10252 0.91483,-2.512932 0.97771,-2.5761 0.03,-0.03016 0.25877,0.552427 0.50832,1.294643 l 0.45372,1.349482 h -0.96987 c -0.53343,0 -0.96988,-0.03061 -0.96988,-0.06802 z"
       id="path4749"
       inkscape:connector-curvature="0"
       transform="matrix(0.26458333,0,0,0.26458333,66.355611,54.698363)" />
    <path
       style="fill:#ffffff;stroke-width:0.17857143"
       d="m 129.21874,23.398958 c -1.38067,-0.588298 -1.68739,-3.231454 -0.51144,-4.407402 0.64091,-0.640904 1.90116,-0.601498 2.58344,0.08078 0.91679,0.916792 0.88426,3.044468 -0.0601,3.931662 -0.47556,0.446765 -1.44407,0.636897 -2.01188,0.394958 z"
       id="path4751"
       inkscape:connector-curvature="0"
       transform="matrix(0.26458333,0,0,0.26458333,66.355611,54.698363)" />
  </g>
</svg>
