<?xml version="1.0" encoding="UTF-8" standalone="no"?>
<!-- Created with Inkscape (http://www.inkscape.org/) -->

<svg
   xmlns:dc="http://purl.org/dc/elements/1.1/"
   xmlns:cc="http://creativecommons.org/ns#"
   xmlns:rdf="http://www.w3.org/1999/02/22-rdf-syntax-ns#"
   xmlns:svg="http://www.w3.org/2000/svg"
   xmlns="http://www.w3.org/2000/svg"
   xmlns:sodipodi="http://sodipodi.sourceforge.net/DTD/sodipodi-0.dtd"
   xmlns:inkscape="http://www.inkscape.org/namespaces/inkscape"
   width="45.931667mm"
   height="13.974764mm"
   viewBox="0 0 45.931667 13.974764"
   version="1.1"
   id="svg3868"
   inkscape:version="0.92.4 (5da689c313, 2019-01-14)"
   sodipodi:docname="ProficiencyBonus.svg">
  <defs
     id="defs3862" />
  <sodipodi:namedview
     id="base"
     pagecolor="#ffffff"
     bordercolor="#666666"
     borderopacity="1.0"
     inkscape:pageopacity="0.0"
     inkscape:pageshadow="2"
     inkscape:zoom="3.959798"
     inkscape:cx="117.10631"
     inkscape:cy="4.6564132"
     inkscape:document-units="mm"
     inkscape:current-layer="layer1"
     showgrid="false"
     inkscape:window-width="1366"
     inkscape:window-height="705"
     inkscape:window-x="-8"
     inkscape:window-y="-8"
     inkscape:window-maximized="1"
     inkscape:pagecheckerboard="true" />
  <metadata
     id="metadata3865">
    <rdf:RDF>
      <cc:Work
         rdf:about="">
        <dc:format>image/svg+xml</dc:format>
        <dc:type
           rdf:resource="http://purl.org/dc/dcmitype/StillImage" />
        <dc:title></dc:title>
      </cc:Work>
    </rdf:RDF>
  </metadata>
  <g
     inkscape:label="Layer 1"
     inkscape:groupmode="layer"
     id="layer1"
     transform="translate(-17.099643,-132.01857)">
    <g
       transform="matrix(0.26458333,0,0,0.26458333,-20.391815,67.322788)"
       style="display:block"
       id="g3849">
      <path
         d="m 165.2,244.6 c -0.3,0.1 -0.4,0.4 -0.3,0.7 0,0.1 0.2,0.5 0.5,1.1 -3.5,0.1 -6.8,1 -9.8,2.4 2.9,-0.3 7.4,-0.1 11.6,0.7 0.1,0 0.2,0 0.2,0 0.2,0.3 0.5,0.7 0.7,1 -19.4,-4.6 -24.5,5.2 -24.5,5.2 1.7,-1.7 3.7,-3 5.8,-3.8 0.7,-0.2 1.3,-0.4 2,-0.5 -5.9,4.5 -9.7,11.6 -9.7,19.5 0,8 3.8,15.1 9.7,19.6 -0.7,-0.2 -1.3,-0.3 -2,-0.5 -2.1,-0.9 -4.1,-2.1 -5.8,-3.9 0,0 5.1,9.9 24.5,5.3 -0.2,0.3 -0.5,0.6 -0.7,0.9 0,0 -0.1,0 -0.2,0 -4.2,0.9 -8.7,1.1 -11.6,0.8 3,1.4 6.3,2.3 9.8,2.4 -0.3,0.6 -0.5,1 -0.5,1.1 -0.1,0.3 0,0.6 0.3,0.7 0.3,0.1 0.7,0 0.8,-0.3 0,0 4.6,-8.7 10.6,-10.4 1.7,-0.5 3.5,-1 5.4,-1 -3.1,3.3 -7.2,5.7 -11.9,6.5 -1.3,1.3 -1.8,2.4 -2,3.4 3.5,-0.3 6.7,-1.3 9.6,-2.8 l 3.3,-2.1 c 0.4,-0.3 0.8,-0.6 1.2,-1 h 126.3 l 0.3,-0.5 c 0.9,-1.5 3.7,-5.5 5.9,-6.6 l 0.6,-0.2 v -22.7 l -0.6,-0.3 c -2.2,-1 -5,-5.1 -5.9,-6.5 l -0.3,-0.5 H 182.2 c -0.4,-0.4 -0.8,-0.7 -1.2,-1 l -3.3,-2.1 c -2.9,-1.5 -6.1,-2.5 -9.6,-2.8 0.2,1 0.7,2.1 2,3.4 4.7,0.8 8.8,3.2 11.9,6.5 -1.9,-0.1 -3.7,-0.5 -5.4,-1 -6,-1.7 -10.6,-10.4 -10.6,-10.4 -0.1,-0.3 -0.5,-0.5 -0.8,-0.3 m 19.2,42.9 c 0.5,-0.5 0.9,-1.1 1.4,-1.6 1.8,0.3 3.8,0.8 5.8,1.6 z M 313.2,281 c -2.5,1.5 -5,5.2 -5.9,6.5 h -6.5 c 3.9,-1.7 9.6,-4.7 12.4,-8.8 z m -5.9,-26.6 c 0.9,1.3 3.4,5 5.9,6.5 v 2.3 c -2.8,-4.1 -8.5,-7.1 -12.4,-8.8 z m -122.9,0 h 7.2 c -2,0.8 -4,1.3 -5.8,1.6 -0.5,-0.6 -0.9,-1.1 -1.4,-1.6 m 10,0 v 0 h 103.2 c 3.7,1.3 13.3,5.4 15.6,11.2 v 10.6 c -2.3,5.9 -11.9,10 -15.6,11.3 H 194.4 c -2.7,-1.3 -5.4,-2.2 -7.9,-2.7 2.8,-3.9 4.4,-8.7 4.4,-13.9 0,-5.1 -1.6,-9.9 -4.4,-13.8 2.5,-0.5 5.2,-1.4 7.9,-2.7 M 170.6,253 c 1.5,1.3 3.4,2.5 5.5,3.3 2.2,0.9 4.5,1.2 6.9,1.2 3,3.6 4.8,8.3 4.8,13.4 0,5.2 -1.8,9.8 -4.8,13.5 -2.4,0 -4.7,0.3 -6.9,1.1 -2.1,0.9 -4,2.1 -5.5,3.4 -2.1,0.7 -6.5,2 -11.9,2.2 -8.2,-3.1 -14,-10.9 -14,-20.2 0,-9.2 5.8,-17 14,-20.1 5.4,0.2 9.8,1.5 11.9,2.2 z"
         class="g4_1"
         id="path858"
         inkscape:connector-curvature="0"
         style="fill:#231f20" />
      <text
         x="207"
         y="274"
         class="s8_1"
         id="text1372"
         style="font-size:8.77999973px;font-family:ScalaSansOffc-Bold_c;white-space:pre;fill:#231f20">PROFICIENCY BONUS</text>
    </g>
    <path
       style="fill:#ffffff;stroke-width:0.25253814"
       d="M 14.862594,45.44507 C 12.234155,44.014747 11.001628,43.089912 9.164993,41.169834 6.3722336,38.250195 4.9567677,35.769478 3.8232531,31.808008 3.0886321,29.240615 3.0248984,23.898823 3.6992126,21.411643 4.7687973,17.466524 6.1983621,14.880076 8.9129427,11.978672 10.904106,9.8504728 12.657816,8.531789 15.246114,7.216511 c 1.523796,-0.7743372 1.66927,-0.7995365 3.759265,-0.6511845 4.905445,0.3481984 8.967237,1.5047515 11.61393,3.3069464 2.855474,1.9443581 6.471371,3.1598331 9.43238,3.1706711 1.116199,0.0041 1.25143,0.07765 1.981127,1.077672 1.210592,1.659072 2.433889,4.243397 3.163221,6.682583 0.894445,2.991383 0.952519,7.723076 0.132626,10.805683 -0.592412,2.227328 -2.109004,5.491257 -3.297401,7.096493 -0.766334,1.035131 -0.767574,1.035649 -2.863974,1.196791 -3.429099,0.263581 -5.873878,1.17658 -8.906593,3.326152 -2.198703,1.558428 -6.781479,2.788844 -11.357491,3.049337 -2.258347,0.12856 -2.284118,0.123249 -4.04061,-0.832585 z"
       id="path4769"
       inkscape:connector-curvature="0"
       transform="matrix(0.26458333,0,0,0.26458333,17.099643,132.01857)" />
    <path
       style="fill:#ffffff;stroke-width:0.25253814"
       d="M 36.253006,11.021428 C 33.430218,10.281903 31.546318,9.1509156 29.194133,6.7836759 28.048241,5.6304505 27.110693,4.5579991 27.110693,4.4004506 c 0,-0.1575485 0.312516,0.00103 0.69448,0.3524003 0.404943,0.3725069 1.412941,0.8271475 2.417772,1.0904948 3.057767,0.8013838 7.388432,3.252805 9.113157,5.1586043 0.478522,0.528762 0.477527,0.530114 -0.380111,0.516245 -0.472939,-0.0076 -1.689282,-0.231193 -2.702985,-0.496767 z"
       id="path4771"
       inkscape:connector-curvature="0"
       transform="matrix(0.26458333,0,0,0.26458333,17.099643,132.01857)" />
    <path
       style="fill:#ffffff;stroke-width:0.25253814"
       d="m 27.110693,48.463249 c 0,-0.60011 4.189558,-4.492002 5.690975,-5.286633 1.819242,-0.962841 5.101388,-1.907907 6.243408,-1.797736 l 0.818793,0.07899 -1.767767,1.466989 c -2.083608,1.729092 -5.354148,3.435143 -7.828682,4.08377 -1.04334,0.273481 -2.052363,0.725169 -2.462247,1.102221 -0.381964,0.351369 -0.69448,0.509949 -0.69448,0.352399 z"
       id="path4773"
       inkscape:connector-curvature="0"
       transform="matrix(0.26458333,0,0,0.26458333,17.099643,132.01857)" />
    <path
       style="fill:#ffffff;stroke-width:0.25253814"
       d="m 50.828021,42.073701 c -0.914515,-0.396894 -2.586246,-0.988235 -3.714956,-1.314095 l -2.052202,-0.592475 0.819126,-1.374936 c 2.396039,-4.021849 3.315083,-7.505322 3.294339,-12.486614 -0.01234,-2.96368 -0.119467,-3.928523 -0.662311,-5.965224 -0.582685,-2.186184 -2.125129,-5.736283 -3.092134,-7.116877 -0.355995,-0.508253 -0.303136,-0.543046 1.706375,-1.123194 1.140562,-0.329282 2.868842,-0.932756 3.840621,-1.341054 l 1.766871,-0.742361 h 51.60676 51.60676 l 1.93611,0.773017 c 5.66256,2.260858 10.70773,5.767099 12.64712,8.789375 l 0.77947,1.214697 v 5.480656 c 0,5.100146 -0.0375,5.554132 -0.53991,6.538962 -1.52546,2.990162 -7.13183,6.986244 -13.14022,9.36603 l -1.68457,0.667221 -51.72725,-0.02575 -51.727244,-0.02575 z M 67.011718,28.452155 v -1.262691 h 0.99607 c 1.397222,0 2.387941,-0.879331 2.387941,-2.119459 0,-1.403639 -0.700914,-1.946381 -2.723266,-2.108715 l -1.670897,-0.134124 v 3.275481 c 0,1.801515 0.07576,3.351243 0.168359,3.44384 0.0926,0.0926 0.319881,0.168359 0.505076,0.168359 0.235702,0 0.336717,-0.378808 0.336717,-1.262691 z m 5.303301,-0.126269 c 0,-1.206864 0.06431,-1.38896 0.490523,-1.38896 0.280863,0 1.003059,0.593669 1.689664,1.38896 1.097157,1.270834 1.769282,1.64846 2.188281,1.229462 0.08772,-0.08772 -0.343714,-0.748513 -0.958751,-1.468421 l -1.118249,-1.308924 0.537853,-0.537854 c 0.692935,-0.692934 0.702506,-1.944551 0.02008,-2.626969 -0.379163,-0.379164 -0.965057,-0.553671 -2.188664,-0.65189 L 71.30487,22.827166 v 3.275481 c 0,1.801515 0.07576,3.351243 0.168359,3.44384 0.0926,0.0926 0.31988,0.168359 0.505077,0.168359 0.239782,0 0.336716,-0.399852 0.336716,-1.38896 z m 9.352177,1.005878 c 2.08353,-1.077436 1.978507,-5.379532 -0.151091,-6.189205 -2.946297,-1.12018 -5.245336,1.554808 -4.117329,4.790611 0.538358,1.544338 2.649138,2.235957 4.26842,1.398594 z m 3.728723,-1.324087 0.07518,-1.575827 h 1.395427 c 1.192627,0 1.383217,-0.06423 1.311411,-0.441942 -0.06494,-0.341563 -0.384616,-0.459279 -1.407479,-0.518274 -1.279674,-0.07381 -1.323459,-0.10096 -1.323459,-0.820749 V 23.906469 H 87.0885 c 1.473138,0 1.641498,-0.0518 1.641498,-0.505077 0,-0.465462 -0.16836,-0.505076 -2.146574,-0.505076 H 84.43685 v 3.427782 c 0,3.128267 0.03861,3.420426 0.441942,3.343594 0.35452,-0.06753 0.456813,-0.395907 0.517127,-1.660015 z m 6.364537,1.202092 c 0,-0.280597 -0.16836,-0.505076 -0.378808,-0.505076 -0.310134,0 -0.378807,-0.434927 -0.378807,-2.399112 0,-1.964186 0.06867,-2.399112 0.378807,-2.399112 0.210448,0 0.378808,-0.224479 0.378808,-0.505077 0,-0.437732 -0.16836,-0.505076 -1.262691,-0.505076 -1.094331,0 -1.262691,0.06734 -1.262691,0.505076 0,0.280598 0.16836,0.505077 0.378808,0.505077 0.310134,0 0.378807,0.434926 0.378807,2.399112 0,1.964185 -0.06867,2.399112 -0.378807,2.399112 -0.210448,0 -0.378808,0.224479 -0.378808,0.505076 0,0.437733 0.16836,0.505077 1.262691,0.505077 1.094331,0 1.262691,-0.06734 1.262691,-0.505077 z m 5.618973,0.23926 c 0.765479,-0.212584 0.947018,-0.381752 0.947018,-0.882475 0,-0.729463 0.01068,-0.726644 -0.91815,-0.242224 -1.580215,0.824139 -3.100004,0.201268 -3.506558,-1.437127 -0.216044,-0.870651 0.285805,-2.405283 0.892796,-2.730135 0.688906,-0.368691 2.100799,-0.304973 2.662896,0.120176 0.689426,0.521457 0.869016,0.476033 0.869016,-0.219802 0,-0.453384 -0.200917,-0.676681 -0.795298,-0.883883 -2.62076,-0.913602 -4.760541,0.486611 -4.760541,3.115164 0,2.669008 1.83848,3.929668 4.608821,3.160306 z m 4.230011,-0.23926 c 0,-0.280597 -0.16836,-0.505076 -0.3788,-0.505076 -0.31014,0 -0.37881,-0.434927 -0.37881,-2.399112 0,-1.964186 0.0687,-2.399112 0.37881,-2.399112 0.21044,0 0.3788,-0.224479 0.3788,-0.505077 0,-0.437732 -0.16836,-0.505076 -1.26269,-0.505076 -1.094329,0 -1.262688,0.06734 -1.262688,0.505076 0,0.280598 0.168359,0.505077 0.378807,0.505077 0.310134,0 0.378807,0.434926 0.378807,2.399112 0,1.964185 -0.06867,2.399112 -0.378807,2.399112 -0.210448,0 -0.378807,0.224479 -0.378807,0.505076 0,0.437733 0.168359,0.505077 1.262688,0.505077 1.09433,0 1.26269,-0.06734 1.26269,-0.505077 z m 5.76097,-0.06313 c 0.0735,-0.38464 -0.13079,-0.441942 -1.57557,-0.441942 h -1.66002 V 27.568272 26.43185 h 1.6415 c 1.47314,0 1.6415,-0.0518 1.6415,-0.505076 0,-0.453274 -0.16836,-0.505077 -1.6415,-0.505077 h -1.6415 v -0.757614 -0.757614 h 1.6415 c 1.47314,0 1.6415,-0.0518 1.6415,-0.505077 0,-0.467663 -0.16836,-0.505076 -2.27284,-0.505076 h -2.27285 v 3.240906 c 0,1.782499 0.08,3.320889 0.17774,3.418647 0.0978,0.09776 1.09087,0.145108 2.20692,0.105224 1.69751,-0.06066 2.04298,-0.144751 2.11362,-0.514458 z m 2.12231,-2.146574 0.0717,-2.714785 1.38896,2.65165 c 1.06563,2.034371 1.52124,2.670436 1.95717,2.732349 0.56544,0.08031 0.56822,0.06386 0.56822,-3.364647 0,-3.145111 -0.0385,-3.437983 -0.44195,-3.360853 -0.37495,0.07169 -0.45313,0.427876 -0.51576,2.349782 l -0.0738,2.265287 -1.21425,-2.268129 c -1.0975,-2.050054 -1.29072,-2.275739 -2.00962,-2.347265 l -0.79538,-0.07913 v 3.256907 c 0,3.271114 0.0597,3.593624 0.66489,3.593624 0.24441,0 0.34647,-0.692934 0.39986,-2.714785 z m 9.85753,2.448968 c 0.76548,-0.212584 0.94701,-0.381752 0.94701,-0.882475 0,-0.729463 0.0107,-0.726644 -0.91815,-0.242224 -1.58021,0.824139 -3.1,0.201268 -3.50655,-1.437127 -0.21605,-0.870651 0.2858,-2.405283 0.89279,-2.730135 0.68891,-0.368691 2.1008,-0.304973 2.6629,0.120176 0.68942,0.521457 0.86901,0.476033 0.86901,-0.219802 0,-0.453384 -0.20091,-0.676681 -0.79529,-0.883883 -2.62076,-0.913602 -4.76054,0.486611 -4.76054,3.115164 0,2.669008 1.83848,3.929668 4.60882,3.160306 z m 4.48255,-1.504339 c 0.10221,-1.326835 0.30669,-1.928731 1.07329,-3.159318 1.08311,-1.738681 1.12129,-1.889056 0.47958,-1.889056 -0.29465,0 -0.79148,0.522007 -1.34407,1.412169 l -0.87663,1.41217 -0.85587,-1.41217 c -0.5268,-0.86922 -1.02954,-1.412169 -1.30758,-1.412169 -0.66582,0 -0.56305,0.400482 0.55844,2.176229 0.8538,1.351899 1.01015,1.808889 1.01015,2.952523 0,1.455014 0.13418,1.749004 0.7453,1.632985 0.28897,-0.05486 0.4241,-0.502365 0.51739,-1.713363 z m 10.28188,0.96173 c 0.94299,-0.885892 0.59862,-2.979646 -0.49007,-2.979646 -0.1505,0 -0.0856,-0.207822 0.1443,-0.461827 0.44855,-0.495643 0.53578,-1.234386 0.20693,-1.752496 -0.28279,-0.445534 -1.70566,-0.816135 -3.13344,-0.816135 h -1.20122 v 3.240906 c 0,1.782499 0.0852,3.328935 0.1894,3.436526 0.10417,0.107591 0.98083,0.123476 1.94812,0.0353 1.30026,-0.118528 1.9092,-0.301689 2.33598,-0.702628 z m 5.85905,0.440743 c 2.0195,-1.044324 2.01921,-5.03899 -5.1e-4,-6.083393 -1.14709,-0.593186 -2.86594,-0.37227 -3.71578,0.477575 -0.50991,0.50991 -0.66957,0.959361 -0.74992,2.11111 -0.0562,0.804803 0.0186,1.775742 0.16618,2.157642 0.55606,1.439236 2.77071,2.127876 4.29996,1.337066 z m 3.56068,-2.473371 0.004,-2.841054 1.48054,2.777919 c 1.24668,2.33915 1.57519,2.77792 2.0798,2.77792 h 0.59926 v -3.279538 c 0,-2.895594 -0.0506,-3.28929 -0.4326,-3.362847 -0.38089,-0.07335 -0.44125,0.212962 -0.50507,2.395654 l -0.0725,2.478964 -1.26269,-2.399113 c -1.1667,-2.216723 -1.32029,-2.399112 -2.02031,-2.399112 h -0.75761 l -0.0716,3.015756 c -0.0777,3.275036 -0.0156,3.676505 0.56872,3.676505 0.32415,0 0.38732,-0.459738 0.39037,-2.841054 z m 9.42681,2.560668 c 0.92992,-0.423697 1.17615,-1.266293 1.17615,-4.024645 0,-2.34514 -0.0338,-2.513499 -0.50507,-2.513499 -0.47116,0 -0.50508,0.168359 -0.50508,2.507343 0,2.790178 -0.23507,3.301034 -1.51894,3.301034 -1.18007,0 -1.51152,-0.759907 -1.51152,-3.465456 0,-2.207647 -0.0305,-2.342921 -0.52742,-2.342921 -0.50829,0 -0.52432,0.101529 -0.44194,2.800299 0.0827,2.708095 0.10881,2.820351 0.79404,3.409265 0.77441,0.665555 2.00764,0.798858 3.03978,0.32858 z m 6.35231,-0.08178 c 0.97875,-0.408947 1.35262,-1.320265 0.97971,-2.388084 -0.22364,-0.640402 -0.88511,-0.957599 -2.90815,-1.394555 -0.78625,-0.169821 -1.11054,-0.817002 -0.67336,-1.343779 0.3163,-0.381114 2.07215,-0.349133 3.04462,0.05546 0.34019,0.141531 0.44194,0.05992 0.44194,-0.35448 0,-1.418077 -4.09188,-1.315091 -4.64135,0.116815 -0.53808,1.402211 0.15424,2.286787 2.13409,2.726734 1.56285,0.347282 2.1446,1.006359 1.38571,1.569891 -0.63214,0.469405 -1.84087,0.462242 -2.75852,-0.01635 -0.95016,-0.495539 -0.9649,-0.490342 -0.87179,0.307242 0.056,0.480064 0.26846,0.736524 0.71125,0.85871 1.06429,0.293687 2.24706,0.242116 3.15585,-0.137602 z"
       id="path4775"
       inkscape:connector-curvature="0"
       transform="matrix(0.26458333,0,0,0.26458333,17.099643,132.01857)" />
    <path
       style="fill:#ffffff;stroke-width:0.25253814"
       d="m 137.09337,28.202175 c -0.25055,-0.276855 -0.5061,-1.042343 -0.56906,-1.704632 -0.0917,-0.964058 -0.006,-1.339643 0.43396,-1.896595 0.58406,-0.739844 1.63541,-0.921724 2.53745,-0.43897 1.10951,0.593792 1.11129,3.692457 0.002,4.285882 -0.7751,0.41482 -1.91221,0.29865 -2.40482,-0.245685 z"
       id="path4777"
       inkscape:connector-curvature="0"
       transform="matrix(0.26458333,0,0,0.26458333,17.099643,132.01857)" />
    <path
       style="fill:#ffffff;stroke-width:0.08928572"
       d="m 130.69764,27.579678 v -1.116072 l 1.1384,3.34e-4 c 1.37479,4.03e-4 1.64446,0.109243 1.81413,0.732201 0.16111,0.591503 -0.0247,1.039658 -0.53841,1.298715 -0.34295,0.172941 -0.53862,0.200893 -1.40625,0.200893 h -1.00787 z"
       id="path4779"
       inkscape:connector-curvature="0"
       transform="matrix(0.26458333,0,0,0.26458333,17.099643,132.01857)" />
    <path
       style="fill:#ffffff;stroke-width:0.08928572"
       d="m 130.69764,24.772478 v -0.913524 l 1.02455,0.03 c 0.90313,0.02645 1.04702,0.05252 1.21428,0.219985 0.19356,0.193804 0.24973,0.629463 0.12985,1.007181 -0.10013,0.315456 -0.53875,0.469042 -1.4891,0.521409 l -0.87958,0.04847 z"
       id="path4781"
       inkscape:connector-curvature="0"
       transform="matrix(0.26458333,0,0,0.26458333,17.099643,132.01857)" />
    <path
       style="fill:#ffffff;stroke-width:0.08928572"
       d="m 52.304787,42.7483 c -1.799887,-0.848202 -4.497855,-1.803277 -6.294643,-2.228291 -0.589286,-0.13939 -1.083853,-0.261038 -1.099038,-0.270326 -0.01518,-0.0093 0.173843,-0.316766 0.420062,-0.683281 2.011957,-2.994948 3.390876,-6.888923 3.764855,-10.631699 0.157249,-1.573741 0.06394,-5.079474 -0.171655,-6.449189 -0.580872,-3.377131 -1.890128,-6.694522 -3.689721,-9.349011 -0.239575,-0.353385 -0.312607,-0.525901 -0.233116,-0.550667 0.06367,-0.01984 0.417095,-0.104942 0.785399,-0.189124 1.684796,-0.385092 4.116212,-1.212913 5.909986,-2.012167 l 0.985822,-0.439253 51.752992,0.02255 51.75298,0.02255 1.29465,0.523014 c 1.46204,0.590643 4.52061,2.054699 5.7471,2.750983 4.03489,2.290646 6.9137,4.934515 8.01307,7.359114 l 0.25768,0.568326 v 5.216098 5.216099 l -0.39855,0.790326 c -1.84155,3.651768 -7.21342,7.486598 -14.22352,10.153793 l -1.08631,0.413318 -51.49849,-8.72e-4 -51.498482,-8.72e-4 z m 29.25788,-13.432496 c 0.303887,-0.14777 0.661871,-0.397958 0.79552,-0.555972 1.042186,-1.232178 1.048664,-3.710035 0.0129,-4.934266 -0.552219,-0.6527 -1.730492,-1.019527 -2.720835,-0.847066 -1.422841,0.247777 -2.20608,1.112078 -2.441367,2.694041 -0.17024,1.144606 0.167338,2.482777 0.792914,3.143141 0.808384,0.853338 2.380431,1.074131 3.560868,0.500122 z m 15.384977,0.182406 c 0.220982,-0.04264 0.592633,-0.162165 0.825892,-0.265604 l 0.424108,-0.18807 V 28.513 c 0,-0.292346 -0.02289,-0.531537 -0.05088,-0.531537 -0.02798,0 -0.228435,0.122163 -0.445448,0.271472 -0.551983,0.379774 -1.040155,0.5321 -1.705269,0.5321 -0.962778,0 -1.566141,-0.370939 -1.960613,-1.205357 -0.288189,-0.609601 -0.302268,-1.936533 -0.027,-2.544643 0.394953,-0.872506 0.992763,-1.250446 1.975826,-1.249128 0.670938,9.02e-4 1.258186,0.198279 1.855626,0.623694 0.138264,0.09845 0.277239,0.179005 0.308832,0.179005 0.03159,0 0.04548,-0.248804 0.03086,-0.552898 l -0.02658,-0.552899 -0.535715,-0.22095 c -0.722678,-0.298062 -2.062165,-0.371149 -2.73983,-0.149496 -0.640117,0.209372 -1.161813,0.590025 -1.492149,1.088741 -0.405752,0.612575 -0.500163,1.022792 -0.500163,2.173217 0,0.938049 0.02164,1.073083 0.250369,1.5625 0.658254,1.40846 1.9221,1.926112 3.812131,1.561389 z m 21.964286,0 c 0.22098,-0.04264 0.59263,-0.162165 0.82589,-0.265604 l 0.42411,-0.18807 V 28.513 c 0,-0.292346 -0.0228,-0.531537 -0.0506,-0.531537 -0.0278,0 -0.18617,0.103405 -0.35187,0.229788 -0.4734,0.361081 -1.13653,0.573784 -1.78886,0.573784 -0.92801,0 -1.5305,-0.345485 -1.94631,-1.116072 -0.26739,-0.495523 -0.28421,-2.238939 -0.0263,-2.723214 0.43687,-0.820218 1.01014,-1.161103 1.95054,-1.159842 0.67094,9.02e-4 1.25819,0.198279 1.85563,0.623694 0.13826,0.09845 0.27724,0.179005 0.30883,0.179005 0.0316,0 0.0455,-0.248804 0.0309,-0.552898 l -0.0266,-0.552899 -0.53572,-0.227309 c -0.47341,-0.200873 -0.66032,-0.22743 -1.60714,-0.228352 -0.96129,-9.37e-4 -1.11732,0.02167 -1.51786,0.219884 -0.60768,0.300727 -1.1528,0.885446 -1.39878,1.500415 -0.1726,0.431482 -0.20464,0.677179 -0.20634,1.582231 -0.002,0.989209 0.0172,1.112538 0.24835,1.607143 0.65825,1.40846 1.9221,1.926112 3.81213,1.561389 z m 20.84821,-0.127573 c 1.17616,-0.551742 1.71433,-1.657458 1.63263,-3.354305 -0.0328,-0.681519 -0.0907,-0.960072 -0.29294,-1.410819 -0.48383,-1.078123 -1.41783,-1.653396 -2.68485,-1.653674 -0.88675,-1.78e-4 -1.48945,0.231744 -2.05628,0.79132 -0.54313,0.536172 -0.7934,1.131126 -0.88146,2.095447 -0.22165,2.427009 1.08874,3.95048 3.25612,3.785603 0.33946,-0.02582 0.76566,-0.131076 1.02678,-0.253572 z m 13.12229,0.04979 c 0.48588,-0.214929 0.90296,-0.712812 1.07351,-1.28146 0.16731,-0.557895 0.28385,-3.32186 0.18452,-4.376258 l -0.0652,-0.691964 h -0.43881 -0.43882 v 2.324297 c 0,2.486375 -0.0325,2.706048 -0.45724,3.091826 -0.44269,0.402071 -1.40024,0.470133 -1.96737,0.139841 -0.13042,-0.07595 -0.33091,-0.302427 -0.44555,-0.503279 -0.19981,-0.350102 -0.2103,-0.461068 -0.25395,-2.686613 l -0.0455,-2.321429 -0.43054,-0.02748 -0.43054,-0.02748 0.0288,2.444844 0.0288,2.444845 0.26922,0.526086 c 0.4406,0.860963 1.25018,1.240034 2.45128,1.147773 0.3177,-0.0244 0.73958,-0.116004 0.9375,-0.203556 z m 5.71207,0.120412 c 0.50891,-0.08112 1.16446,-0.439788 1.42277,-0.778445 0.28694,-0.376194 0.45623,-1.010983 0.37918,-1.421742 -0.15399,-0.820792 -0.75026,-1.229344 -2.20418,-1.51025 -0.51267,-0.09905 -1.04398,-0.223522 -1.18069,-0.276603 -0.33005,-0.128152 -0.59965,-0.484147 -0.59965,-0.791815 0,-0.32803 0.37327,-0.760387 0.7693,-0.891091 0.50355,-0.166185 1.50983,-0.06806 2.17713,0.212299 0.31919,0.134108 0.62053,0.252464 0.66964,0.263014 0.16023,0.03442 0.15938,-0.742211 -9.8e-4,-0.919442 -0.42046,-0.464596 -2.72722,-0.596628 -3.48958,-0.199732 -1.00678,0.524143 -1.3746,1.688711 -0.80524,2.549496 0.25634,0.387556 1.01669,0.749803 1.89962,0.90501 1.12523,0.197803 1.43398,0.302799 1.6325,0.555186 0.37214,0.473092 0.13116,1.162146 -0.49841,1.425198 -0.38583,0.161211 -1.40315,0.157215 -1.95828,-0.0077 -0.24217,-0.07194 -0.63255,-0.252744 -0.86751,-0.401785 -0.23497,-0.14904 -0.44591,-0.270983 -0.46875,-0.270983 -0.0803,0 -0.0405,0.906472 0.0469,1.06984 0.11174,0.208799 0.80726,0.442353 1.58653,0.532755 0.59996,0.0696 0.82242,0.06315 1.48975,-0.04322 z m -91.611766,-0.18275 c 0.02981,-0.07768 0.0542,-0.594068 0.0542,-1.147535 v -1.006305 l 0.864288,-0.06075 c 0.52187,-0.03668 1.008258,-0.125142 1.227679,-0.223275 0.761788,-0.3407 1.206349,-1.042789 1.209644,-1.910375 0.0024,-0.645008 -0.148411,-1.013873 -0.563838,-1.378624 -0.489125,-0.429457 -1.059845,-0.560473 -2.441478,-0.560473 h -1.189152 v 3.214286 3.214286 h 0.392233 c 0.2753,0 0.408391,-0.0421 0.446429,-0.141232 z m 5.302251,-1.13109 0.02484,-1.227678 0.600159,0.0039 0.600159,0.0039 1.028161,1.223809 1.028162,1.22381 0.55666,0.02658 c 0.306162,0.01462 0.55666,-0.0086 0.55666,-0.0517 0,-0.04305 -0.5069,-0.669767 -1.126445,-1.392696 -0.619545,-0.722931 -1.111732,-1.323916 -1.09375,-1.335522 0.564495,-0.364356 0.793528,-0.568355 0.944924,-0.841644 0.412473,-0.744567 0.323499,-1.6812 -0.210422,-2.215121 -0.448751,-0.448746 -0.994498,-0.573826 -2.503727,-0.573826 h -1.278438 v 3.219178 3.219177 l 0.424108,-0.02721 0.424107,-0.02721 z m 12.99924,1.071429 c 0.02961,-0.110491 0.05439,-0.793527 0.05506,-1.517857 l 0.0012,-1.316965 1.183035,-0.0012 c 1.506302,-0.0015 1.584822,-0.02202 1.584822,-0.413186 0,-0.418259 -0.202909,-0.478448 -1.612955,-0.478448 h -1.154902 v -0.848214 -0.848214 h 1.607143 1.607142 v -0.401786 -0.401786 h -2.053571 -2.053571 v 3.073055 c 0,1.69018 0.02439,3.136608 0.0542,3.214285 0.03618,0.09428 0.166276,0.141232 0.391372,0.141232 0.27419,0 0.347234,-0.03753 0.391014,-0.200893 z m 6.467916,-0.133929 c -0.0269,-0.325003 -0.03884,-0.335627 -0.407176,-0.362277 l -0.379464,-0.02745 V 26.28504 23.795308 l 0.379464,-0.02746 c 0.368337,-0.02665 0.380277,-0.03727 0.407176,-0.362276 l 0.02771,-0.334822 h -1.249374 c -1.170957,0 -1.25293,0.01121 -1.306049,0.178572 -0.116671,0.3676 0.02531,0.535714 0.452446,0.535714 h 0.395769 v 2.5 2.5 h -0.359058 c -0.293842,0 -0.377058,0.03951 -0.458166,0.21752 -0.207827,0.456132 -0.104253,0.496766 1.26624,0.496766 h 1.258192 z m 9.821429,0 c -0.0269,-0.325003 -0.0388,-0.335627 -0.40718,-0.362277 l -0.37946,-0.02745 V 26.279906 23.78504 h 0.40178 0.40179 v -0.357143 -0.357143 h -1.25539 -1.255389 l 0.02771,0.334822 c 0.0269,0.325002 0.03884,0.335626 0.407176,0.362276 l 0.379464,0.02746 v 2.489732 2.489732 l -0.379464,0.02745 c -0.368337,0.02665 -0.380277,0.03727 -0.407176,0.362277 l -0.02771,0.334822 h 1.260779 1.26078 z m 5.71552,-0.01296 c 0.0174,-0.182308 -0.0182,-0.333015 -0.0893,-0.378096 -0.065,-0.04123 -0.8314,-0.07558 -1.70305,-0.07633 l -1.58482,-0.0014 v -1.160714 -1.160714 h 1.69643 1.69643 v -0.401786 -0.401786 h -1.69643 -1.69643 v -0.846244 -0.846244 l 1.67411,-0.02429 1.6741,-0.02429 0.0275,-0.379465 0.0275,-0.379464 h -2.14799 -2.14799 v 3.215902 3.215902 l 2.12054,-0.02394 2.12053,-0.02394 z m 2.08574,0.325459 c 0.009,-0.01228 0.0392,-1.247768 0.067,-2.745536 l 0.0505,-2.723214 1.36876,2.589286 c 0.75282,1.424107 1.43369,2.661425 1.51305,2.749594 0.1101,0.122332 0.25118,0.154059 0.59552,0.133929 l 0.45124,-0.02638 0.0249,-2.991072 c 0.0137,-1.645089 0.002,-3.083818 -0.0253,-3.197175 -0.043,-0.176224 -0.0984,-0.202111 -0.38208,-0.178571 l -0.33181,0.02753 -0.0446,2.477482 -0.0446,2.477483 -1.11608,-2.112511 c -0.61383,-1.161881 -1.22567,-2.286792 -1.35964,-2.499804 l -0.24356,-0.387293 h -0.67161 -0.67161 v 3.214286 3.214286 h 0.40178 c 0.22098,0 0.4092,-0.01004 0.41826,-0.02232 z m 14.26924,-1.450893 0.0446,-1.428571 1.00709,-1.595597 c 1.3617,-2.157428 1.28003,-1.931189 0.69716,-1.931189 h -0.48953 l -0.74129,1.214423 c -0.4077,0.667933 -0.80155,1.291706 -0.87521,1.38616 -0.12585,0.161377 -0.17701,0.100622 -0.84822,-1.007313 -0.98771,-1.630381 -0.95324,-1.59327 -1.47969,-1.59327 -0.24197,0 -0.43995,0.03251 -0.43995,0.07224 0,0.03973 0.50223,0.892756 1.11607,1.895608 l 1.11607,1.823365 v 1.323571 1.32357 l 0.42411,-0.02721 0.42411,-0.02721 z m 9.97727,1.181536 c 0.65907,-0.347067 0.94576,-0.805408 0.98965,-1.582208 0.0475,-0.841137 -0.25103,-1.36673 -0.94585,-1.665117 l -0.29143,-0.125155 0.31248,-0.312481 c 0.36636,-0.36637 0.44159,-0.604022 0.38327,-1.210948 -0.0319,-0.332187 -0.10771,-0.513479 -0.29747,-0.711543 -0.39993,-0.417432 -0.94043,-0.529441 -2.55484,-0.529441 h -1.41236 v 3.221242 3.221243 l 1.6741,-0.02948 c 1.62824,-0.02867 1.68694,-0.03624 2.14245,-0.276112 z m 9.85949,0.269357 c 0.008,-0.01228 0.0386,-1.253129 0.067,-2.757451 l 0.0516,-2.735129 1.25,2.365783 c 0.6875,1.30118 1.35961,2.542033 1.49357,2.757451 l 0.24357,0.391668 h 0.53768 0.53768 l -0.001,-3.013393 c -8.9e-4,-1.657366 -0.026,-3.105908 -0.0563,-3.218982 -0.0465,-0.173759 -0.10504,-0.201406 -0.37785,-0.178571 -0.42866,0.03588 -0.43364,0.06691 -0.44872,2.794874 l -0.0123,2.232143 -1.10614,-2.098214 c -0.60839,-1.154018 -1.2203,-2.279018 -1.35983,-2.5 l -0.25369,-0.401786 -0.69196,-0.02608 -0.69197,-0.02608 v 3.158517 c 0,1.737185 0.0268,3.185304 0.0595,3.218041 0.0549,0.05493 0.72466,0.08774 0.75937,0.0372 z"
       id="path4783"
       inkscape:connector-curvature="0"
       transform="matrix(0.26458333,0,0,0.26458333,17.099643,132.01857)" />
    <path
       style="fill:#ffffff;stroke-width:0.08928572"
       d="m 79.597918,28.749458 c -0.535307,-0.147398 -1.073075,-0.652556 -1.287577,-1.209499 -0.189231,-0.491328 -0.210064,-1.819363 -0.03767,-2.401409 0.143027,-0.482903 0.729638,-1.131988 1.147737,-1.269974 0.405782,-0.13392 1.079558,-0.133163 1.488112,0.0017 0.425276,0.140354 0.984444,0.788517 1.138878,1.32014 0.152064,0.523464 0.152876,1.719784 0.0015,2.241132 -0.293572,1.01122 -1.401439,1.606936 -2.450998,1.317938 z"
       id="path4785"
       inkscape:connector-curvature="0"
       transform="matrix(0.26458333,0,0,0.26458333,17.099643,132.01857)" />
    <path
       style="fill:#ffffff;stroke-width:0.08928572"
       d="m 72.304787,25.035035 v -1.160714 l 0.78125,1.38e-4 c 1.166518,2.07e-4 1.624803,0.297952 1.628148,1.057796 0.0037,0.844887 -0.559029,1.258251 -1.717434,1.261533 l -0.691964,0.002 z"
       id="path4787"
       inkscape:connector-curvature="0"
       transform="matrix(0.26458333,0,0,0.26458333,17.099643,132.01857)" />
    <path
       style="fill:#ffffff;stroke-width:0.08928572"
       d="m 67.036929,25.124321 v -1.25 h 0.667836 c 1.068012,0 1.607509,0.307216 1.65935,0.944916 0.0449,0.552308 -0.01318,0.762201 -0.295936,1.069529 -0.248917,0.270549 -0.372699,0.327237 -0.870535,0.39868 -0.319197,0.04581 -0.710938,0.08409 -0.870536,0.08508 l -0.290179,0.0018 z"
       id="path4789"
       inkscape:connector-curvature="0"
       transform="matrix(0.26458333,0,0,0.26458333,17.099643,132.01857)" />
    <path
       style="fill:#ffffff;stroke-width:0.08928572"
       d=""
       id="path4793"
       inkscape:connector-curvature="0"
       transform="matrix(0.26458333,0,0,0.26458333,17.099643,132.01857)" />
    <path
       style="fill:#ffffff;stroke-width:0.08928572"
       d="M 16.002858,46.119808 C 6.250944,41.867428 1.0921296,31.278987 3.7508082,20.972535 5.4027537,14.568716 10.021643,9.2859352 16.322644,6.5936983 c 0.674271,-0.2880966 1.142475,-0.2991351 3.303571,-0.077885 2.090626,0.2140352 3.868542,0.5340624 6.205358,1.1169727 2.241046,0.5590212 2.98037,0.8363932 3.640358,1.3657515 1.336908,1.0722985 3.126187,2.1037815 4.797141,2.7654525 1.909341,0.756069 3.595578,1.10995 5.674161,1.190803 l 1.343804,0.05227 0.546896,0.723806 c 2.092475,2.76935 3.456121,6.045388 4.016264,9.648724 0.216097,1.390126 0.213646,4.606374 -0.0046,6.070619 -0.518676,3.479468 -1.899036,6.813914 -3.988789,9.635459 l -0.570879,0.77079 H 40.60552 c -1.646677,0 -4.059419,0.382185 -5.608501,0.888401 -1.568252,0.512481 -4.299616,2.064337 -5.622413,3.194438 -0.546073,0.466524 -1.139688,0.679292 -3.676937,1.31791 -2.497513,0.628618 -4.778156,1.002206 -7.356716,1.20509 -0.633247,0.04982 -1.195747,0.09022 -1.25,0.08977 -0.05425,-4.46e-4 -0.543884,-0.19497 -1.08807,-0.432265 z"
       id="path4795"
       inkscape:connector-curvature="0"
       transform="matrix(0.26458333,0,0,0.26458333,17.099643,132.01857)" />
    <path
       style="fill:#ffffff;stroke-width:0.08928572"
       d="M 15.977507,46.112531 C 10.516715,43.750877 6.1924117,39.091019 4.2477118,33.472535 3.4122826,31.058874 3.0814269,29.08031 3.0756781,26.463606 3.0705766,24.141506 3.3021665,22.454529 3.917229,20.333474 5.5425653,14.728468 9.6356216,9.8911522 15.034248,7.1949952 c 1.732067,-0.8650213 1.803329,-0.8837079 3.07411,-0.8061084 2.453751,0.1498369 5.1232,0.5760758 7.678572,1.2260601 2.422205,0.6161122 2.957501,0.8194785 3.731472,1.4176361 2.007522,1.5515 4.372546,2.750085 6.62567,3.357864 1.243884,0.335537 2.379816,0.501833 3.843859,0.562726 l 1.299216,0.05404 0.546841,0.723734 c 2.094518,2.772054 3.455509,6.041736 4.016209,9.648651 0.216097,1.390126 0.213646,4.606374 -0.0046,6.070619 -0.522945,3.508101 -1.885803,6.796046 -4.000423,9.651167 l -0.539189,0.728005 -1.26398,0.05672 c -2.601986,0.116772 -4.942983,0.666815 -6.792156,1.595892 -1.40106,0.703932 -3.980115,2.387265 -4.198205,2.740142 -0.115891,0.187515 -3.055235,1.019971 -5.201552,1.473139 -1.805624,0.381235 -5.601066,0.861518 -6.768494,0.856499 -0.04911,-1.79e-4 -0.545937,-0.197874 -1.104066,-0.439251 z"
       id="path4797"
       inkscape:connector-curvature="0"
       transform="matrix(0.26458333,0,0,0.26458333,17.099643,132.01857)" />
    <path
       style="fill:#ffffff;stroke-width:0.08928572"
       d="m 43.484,10.689953 -0.648847,-0.7442038 3.37321,0.00677 3.373209,0.00677 -0.892857,0.3093428 c -1.036404,0.359076 -2.919329,0.864068 -3.885077,1.041959 l -0.670791,0.123559 z"
       id="path4799"
       inkscape:connector-curvature="0"
       transform="matrix(0.26458333,0,0,0.26458333,17.099643,132.01857)" />
    <path
       style="fill:#ffffff;stroke-width:0.08928572"
       d="m 42.855382,42.907408 c 0.01637,-0.04073 0.290923,-0.382217 0.610119,-0.758859 l 0.580357,-0.684802 0.446429,0.04307 c 0.911141,0.0879 4.511288,1.080779 5.044643,1.391257 0.07805,0.04543 -1.294181,0.07909 -3.288691,0.08068 -1.88244,0.0015 -3.409226,-0.03061 -3.392857,-0.07134 z"
       id="path4801"
       inkscape:connector-curvature="0"
       transform="matrix(0.26458333,0,0,0.26458333,17.099643,132.01857)" />
    <path
       style="fill:#ffffff;stroke-width:0.08928572"
       d="m 171.05592,18.005662 c -1.39965,-1.800032 -3.73231,-3.732234 -6.53713,-5.414854 -0.91495,-0.548886 -3.84706,-2.067162 -4.89258,-2.533427 -0.16977,-0.075715 0.51796,-0.1009927 2.87281,-0.1055889 l 3.09602,-0.00604 0.60672,0.8705359 c 1.70772,2.450269 3.95968,4.860004 5.18003,5.542945 0.0989,0.05534 0.12004,0.291143 0.10008,1.115935 l -0.0253,1.045767 z"
       id="path4803"
       inkscape:connector-curvature="0"
       transform="matrix(0.26458333,0,0,0.26458333,17.099643,132.01857)" />
    <path
       style="fill:#ffffff;stroke-width:0.08928572"
       d="m 160.16193,42.547388 c 2.95257,-1.3585 5.8217,-3.062862 7.7985,-4.632586 0.88621,-0.703715 2.39864,-2.184512 2.94128,-2.879767 0.24913,-0.319197 0.48594,-0.618527 0.52623,-0.665179 0.0403,-0.04665 0.0733,0.399669 0.0733,0.991823 v 1.076645 l -0.51161,0.339695 c -1.17852,0.782493 -3.30725,3.1306 -4.8142,5.310337 l -0.61169,0.884783 -3.16964,0.0028 -3.16964,0.0028 z"
       id="path4805"
       inkscape:connector-curvature="0"
       transform="matrix(0.26458333,0,0,0.26458333,17.099643,132.01857)" />
  </g>
</svg>
