<?xml version="1.0" encoding="UTF-8" standalone="no"?>
<!-- Created with Inkscape (http://www.inkscape.org/) -->

<svg
   xmlns:dc="http://purl.org/dc/elements/1.1/"
   xmlns:cc="http://creativecommons.org/ns#"
   xmlns:rdf="http://www.w3.org/1999/02/22-rdf-syntax-ns#"
   xmlns:svg="http://www.w3.org/2000/svg"
   xmlns="http://www.w3.org/2000/svg"
   xmlns:sodipodi="http://sodipodi.sourceforge.net/DTD/sodipodi-0.dtd"
   xmlns:inkscape="http://www.inkscape.org/namespaces/inkscape"
   width="46.460835mm"
   height="41.301456mm"
   viewBox="0 0 46.460835 41.301456"
   version="1.1"
   id="svg3949"
   inkscape:version="0.92.4 (5da689c313, 2019-01-14)"
   sodipodi:docname="SavingThrows.svg">
  <defs
     id="defs3943" />
  <sodipodi:namedview
     id="base"
     pagecolor="#ffffff"
     bordercolor="#666666"
     borderopacity="1.0"
     inkscape:pageopacity="0.0"
     inkscape:pageshadow="2"
     inkscape:zoom="1.979899"
     inkscape:cx="128.69851"
     inkscape:cy="40.670849"
     inkscape:document-units="mm"
     inkscape:current-layer="layer1"
     showgrid="false"
     inkscape:window-width="1366"
     inkscape:window-height="705"
     inkscape:window-x="-8"
     inkscape:window-y="-8"
     inkscape:window-maximized="1" />
  <metadata
     id="metadata3946">
    <rdf:RDF>
      <cc:Work
         rdf:about="">
        <dc:format>image/svg+xml</dc:format>
        <dc:type
           rdf:resource="http://purl.org/dc/dcmitype/StillImage" />
        <dc:title></dc:title>
      </cc:Work>
    </rdf:RDF>
  </metadata>
  <g
     inkscape:label="Layer 1"
     inkscape:groupmode="layer"
     id="layer1"
     transform="translate(-75.799346,-102.48022)">
    <path
       style="fill:#231f20;stroke-width:0.26458332"
       inkscape:connector-curvature="0"
       id="path856"
       class="g4_1"
       d="m 121.30768,127.45689 v -7.03792 c 0.13229,-2.06375 0.42333,-7.88458 0.89958,-9.41916 l 0.0529,-0.13229 -0.10584,-0.0529 c -0.0265,0 -0.3175,-0.18521 -0.60854,-0.50271 0.0794,-0.55562 0.21167,-1.08479 0.37042,-1.56104 l 0.0265,-0.0529 -0.39688,-4.57729 -0.18521,-0.0529 c -0.42333,-0.13229 -1.61395,-0.635 -1.61395,-1.32291 v -0.26459 H 78.286429 v 0.26459 c 0,0.68791 -1.137708,1.19062 -1.5875,1.32291 l -0.185208,0.0529 -0.396875,4.57729 v 0.0529 c 0.15875,0.47625 0.291041,0.97896 0.396875,1.56104 -0.3175,0.3175 -0.608542,0.50271 -0.608542,0.50271 l -0.105833,0.0529 0.02646,0.13229 c 0.47625,1.53458 0.79375,7.32896 0.926042,9.41916 v 7.01146 c -0.132292,2.09021 -0.449792,6.29708 -0.926042,7.83167 l -0.02646,0.10583 0.105833,0.0794 c 0,0 0.291042,0.1852 0.608542,0.5027 -0.105834,0.55563 -0.238125,1.0848 -0.396875,1.56105 v 0.0529 l 0.396875,4.55084 0.185208,0.0529 c 0.449792,0.15875 1.5875,0.66146 1.5875,1.32292 v 0.29104 h 41.460211 v -0.29104 c 0,-0.66146 1.16416,-1.16417 1.61395,-1.32292 l 0.18521,-0.0529 0.39688,-4.55084 -0.0265,-0.0529 c -0.15875,-0.47625 -0.29104,-1.00542 -0.37042,-1.56105 0.29104,-0.3175 0.58209,-0.5027 0.60854,-0.5027 l 0.10584,-0.0794 -0.0529,-0.10583 c -0.47625,-1.53459 -0.76729,-5.74146 -0.89958,-7.80521 m -0.635,10.26583 c 0,0.0265 0.0794,0.18521 0.15875,0.42334 0.0529,0.39687 0.0794,1.16416 -0.21167,2.03729 -0.50271,1.42875 -1.69333,2.46062 -3.46604,3.04271 H 80.879345 c -3.809999,-1.24355 -3.783541,-4.18042 -3.677708,-5.05355 0.105834,-0.26458 0.185209,-0.44979 0.185209,-0.47625 0.15875,-0.60854 -0.05292,-1.16416 -0.343959,-1.5875 0.555625,-3.0427 0.264584,-6.93208 0.264584,-7.11729 v -11.72104 c 0,-0.18521 0.291041,-4.07458 -0.264584,-7.14375 0.291042,-0.42333 0.502709,-0.97896 0.343959,-1.61396 0,0 -0.07937,-0.15875 -0.15875,-0.42333 -0.05292,-0.37042 -0.07937,-1.16417 0.211666,-2.01083 0.47625,-1.42875 1.666875,-2.46063 3.439583,-3.04271 h 36.300835 c 3.81,1.24354 3.75708,4.18042 3.65125,5.05354 -0.0794,0.26458 -0.15875,0.44979 -0.18521,0.44979 -0.13229,0.635 0.0794,1.16417 0.37042,1.5875 -0.58209,3.06917 -0.29105,6.95854 -0.26459,7.14375 v 11.69458 c -0.0265,0.18521 -0.3175,4.10105 0.26459,7.17021 -0.29105,0.42334 -0.50271,0.9525 -0.34396,1.5875 m 1.21708,-26.72291 c -0.29104,1.00541 -0.50271,2.8575 -0.66146,4.63021 -0.0265,-1.32292 0,-3.25438 0.23813,-4.94771 0.18521,0.13229 0.3175,0.26458 0.42333,0.3175 m -0.9525,-2.35479 c 0.0265,-0.0529 0.18521,-0.4498 0.37042,-0.9525 l 0.0794,0.92604 c -0.10583,0.34396 -0.21166,0.68791 -0.29104,1.05833 -0.15875,-0.29104 -0.23812,-0.66146 -0.15875,-1.03187 m 0.0794,-4.10105 0.21166,2.27542 c -0.0529,0.21167 -0.10583,0.39688 -0.15875,0.60854 -0.0265,-0.39687 -0.0794,-0.89958 -0.26458,-1.42875 -0.34396,-0.9525 -1.13771,-2.19604 -3.04271,-2.96333 h 1.48167 c 0.18521,0.84667 1.32291,1.32292 1.77271,1.50812 m -42.201045,-1.50812 h 1.481667 c -2.751666,1.11125 -3.254375,3.20146 -3.307291,4.41854 -0.05292,-0.21167 -0.105834,-0.42333 -0.15875,-0.635 l 0.211666,-2.27542 c 0.449792,-0.1852 1.561042,-0.66145 1.772708,-1.50812 m -2.143124,5.58271 0.07937,-0.92604 c 0.15875,0.5027 0.343958,0.89958 0.343958,0.92604 0.105833,0.39687 0,0.74083 -0.132292,1.05833 -0.07937,-0.37042 -0.185208,-0.71437 -0.291041,-1.05833 m -0.105834,2.06375 c 0.264584,1.69333 0.291042,3.62479 0.264584,4.94771 -0.15875,-1.77271 -0.396875,-3.6248 -0.661459,-4.63021 0.07937,-0.0529 0.238125,-0.18521 0.396875,-0.3175 m -0.396875,24.55333 c 0.264584,-0.97896 0.502709,-2.8575 0.661459,-4.60375 0.02646,1.32292 0,3.22792 -0.264584,4.94771 -0.15875,-0.15875 -0.3175,-0.26459 -0.396875,-0.34396 m 0.926042,2.38125 c 0,0.0265 -0.185208,0.44979 -0.343958,0.9525 l -0.07937,-0.9525 c 0.105833,-0.3175 0.211666,-0.68792 0.291041,-1.05833 0.15875,0.3175 0.238125,0.66145 0.132292,1.05833 m -0.05292,4.10104 -0.211666,-2.30187 c 0.05292,-0.18521 0.105833,-0.39688 0.15875,-0.58209 0,0.39688 0.07937,0.87313 0.264583,1.40229 0.3175,0.97896 1.137708,2.2225 3.042708,2.9898 h -1.481667 c -0.211666,-0.84667 -1.322916,-1.34938 -1.772708,-1.50813 m 42.201046,1.50813 h -1.48167 c 2.75167,-1.11125 3.25438,-3.20146 3.28083,-4.41855 0.0794,0.21167 0.1323,0.42334 0.18521,0.60855 l -0.21166,2.30187 c -0.4498,0.15875 -1.5875,0.66146 -1.77271,1.50813 m 2.14312,-5.60917 -0.0794,0.9525 c -0.18521,-0.50271 -0.34396,-0.89958 -0.34396,-0.92604 -0.10583,-0.39688 -0.0265,-0.76729 0.13229,-1.05834 0.0794,0.37042 0.18521,0.71438 0.29104,1.03188 m 0.0794,-2.03729 c -0.23813,-1.71979 -0.26459,-3.62479 -0.23813,-4.94771 0.15875,1.74625 0.37042,3.62479 0.66146,4.60375 -0.10583,0.0794 -0.23812,0.18521 -0.42333,0.34396 z" />
    <path
       style="fill:#ffffff;stroke-width:0.26458332"
       inkscape:connector-curvature="0"
       id="path1086"
       class="g2_1"
       d="m 80.747054,108.32752 c 0.661458,0 1.190625,-0.55563 1.190625,-1.21709 0,-0.66146 -0.529167,-1.19062 -1.190625,-1.19062 -0.661459,0 -1.190625,0.52916 -1.190625,1.19062 0,0.66146 0.529166,1.21709 1.190625,1.21709 z" />
    <path
       style="fill:none;stroke:#231f20;stroke-width:0.20211227;stroke-linecap:butt;stroke-linejoin:miter"
       inkscape:connector-curvature="0"
       id="path1090"
       class="g9_1"
       d="M 84.239554,108.77731 H 90.00747" />
    <text
       style="font-size:2.82839561px;font-family:ScalaSansOffc_b;white-space:pre;fill:#231f20;stroke-width:0.26458332"
       id="text1092"
       class="s1_1"
       dx="0 0.026458334 0.052916668 0.026458334 0.052916668 0.026458334 0.13229166 0.052916668"
       y="107.9571"
       x="91.489136">Strength</text>
    <path
       style="fill:#ffffff;stroke-width:0.26458332"
       inkscape:connector-curvature="0"
       id="path1094"
       class="g2_1"
       d="m 80.747054,113.77793 c 0.661458,0 1.190625,-0.52916 1.190625,-1.19062 0,-0.68792 -0.529167,-1.21709 -1.190625,-1.21709 -0.661459,0 -1.190625,0.52917 -1.190625,1.21709 0,0.66146 0.529166,1.19062 1.190625,1.19062 z" />
    <path
       style="fill:none;stroke:#231f20;stroke-width:0.20211227;stroke-linecap:butt;stroke-linejoin:miter"
       inkscape:connector-curvature="0"
       id="path1098"
       class="g9_1"
       d="M 84.239554,114.22772 H 90.00747" />
    <text
       style="font-size:2.82839561px;font-family:ScalaSansOffc_b;white-space:pre;fill:#231f20;stroke-width:0.26458332"
       id="text1100"
       class="s1_1"
       dx="0 0.079374999 0.079374999 0.13229166 0.026458334 0.052916668 0.052916668 0.052916668 0.13229166"
       y="113.51335"
       x="91.489136">Dexterity</text>
    <path
       style="fill:#ffffff;stroke-width:0.26458332"
       inkscape:connector-curvature="0"
       id="path1102"
       class="g2_1"
       d="m 80.747054,119.22835 c 0.661458,0 1.190625,-0.52917 1.190625,-1.19063 0,-0.66145 -0.529167,-1.21708 -1.190625,-1.21708 -0.661459,0 -1.190625,0.55563 -1.190625,1.21708 0,0.66146 0.529166,1.19063 1.190625,1.19063 z" />
    <path
       style="fill:none;stroke:#231f20;stroke-width:0.20211227;stroke-linecap:butt;stroke-linejoin:miter"
       inkscape:connector-curvature="0"
       id="path1106"
       class="g9_1"
       d="M 84.239554,119.67814 H 90.00747" />
    <text
       style="font-size:2.82839561px;font-family:ScalaSansOffc_b;white-space:pre;fill:#231f20;stroke-width:0.26458332"
       id="text1108"
       class="s1_1"
       dx="0 0.026458334 0.026458334 0.026458334 0.052916668 0.026458334 0.052916668 0.026458334 0.052916668 0.026458334 0.026458334 0.026458334"
       y="118.80502"
       x="91.489136">Constitution</text>
    <path
       style="fill:#ffffff;stroke-width:0.26458332"
       inkscape:connector-curvature="0"
       id="path1110"
       class="g2_1"
       d="m 80.747054,124.67877 c 0.661458,0 1.190625,-0.52917 1.190625,-1.19063 0,-0.66146 -0.529167,-1.19062 -1.190625,-1.19062 -0.661459,0 -1.190625,0.52916 -1.190625,1.19062 0,0.66146 0.529166,1.19063 1.190625,1.19063 z" />
    <path
       style="fill:none;stroke:#231f20;stroke-width:0.20211227;stroke-linecap:butt;stroke-linejoin:miter"
       inkscape:connector-curvature="0"
       id="path1114"
       class="g9_1"
       d="M 84.239554,125.12856 H 90.00747" />
    <text
       style="font-size:2.82839561px;font-family:ScalaSansOffc_b;white-space:pre;fill:#231f20;stroke-width:0.26458332"
       id="text1116"
       class="s1_1"
       dx="0 0.026458334 0.052916668 0.026458334 0.052916668 0.026458334 0.026458334 0.026458334 0.052916668 0.052916668 0.052916668 0.026458334"
       y="124.36127"
       x="91.489136">Intelligence</text>
    <path
       style="fill:#ffffff;stroke-width:0.26458332"
       inkscape:connector-curvature="0"
       id="path1118"
       class="g2_1"
       d="m 80.747054,130.15564 c 0.661458,0 1.190625,-0.55563 1.190625,-1.21708 0,-0.66146 -0.529167,-1.19063 -1.190625,-1.19063 -0.661459,0 -1.190625,0.52917 -1.190625,1.19063 0,0.66145 0.529166,1.21708 1.190625,1.21708 z" />
    <path
       style="fill:none;stroke:#231f20;stroke-width:0.20211227;stroke-linecap:butt;stroke-linejoin:miter"
       inkscape:connector-curvature="0"
       id="path1122"
       class="g9_1"
       d="M 84.239554,130.60543 H 90.00747" />
    <text
       style="font-size:2.82839561px;font-family:ScalaSansOffc_b;white-space:pre;fill:#231f20;stroke-width:0.26458332"
       id="text1124"
       class="s1_1"
       dx="0 0.079374999 0 0.026458334 0.052916668 0.052916668"
       y="129.65294"
       x="91.489136">Wisdom</text>
    <path
       style="fill:#ffffff;stroke-width:0.26458332"
       inkscape:connector-curvature="0"
       id="path1126"
       class="g2_1"
       d="m 80.747054,135.60606 c 0.661458,0 1.190625,-0.52917 1.190625,-1.19063 0,-0.68792 -0.529167,-1.21708 -1.190625,-1.21708 -0.661459,0 -1.190625,0.52916 -1.190625,1.21708 0,0.66146 0.529166,1.19063 1.190625,1.19063 z" />
    <path
       style="fill:none;stroke:#231f20;stroke-width:0.20211227;stroke-linecap:butt;stroke-linejoin:miter"
       inkscape:connector-curvature="0"
       id="path1130"
       class="g9_1"
       d="M 84.239554,136.05585 H 90.00747" />
    <text
       style="font-size:2.82839561px;font-family:ScalaSansOffc_b;white-space:pre;fill:#231f20;stroke-width:0.26458332"
       id="text1132"
       class="s1_1"
       dx="0 0.052916668 0.026458334 0.026458334 0.052916668 0 0.026458334 0.026458334"
       y="135.20918"
       x="91.489136">Charisma</text>
    <text
       style="font-size:2.62731266px;font-family:ScalaSansOffc-Bold_c;white-space:pre;fill:#231f20;stroke-width:0.26458332"
       id="text1386"
       class="s6_1"
       dx="0 0 -0.079374999 0 0 0 0 -0.052916668 0 0 0 -0.026458334 0"
       y="141.55919"
       x="88.843307">SAVING THROWS</text>
  </g>
</svg>
