<?xml version="1.0" encoding="UTF-8" standalone="no"?>
<!-- Created with Inkscape (http://www.inkscape.org/) -->

<svg
   xmlns:dc="http://purl.org/dc/elements/1.1/"
   xmlns:cc="http://creativecommons.org/ns#"
   xmlns:rdf="http://www.w3.org/1999/02/22-rdf-syntax-ns#"
   xmlns:svg="http://www.w3.org/2000/svg"
   xmlns="http://www.w3.org/2000/svg"
   xmlns:sodipodi="http://sodipodi.sourceforge.net/DTD/sodipodi-0.dtd"
   xmlns:inkscape="http://www.inkscape.org/namespaces/inkscape"
   width="49.484684mm"
   height="108.53209mm"
   viewBox="0 0 49.484685 108.53209"
   version="1.1"
   id="svg4331"
   inkscape:version="0.92.4 (5da689c313, 2019-01-14)"
   sodipodi:docname="Skills.svg">
  <defs
     id="defs4325" />
  <sodipodi:namedview
     id="base"
     pagecolor="#ffffff"
     bordercolor="#666666"
     borderopacity="1.0"
     inkscape:pageopacity="0.0"
     inkscape:pageshadow="2"
     inkscape:zoom="1.4"
     inkscape:cx="116.37718"
     inkscape:cy="259.90699"
     inkscape:document-units="mm"
     inkscape:current-layer="layer1"
     showgrid="false"
     inkscape:window-width="1366"
     inkscape:window-height="705"
     inkscape:window-x="-8"
     inkscape:window-y="-8"
     inkscape:window-maximized="1" />
  <metadata
     id="metadata4328">
    <rdf:RDF>
      <cc:Work
         rdf:about="">
        <dc:format>image/svg+xml</dc:format>
        <dc:type
           rdf:resource="http://purl.org/dc/dcmitype/StillImage" />
        <dc:title></dc:title>
      </cc:Work>
    </rdf:RDF>
  </metadata>
  <g
     inkscape:label="Layer 1"
     inkscape:groupmode="layer"
     id="layer1"
     transform="translate(-53.120775,21.093432)">
    <path
       style="fill:#231f20;stroke-width:0.27305755"
       inkscape:connector-curvature="0"
       id="path1154"
       class="g4_1"
       d="M 101.59092,71.087411 V -4.7686301 c 0.14091,-2.06375 0.45089,-6.2706249 0.95814,-7.8316669 l 0.0564,-0.105833 -0.11272,-0.05292 c -0.0282,0 -0.33816,-0.211666 -0.64815,-0.529166 0.0845,-0.555625 0.22544,-1.084792 0.39453,-1.534584 l 0.0282,-0.05292 -0.42271,-4.577292 -0.19726,-0.05292 c -0.45088,-0.132291 -1.718997,-0.661458 -1.718997,-1.322916 v -0.264584 H 55.769725 v 0.264584 c 0,0.661458 -1.211754,1.190625 -1.690819,1.322916 l -0.197262,0.05292 -0.422705,4.577292 v 0.05292 c 0.169082,0.449792 0.309983,0.978959 0.422705,1.534584 -0.338164,0.3175 -0.648148,0.529166 -0.648148,0.529166 l -0.112721,0.05292 0.02818,0.105833 c 0.507246,1.561042 0.84541,5.7414586 0.986312,7.8316669 V 71.087411 c -0.140902,2.090208 -0.479066,6.270625 -0.986312,7.831666 l -0.02818,0.105833 0.112721,0.05292 c 0,0.02646 0.309984,0.211667 0.648148,0.529167 -0.112722,0.555625 -0.253623,1.084791 -0.422705,1.534583 v 0.07937 l 0.422705,4.550833 0.197262,0.05292 c 0.479065,0.15875 1.690819,0.661458 1.690819,1.322917 v 0.291041 H 99.928287 V 87.14762 c 0,-0.661459 1.239933,-1.164167 1.719003,-1.322917 l 0.19726,-0.05292 0.4227,-4.550833 -0.0282,-0.07937 c -0.16908,-0.449792 -0.30998,-0.978958 -0.39452,-1.534583 0.30998,-0.3175 0.61996,-0.502709 0.64814,-0.529167 l 0.11272,-0.05292 -0.0564,-0.105833 c -0.50725,-1.561041 -0.81723,-5.741458 -0.95813,-7.831666 m -0.67633,10.292291 c 0,0 0.0845,0.185208 0.16908,0.423333 0.0564,0.370417 0.0845,1.164167 -0.22544,2.010834 -0.53543,1.42875 -1.80354,2.487083 -3.691622,3.069166 H 58.531395 c -4.057965,-1.243541 -4.029785,-4.180416 -3.917064,-5.053541 0.112722,-0.264584 0.197263,-0.449792 0.197263,-0.47625 0.169082,-0.608542 -0.05636,-1.164167 -0.366345,-1.5875 0.591787,-3.042708 0.281804,-6.958542 0.281804,-7.117292 V -6.3032134 c 0,-0.1852084 0.309983,-4.1010416 -0.281804,-7.1437496 0.309984,-0.423334 0.535427,-0.978959 0.366345,-1.613959 0,0 -0.08454,-0.185208 -0.169082,-0.423333 -0.05636,-0.370417 -0.08455,-1.164167 0.225442,-2.010833 0.507246,-1.42875 1.77536,-2.487084 3.663441,-3.042709 h 38.6634 c 4.057965,1.217084 4.001605,4.153959 3.888885,5.053542 -0.0845,0.264583 -0.16908,0.423333 -0.19726,0.449792 -0.1409,0.635 0.0845,1.164166 0.39452,1.5875 -0.61997,3.069166 -0.30998,6.9585412 -0.2818,7.1172912 V 72.621994 c -0.0282,0.185208 -0.33817,4.101042 0.2818,7.170208 -0.30998,0.423333 -0.53542,0.9525 -0.36634,1.5875 m 1.29629,-93.95354 c -0.30998,1.005416 -0.53542,2.8574996 -0.70451,4.6302079 -0.0282,-1.3229166 0,-3.2543749 0.25363,-4.9741669 0.19726,0.15875 0.33816,0.291042 0.45088,0.343959 m -1.01449,-2.38125 c 0.0282,-0.02646 0.19726,-0.423334 0.39452,-0.926042 l 0.0845,0.926042 c -0.11272,0.343958 -0.22544,0.687916 -0.30998,1.058333 -0.16908,-0.291042 -0.25363,-0.661458 -0.16908,-1.058333 m 0.0845,-4.074584 0.22544,2.275417 c -0.0564,0.211667 -0.11272,0.396875 -0.16908,0.608542 -0.0282,-0.396875 -0.0845,-0.899584 -0.2818,-1.42875 -0.36635,-0.978959 -1.211755,-2.196042 -3.240738,-2.963334 h 1.578097 c 0.197263,0.846667 1.409021,1.322917 1.888081,1.508125 m -44.94761,-1.508125 h 1.578098 c -2.930753,1.11125 -3.466179,3.201459 -3.522539,4.418542 -0.05636,-0.211667 -0.112722,-0.423333 -0.169082,-0.635 l 0.225442,-2.275417 c 0.479066,-0.185208 1.662639,-0.661458 1.888081,-1.508125 m -2.282605,5.582709 0.08455,-0.926042 c 0.169082,0.502708 0.366344,0.899583 0.366344,0.926042 0.112721,0.370416 0,0.740833 -0.140902,1.058333 -0.08455,-0.370417 -0.197262,-0.740833 -0.309983,-1.058333 m -0.112722,2.037291 c 0.281804,1.719792 0.309984,3.6512503 0.281804,4.9741669 -0.169082,-1.7727083 -0.422705,-3.6247919 -0.704509,-4.6302079 0.08454,-0.05292 0.253623,-0.185209 0.422705,-0.343959 m -0.422705,91.810416 c 0.281804,-1.005417 0.535427,-2.8575 0.704509,-4.630208 0.02818,1.322916 0,3.254375 -0.281804,4.974166 -0.169082,-0.15875 -0.338164,-0.264583 -0.422705,-0.343958 m 0.986312,2.38125 c 0,0.02646 -0.197262,0.423333 -0.366344,0.926041 l -0.08454,-0.926041 c 0.112721,-0.3175 0.225441,-0.687917 0.309982,-1.058334 0.169082,0.3175 0.253623,0.661459 0.140902,1.058334 m -0.05636,4.101041 -0.225442,-2.301875 c 0.05636,-0.185208 0.112721,-0.396875 0.169082,-0.608541 0,0.423333 0.08454,0.899583 0.281803,1.42875 0.338164,0.978958 1.211753,2.196041 3.240737,2.989791 H 56.33333 C 56.107889,86.00991 54.924315,85.53366 54.445249,85.37491 m 44.947611,1.508125 h -1.578097 c 2.930757,-1.137708 3.466177,-3.227916 3.494357,-4.418541 0.0845,0.185208 0.1409,0.396875 0.19726,0.608541 l -0.22544,2.301875 c -0.47906,0.15875 -1.690817,0.635 -1.88808,1.508125 m 2.28261,-5.609166 -0.0845,0.926041 c -0.19726,-0.502708 -0.36634,-0.899583 -0.36634,-0.899583 -0.11272,-0.396875 -0.0282,-0.767292 0.1409,-1.084792 0.0845,0.370417 0.19726,0.740834 0.30998,1.058334 m 0.0845,-2.037292 c -0.25363,-1.719791 -0.28181,-3.624791 -0.25363,-4.974166 0.16909,1.772708 0.39453,3.624791 0.70451,4.630208 -0.11272,0.07937 -0.25362,0.185208 -0.45088,0.343958 z" />
    <path
       style="fill:none;stroke:#231f20;stroke-width:0.20211227;stroke-linecap:butt;stroke-linejoin:miter"
       inkscape:connector-curvature="0"
       id="path1160"
       class="g9_1"
       d="m 61.164108,-13.155922 h 5.741458" />
    <text
       style="font-size:2.82839561px;font-family:ScalaSansOffc_b;white-space:pre;fill:#231f20;stroke-width:0.26458332"
       id="text1162"
       class="s1_1"
       dx="0 0.079374999 0.052916668 0.026458334 0.052916668 0.052916668 0.026458334 0.026458334 0.026458334 0.079374999 0"
       y="-14.002588"
       x="68.81057">Acrobatics </text>
    <text
       style="font-size:2.82839561px;font-family:ScalaSansOffc_b;white-space:pre;fill:#9ea0a2;stroke-width:0.26458332"
       id="text1164"
       class="s7_1"
       dx="0 -0.10583334 0.026458334 0.079374999 0.052916668"
       y="-14.002588"
       x="84.420982">(Dex)</text>
    <path
       style="fill:none;stroke:#231f20;stroke-width:0.20211227;stroke-linecap:butt;stroke-linejoin:miter"
       inkscape:connector-curvature="0"
       id="path1170"
       class="g9_1"
       d="m 61.164108,-7.7055051 h 5.741458" />
    <text
       style="font-size:2.82839561px;font-family:ScalaSansOffc_b;white-space:pre;fill:#231f20;stroke-width:0.26458332"
       id="text1172"
       class="s1_1"
       dx="0 0.052916668 0.026458334 0.026458334 0.026458334 0.026458334 0 0 0.026458334 0.026458334 0.052916668 0.026458334 0.026458334 0.026458334 0.026458334 0"
       y="-8.4463387"
       x="68.81057">Animal Handling </text>
    <text
       style="font-size:2.82839561px;font-family:ScalaSansOffc_b;white-space:pre;fill:#9ea0a2;stroke-width:0.26458332"
       id="text1174"
       class="s7_1"
       dx="0 0.15875 0.079374999 0 -0.052916668"
       y="-8.4463387"
       x="92.88765">(Wis)</text>
    <path
       style="fill:none;stroke:#231f20;stroke-width:0.20211227;stroke-linecap:butt;stroke-linejoin:miter"
       inkscape:connector-curvature="0"
       id="path1180"
       class="g9_1"
       d="m 61.164108,-2.2550885 h 5.741458" />
    <text
       style="font-size:2.82839561px;font-family:ScalaSansOffc_b;white-space:pre;fill:#231f20;stroke-width:0.26458332"
       id="text1182"
       class="s1_1"
       dx="0 0.052916668 0.026458334 0.079374999 0.026458334 0.026458334 0"
       y="-3.1546719"
       x="68.81057">Arcana </text>
    <text
       style="font-size:2.82839561px;font-family:ScalaSansOffc_b;white-space:pre;fill:#9ea0a2;stroke-width:0.26458332"
       id="text1184"
       class="s7_1"
       dx="0 0.026458334 0.026458334 0.052916668 0"
       y="-3.1546719"
       x="79.393898">(Int)</text>
    <path
       style="fill:none;stroke:#231f20;stroke-width:0.20211227;stroke-linecap:butt;stroke-linejoin:miter"
       inkscape:connector-curvature="0"
       id="path1190"
       class="g9_1"
       d="m 61.164108,3.1953281 h 5.741458" />
    <text
       style="font-size:2.82839561px;font-family:ScalaSansOffc_b;white-space:pre;fill:#231f20;stroke-width:0.26458332"
       id="text1192"
       class="s1_1"
       dx="0 0.052916668 0.052916668 0.026458334 0.052916668 0.079374999 0.026458334 0.026458334 0.079374999 0"
       y="2.4015782"
       x="68.81057">Athletics </text>
    <text
       style="font-size:2.82839561px;font-family:ScalaSansOffc_b;white-space:pre;fill:#9ea0a2;stroke-width:0.26458332"
       id="text1194"
       class="s7_1"
       dx="0 0 0.026458334 0.052916668 0.026458334"
       y="2.4015782"
       x="82.039734">(Str)</text>
    <path
       style="fill:none;stroke:#231f20;stroke-width:0.20211227;stroke-linecap:butt;stroke-linejoin:miter"
       inkscape:connector-curvature="0"
       id="path1200"
       class="g9_1"
       d="m 61.164108,8.672203 h 5.741458" />
    <text
       style="font-size:2.82839561px;font-family:ScalaSansOffc_b;white-space:pre;fill:#231f20;stroke-width:0.26458332"
       id="text1202"
       class="s1_1"
       dx="0 0.079374999 0.079374999 0.026458334 0.052916668 0.052916668 0.026458334 0.026458334 0.026458334 0"
       y="7.6932449"
       x="68.81057">Deception </text>
    <text
       style="font-size:2.82839561px;font-family:ScalaSansOffc_b;white-space:pre;fill:#9ea0a2;stroke-width:0.26458332"
       id="text1204"
       class="s7_1"
       dx="0 0 0.052916668 0.026458334 -0.052916668"
       y="7.6932449"
       x="84.156403">(Cha)</text>
    <path
       style="fill:none;stroke:#231f20;stroke-width:0.20211227;stroke-linecap:butt;stroke-linejoin:miter"
       inkscape:connector-curvature="0"
       id="path1210"
       class="g9_1"
       d="m 61.164108,14.12262 h 5.741458" />
    <text
       style="font-size:2.82839561px;font-family:ScalaSansOffc_b;white-space:pre;fill:#231f20;stroke-width:0.26458332"
       id="text1212"
       class="s1_1"
       dx="0 0.026458334 0 0.052916668 0.026458334 0.052916668 0.15875 0"
       y="13.249495"
       x="68.81057">History </text>
    <text
       style="font-size:2.82839561px;font-family:ScalaSansOffc_b;white-space:pre;fill:#9ea0a2;stroke-width:0.26458332"
       id="text1214"
       class="s7_1"
       dx="0 0.026458334 0.026458334 0.052916668 0"
       y="13.249495"
       x="79.923065">(Int)</text>
    <path
       style="fill:none;stroke:#231f20;stroke-width:0.20211227;stroke-linecap:butt;stroke-linejoin:miter"
       inkscape:connector-curvature="0"
       id="path1220"
       class="g9_1"
       d="m 61.164108,19.573036 h 5.741458" />
    <text
       style="font-size:2.82839561px;font-family:ScalaSansOffc_b;white-space:pre;fill:#231f20;stroke-width:0.26458332"
       id="text1222"
       class="s1_1"
       dx="0 0.026458334 0.026458334 0 0.026458334 0.052916668 0.052916668 0"
       y="18.805744"
       x="68.81057">Insight </text>
    <text
       style="font-size:2.82839561px;font-family:ScalaSansOffc_b;white-space:pre;fill:#9ea0a2;stroke-width:0.26458332"
       id="text1224"
       class="s7_1"
       dx="0 0.15875 0.079374999 0 -0.052916668"
       y="18.805744"
       x="79.923065">(Wis)</text>
    <path
       style="fill:none;stroke:#231f20;stroke-width:0.20211227;stroke-linecap:butt;stroke-linejoin:miter"
       inkscape:connector-curvature="0"
       id="path1230"
       class="g9_1"
       d="m 61.164108,25.023453 h 5.741458" />
    <text
       style="font-size:2.82839561px;font-family:ScalaSansOffc_b;white-space:pre;fill:#231f20;stroke-width:0.26458332"
       id="text1232"
       class="s1_1"
       dx="0 0.026458334 0.052916668 0.026458334 0.026458334 0.026458334 0.052916668 0.026458334 0.026458334 0.026458334 0.026458334 0.026458334 0"
       y="24.097412"
       x="68.81057">Intimidation </text>
    <text
       style="font-size:2.82839561px;font-family:ScalaSansOffc_b;white-space:pre;fill:#9ea0a2;stroke-width:0.26458332"
       id="text1234"
       class="s7_1"
       dx="0 0.026458334 0.052916668 0.026458334 -0.052916668"
       y="24.097412"
       x="87.066818">(Cha)</text>
    <path
       style="fill:none;stroke:#231f20;stroke-width:0.20211227;stroke-linecap:butt;stroke-linejoin:miter"
       inkscape:connector-curvature="0"
       id="path1240"
       class="g9_1"
       d="m 61.164108,30.500328 h 5.741458" />
    <text
       style="font-size:2.82839561px;font-family:ScalaSansOffc_b;white-space:pre;fill:#231f20;stroke-width:0.26458332"
       id="text1242"
       class="s1_1"
       dx="0 0.026458334 0.026458334 0.026458334 0.052916668 0.052916668 0.026458334 0.026458334 0.052916668 0.026458334 0.026458334 0.026458334 0.026458334 0"
       y="29.653662"
       x="68.81057">Investigation </text>
    <text
       style="font-size:2.82839561px;font-family:ScalaSansOffc_b;white-space:pre;fill:#9ea0a2;stroke-width:0.26458332"
       id="text1244"
       class="s7_1"
       dx="0 0.026458334 0.026458334 0.052916668 0"
       y="29.653662"
       x="88.389732">(Int)</text>
    <path
       style="fill:none;stroke:#231f20;stroke-width:0.20211227;stroke-linecap:butt;stroke-linejoin:miter"
       inkscape:connector-curvature="0"
       id="path1250"
       class="g9_1"
       d="m 61.164108,35.950744 h 5.741458" />
    <text
       style="font-size:2.82839561px;font-family:ScalaSansOffc_b;white-space:pre;fill:#231f20;stroke-width:0.26458332"
       id="text1252"
       class="s1_1"
       dx="0 0.052916668 0.079374999 0.026458334 0.026458334 0.052916668 0.026458334 0.052916668 0"
       y="35.209911"
       x="68.81057">Medicine </text>
    <text
       style="font-size:2.82839561px;font-family:ScalaSansOffc_b;white-space:pre;fill:#9ea0a2;stroke-width:0.26458332"
       id="text1254"
       class="s7_1"
       dx="0 0.15875 0.079374999 0 -0.052916668"
       y="35.209911"
       x="82.304314">(Wis)</text>
    <path
       style="fill:none;stroke:#231f20;stroke-width:0.20211227;stroke-linecap:butt;stroke-linejoin:miter"
       inkscape:connector-curvature="0"
       id="path1260"
       class="g9_1"
       d="m 61.164108,41.401161 h 5.741458" />
    <text
       style="font-size:2.82839561px;font-family:ScalaSansOffc_b;white-space:pre;fill:#231f20;stroke-width:0.26458332"
       id="text1262"
       class="s1_1"
       dx="0 0.026458334 0.026458334 0.026458334 0.026458334 0.026458334 0"
       y="40.501579"
       x="68.81057">Nature </text>
    <text
       style="font-size:2.82839561px;font-family:ScalaSansOffc_b;white-space:pre;fill:#9ea0a2;stroke-width:0.26458332"
       id="text1264"
       class="s7_1"
       dx="0 0.026458334 0.026458334 0.052916668 0"
       y="40.501579"
       x="79.923065">(Int)</text>
    <path
       style="fill:none;stroke:#231f20;stroke-width:0.20211227;stroke-linecap:butt;stroke-linejoin:miter"
       inkscape:connector-curvature="0"
       id="path1270"
       class="g9_1"
       d="m 61.164108,46.851578 h 5.741458" />
    <text
       style="font-size:2.82839561px;font-family:ScalaSansOffc_b;white-space:pre;fill:#231f20;stroke-width:0.26458332"
       id="text1272"
       class="s1_1"
       dx="0 0.026458334 0.052916668 0.026458334 0.026458334 0.052916668 0.052916668 0.026458334 0.026458334 0.026458334 0"
       y="46.057827"
       x="68.81057">Perception </text>
    <text
       style="font-size:2.82839561px;font-family:ScalaSansOffc_b;white-space:pre;fill:#9ea0a2;stroke-width:0.26458332"
       id="text1274"
       class="s7_1"
       dx="0 0.15875 0.079374999 0 -0.052916668"
       y="46.057827"
       x="84.420982">(Wis)</text>
    <path
       style="fill:none;stroke:#231f20;stroke-width:0.20211227;stroke-linecap:butt;stroke-linejoin:miter"
       inkscape:connector-curvature="0"
       id="path1280"
       class="g9_1"
       d="m 61.164108,52.328452 h 5.741458" />
    <text
       style="font-size:2.82839561px;font-family:ScalaSansOffc_b;white-space:pre;fill:#231f20;stroke-width:0.26458332"
       id="text1282"
       class="s1_1"
       dx="0 0.026458334 0.052916668 0.13229166 0.052916668 0.052916668 0.052916668 0.026458334 0.026458334 0.052916668 0.026458334 0"
       y="51.349495"
       x="68.81057">Performance </text>
    <text
       style="font-size:2.82839561px;font-family:ScalaSansOffc_b;white-space:pre;fill:#9ea0a2;stroke-width:0.26458332"
       id="text1284"
       class="s7_1"
       dx="0 0.026458334 0.052916668 0.026458334 -0.052916668"
       y="51.349495"
       x="88.125153">(Cha)</text>
    <path
       style="fill:none;stroke:#231f20;stroke-width:0.20211227;stroke-linecap:butt;stroke-linejoin:miter"
       inkscape:connector-curvature="0"
       id="path1290"
       class="g9_1"
       d="m 61.164108,57.778869 h 5.741458" />
    <text
       style="font-size:2.82839561px;font-family:ScalaSansOffc_b;white-space:pre;fill:#231f20;stroke-width:0.26458332"
       id="text1292"
       class="s1_1"
       dx="0 0.026458334 0.052916668 0.052916668 0.026458334 0.026458334 0.026458334 0 0.026458334 0.052916668 0"
       y="56.905743"
       x="68.81057">Persuasion </text>
    <text
       style="font-size:2.82839561px;font-family:ScalaSansOffc_b;white-space:pre;fill:#9ea0a2;stroke-width:0.26458332"
       id="text1294"
       class="s7_1"
       dx="0 0.026458334 0.052916668 0.026458334 -0.052916668"
       y="56.905743"
       x="84.95015">(Cha)</text>
    <path
       style="fill:none;stroke:#231f20;stroke-width:0.20211227;stroke-linecap:butt;stroke-linejoin:miter"
       inkscape:connector-curvature="0"
       id="path1300"
       class="g9_1"
       d="m 61.164108,63.229286 h 5.741458" />
    <text
       style="font-size:2.82839561px;font-family:ScalaSansOffc_b;white-space:pre;fill:#231f20;stroke-width:0.26458332"
       id="text1302"
       class="s1_1"
       dx="0 0.026458334 0.052916668 0.026458334 0.026458334 0.026458334 0.026458334 0.026458334 0"
       y="62.461994"
       x="68.81057">Religion </text>
    <text
       style="font-size:2.82839561px;font-family:ScalaSansOffc_b;white-space:pre;fill:#9ea0a2;stroke-width:0.26458332"
       id="text1304"
       class="s7_1"
       dx="0 0.026458334 0.026458334 0.052916668 0"
       y="62.461994"
       x="81.245987">(Int)</text>
    <path
       style="fill:none;stroke:#231f20;stroke-width:0.20211227;stroke-linecap:butt;stroke-linejoin:miter"
       inkscape:connector-curvature="0"
       id="path1310"
       class="g9_1"
       d="m 61.164108,68.679702 h 5.741458" />
    <text
       style="font-size:2.82839561px;font-family:ScalaSansOffc_b;white-space:pre;fill:#231f20;stroke-width:0.26458332"
       id="text1312"
       class="s1_1"
       dx="0 0.026458334 0.052916668 0.052916668 0.026458334 0.052916668 0.052916668 0 0 0.026458334 0 0 0.026458334 0.026458334 0.052916668 0"
       y="67.753662"
       x="68.81057">Sleight of Hand </text>
    <text
       style="font-size:2.82839561px;font-family:ScalaSansOffc_b;white-space:pre;fill:#9ea0a2;stroke-width:0.26458332"
       id="text1314"
       class="s7_1"
       dx="0 -0.10583334 0.026458334 0.079374999 0.052916668"
       y="67.753662"
       x="91.829323">(Dex)</text>
    <path
       style="fill:none;stroke:#231f20;stroke-width:0.20211227;stroke-linecap:butt;stroke-linejoin:miter"
       inkscape:connector-curvature="0"
       id="path1320"
       class="g9_1"
       d="m 61.164108,74.156577 h 5.741458" />
    <text
       style="font-size:2.82839561px;font-family:ScalaSansOffc_b;white-space:pre;fill:#231f20;stroke-width:0.26458332"
       id="text1322"
       class="s1_1"
       dx="0 0.026458334 0.026458334 0.052916668 0.026458334 0.052916668 0.052916668 0"
       y="73.309914"
       x="68.81057">Stealth </text>
    <text
       style="font-size:2.82839561px;font-family:ScalaSansOffc_b;white-space:pre;fill:#9ea0a2;stroke-width:0.26458332"
       id="text1324"
       class="s7_1"
       dx="0 -0.10583334 0.026458334 0.079374999 0.052916668"
       y="73.309914"
       x="79.923065">(Dex)</text>
    <path
       style="fill:none;stroke:#231f20;stroke-width:0.20211227;stroke-linecap:butt;stroke-linejoin:miter"
       inkscape:connector-curvature="0"
       id="path1330"
       class="g9_1"
       d="m 61.164108,79.606994 h 5.741458" />
    <text
       style="font-size:2.82839561px;font-family:ScalaSansOffc_b;white-space:pre;fill:#231f20;stroke-width:0.26458332"
       id="text1332"
       class="s1_1"
       dx="0 0.026458334 0.026458334 0.15875 0.052916668 0.052916668 0.026458334 0.026458334 0"
       y="78.866158"
       x="68.81057">Survival </text>
    <text
       style="font-size:2.82839561px;font-family:ScalaSansOffc_b;white-space:pre;fill:#9ea0a2;stroke-width:0.26458332"
       id="text1334"
       class="s7_1"
       dx="0 0.15875 0.079374999 0 -0.052916668"
       y="78.866158"
       x="81.245987">(Wis)</text>
    <text
       style="font-size:2.62731266px;font-family:ScalaSansOffc-Bold_c;white-space:pre;fill:#231f20;stroke-width:0.26458332"
       id="text1392"
       class="s6_1"
       y="86.009911"
       x="73.837654">SKILLS</text>
  </g>
</svg>
